<svg width="33" height="28" viewBox="0 0 33 28" fill="none" xmlns="http://www.w3.org/2000/svg">
<path d="M11.7152 22.9567L7.25404 9.6442C7.14222 9.3105 6.80971 9.08301 6.43349 9.08301C6.0574 9.08301 5.72497 9.31011 5.61287 9.6442L1.15082 22.9567C0.731012 22.9852 0.350437 23.2019 0.148891 23.5491C-0.0672282 23.9207 -0.0469907 24.373 0.202559 24.7264C1.5325 26.6099 3.82617 27.8543 6.43342 27.8543C9.04067 27.8543 11.3333 26.6099 12.6643 24.7264C12.914 24.373 12.9352 23.9203 12.7181 23.5486C12.5168 23.201 12.135 22.9847 11.7152 22.9567ZM2.95541 22.9458L6.43349 12.5683L9.91068 22.9458H2.95541Z" fill="#7BC142"/>
<path d="M32.8509 23.5486C32.6495 23.2009 32.2687 22.9847 31.8478 22.9567L27.387 9.6442C27.275 9.3105 26.9425 9.08301 26.5662 9.08301C26.1901 9.08301 25.8576 9.31011 25.7457 9.6442L21.2837 22.9567C20.8638 22.9852 20.4832 23.2019 20.2817 23.5491C20.0655 23.9207 20.0859 24.373 20.3355 24.7264C21.6653 26.6094 23.959 27.8531 26.5662 27.8531C29.1736 27.8531 31.4662 26.6094 32.7972 24.7264C33.0468 24.373 33.0682 23.9206 32.8509 23.5486ZM23.087 22.9457L26.5661 12.5677L30.0444 22.9457H23.087Z" fill="#7BC142"/>
<path d="M2.38463 7.7742H12.7912C12.678 7.43524 12.5998 7.08249 12.5998 6.7098C12.5998 6.453 12.6646 6.09338 12.7855 5.64526H2.38463C1.75106 5.64526 1.23828 6.1218 1.23828 6.7098C1.23835 7.29761 1.75113 7.7742 2.38463 7.7742Z" fill="#7BC142"/>
<path d="M30.6135 7.7742C31.2472 7.7742 31.7599 7.29754 31.7599 6.7098C31.7599 6.1218 31.2472 5.64526 30.6135 5.64526H20.2127C20.3336 6.09332 20.3985 6.453 20.3985 6.7098C20.3985 7.08249 20.32 7.43524 20.207 7.7742H30.6135Z" fill="#7BC142"/>
<path d="M16.5009 0C16.3855 0 16.2814 0.0633666 16.2356 0.160982C14.6772 3.4853 13.748 5.93338 13.748 6.70988C13.748 8.11876 14.9829 9.26545 16.5008 9.26545C18.0188 9.26545 19.2535 8.11876 19.2535 6.70988C19.2535 5.93287 18.3243 3.48478 16.7672 0.162072C16.7203 0.0633666 16.6161 0 16.5009 0ZM17.7189 6.70988C17.7189 7.33444 17.1736 7.84092 16.5009 7.84092C15.828 7.84092 15.2827 7.3345 15.2827 6.70988C15.2827 6.08506 15.828 5.57883 16.5009 5.57883C17.1736 5.57883 17.7189 6.08506 17.7189 6.70988Z" fill="#7BC142"/>
</svg>
