<svg width="28" height="27" viewBox="0 0 28 27" fill="none" xmlns="http://www.w3.org/2000/svg">
<path d="M27.3846 10.0523C27.3846 10.0096 27.381 9.96859 27.3757 9.92758L27.3765 9.93271C27.3631 9.88485 27.3479 9.84555 27.3318 9.80709L27.3345 9.81393C27.3149 9.75155 27.2925 9.69943 27.2657 9.64901L27.2684 9.65499C27.2487 9.61312 27.229 9.57809 27.2085 9.54476L27.2112 9.54903C27.204 9.53878 27.2031 9.52596 27.196 9.51571C27.1772 9.49093 27.1486 9.47811 27.128 9.45504C27.0878 9.40975 27.0458 9.36959 27.0002 9.33199L26.9984 9.33114C26.9743 9.31148 26.9618 9.28499 26.9358 9.26705L14.421 0.722048C14.4103 0.714357 14.3968 0.713503 14.3852 0.706667C14.3235 0.671632 14.252 0.640016 14.1778 0.616944L14.1698 0.615235C14.117 0.590455 14.0545 0.567383 13.9892 0.549439L13.9812 0.54773C13.9427 0.543457 13.898 0.540894 13.8533 0.540894C13.8292 0.540894 13.806 0.541748 13.7827 0.543457H13.7863C13.7604 0.541748 13.7309 0.540039 13.7014 0.540039C13.6504 0.540039 13.5995 0.543457 13.5503 0.549439L13.5557 0.548584C13.4913 0.566529 13.4368 0.586182 13.3849 0.610108L13.3912 0.607545C13.3009 0.634889 13.2231 0.669069 13.1507 0.710939L13.1552 0.708376C13.1445 0.715212 13.1328 0.715212 13.1221 0.722902L0.607251 9.2679C0.581327 9.28585 0.568812 9.31234 0.54557 9.33114C0.497299 9.36959 0.45439 9.41061 0.415952 9.45504L0.415058 9.45675C0.394498 9.47982 0.366786 9.49178 0.348014 9.51656C0.339969 9.52682 0.339075 9.53964 0.331924 9.55074C0.314045 9.57894 0.295273 9.61227 0.278288 9.6473L0.275607 9.65329C0.251471 9.69857 0.228229 9.75241 0.210351 9.80795L0.208563 9.81564C0.19426 9.84725 0.179957 9.88656 0.168336 9.92758L0.166549 9.93441C0.162079 9.96945 0.158503 10.0105 0.158503 10.0515C0.155822 10.0814 0.140625 10.107 0.140625 10.1369V23.8089C0.142413 25.3419 1.44217 26.5843 3.04586 26.5861H24.4999C26.1036 26.5852 27.4043 25.3419 27.4052 23.8089V10.1369C27.4052 10.107 27.39 10.0822 27.3873 10.0532L27.3846 10.0523ZM13.7702 17.3677L3.17816 10.1361L13.7702 2.90444L24.3623 10.1361L13.7702 17.3677ZM24.4972 24.449H3.04318C2.6731 24.449 2.37274 24.1618 2.37274 23.8081V12.2117L13.1203 19.5501C13.148 19.5655 13.182 19.5817 13.2169 19.5962L13.224 19.5988C13.2517 19.6142 13.2848 19.6304 13.3197 19.645L13.3268 19.6475C13.4564 19.7073 13.6084 19.7441 13.7684 19.7484H13.7702H13.772C13.9338 19.7441 14.0858 19.7073 14.2216 19.645L14.2145 19.6475C14.2556 19.6304 14.2896 19.6142 14.3218 19.5962L14.3164 19.5988C14.3584 19.5817 14.3924 19.5646 14.4246 19.5467L14.4192 19.5492L25.1668 12.2108V23.8072C25.1668 24.161 24.8664 24.4481 24.4963 24.4481L24.4972 24.449Z" fill="#7BC142"/>
</svg>
