<svg width="30" height="27" viewBox="0 0 30 27" fill="none" xmlns="http://www.w3.org/2000/svg">
<path fill-rule="evenodd" clip-rule="evenodd" d="M10.3407 17.2844C13.921 20.4115 17.2464 22.1547 19.721 23.1229C21.881 23.968 24.4309 23.3052 26.419 21.569L26.8741 21.1715L21.4122 18.1359C20.3734 19.4588 18.4107 20.2334 16.4511 19.5109C14.966 18.9635 13.0021 18.0285 11.2455 16.4942C9.48879 14.96 8.41819 13.2448 7.79134 11.948C6.96417 10.2365 7.8511 8.52229 9.36575 7.61495L5.89003 2.84482L5.43482 3.24239C3.44683 4.97862 2.68806 7.20557 3.65571 9.09216C4.76418 11.2534 6.76033 14.1576 10.3407 17.2844ZM18.4581 25.585C15.6552 24.4886 12.014 22.5613 8.15634 19.1921C4.29867 15.8231 2.09204 12.6429 0.836512 10.1951C-0.824991 6.95572 0.690922 3.57008 3.25048 1.33466L3.70569 0.937098C5.10312 -0.283359 7.43521 -0.0597829 8.49621 1.39638L12.8685 7.39691C13.1033 7.71912 13.1706 8.11315 13.0538 8.48122C12.9371 8.84928 12.6473 9.15688 12.2561 9.32769L11.2773 9.75509C10.6104 10.0463 10.4735 10.5598 10.6373 10.8987C11.1607 11.9817 12.0358 13.3691 13.4298 14.5865C14.8239 15.8041 16.4123 16.5683 17.6523 17.0254C18.0405 17.1684 18.6283 17.0489 18.9618 16.4664L19.4513 15.6116C19.6468 15.27 19.999 15.0168 20.4205 14.9149C20.8418 14.8129 21.293 14.8718 21.662 15.0769L28.5327 18.8954C30.1999 19.822 30.456 21.8588 29.0585 23.0792L28.6033 23.4767C26.0438 25.7122 22.1671 27.0361 18.4581 25.585Z" fill="#7BC142"/>
</svg>
