<svg width="108" height="17" viewBox="0 0 108 17" fill="none" xmlns="http://www.w3.org/2000/svg">
<path d="M91.8542 8.05899C91.8541 3.64071 95.4358 0.0589419 99.8541 0.0588789C104.272 0.0588159 107.854 3.64049 107.854 8.05876C107.854 12.477 104.273 16.0588 99.8543 16.0589C95.436 16.0589 91.8542 12.4773 91.8542 8.05899ZM-2.13634e-05 6.5603L99.8542 6.55888L99.8542 9.55888L2.13634e-05 9.5603L-2.13634e-05 6.5603Z" fill="#7BC142"/>
<circle cx="3.11766" cy="3.11766" r="3.11766" transform="matrix(1.4206e-05 1 1 -1.4206e-05 96.7646 5.00012)" fill="white"/>
<rect width="4.04049" height="4.04049" transform="matrix(1 -2.84121e-05 -2.84121e-05 -1 10.2197 9.96301)" fill="white"/>
<rect width="4.04049" height="4.04049" transform="matrix(1 -2.84121e-05 -2.84121e-05 -1 21.1533 9.72498)" fill="white"/>
</svg>
