<svg width="108" height="17" viewBox="0 0 108 17" fill="none" xmlns="http://www.w3.org/2000/svg">
<path d="M16.1462 8.17652C16.1462 12.5948 12.5645 16.1765 8.14617 16.1765C3.72789 16.1765 0.146172 12.5948 0.146172 8.17652C0.146171 3.75825 3.72789 0.176524 8.14617 0.176523C12.5645 0.176523 16.1462 3.75824 16.1462 8.17652ZM108 9.67651L8.14617 9.67652L8.14617 6.67652L108 6.67651L108 9.67651Z" fill="#7BC142"/>
<circle cx="3.11765" cy="3.11765" r="3.11765" transform="matrix(-4.37114e-08 -1 -1 4.37114e-08 11.2354 11.2354)" fill="white"/>
<rect width="4.04047" height="4.04047" transform="matrix(-1 1.42497e-05 1.42497e-05 1 97.7793 6.27368)" fill="white"/>
<rect width="4.04047" height="4.04047" transform="matrix(-1 1.42497e-05 1.42497e-05 1 86.8467 6.51154)" fill="white"/>
</svg>
