<svg width="31" height="31" viewBox="0 0 31 31" fill="none" xmlns="http://www.w3.org/2000/svg">
<path d="M14.9551 0.96875V6.35742H15.5C16.4021 6.35742 16.8926 7.06582 16.941 7.78633C16.9652 8.14961 16.8684 8.48262 16.6564 8.71875C16.4445 8.96094 16.1055 9.14258 15.5 9.14258C15.1973 9.14258 14.8279 8.97305 14.5555 8.69453C14.277 8.42207 14.1074 8.05273 14.1074 7.75H13.0176C13.0176 8.41602 13.3324 9.01543 13.7805 9.46953C14.2346 9.91758 14.834 10.2324 15.5 10.2324C16.3477 10.2324 17.0379 9.92969 17.4678 9.44531C17.9037 8.95488 18.0732 8.31914 18.0309 7.71367C17.9582 6.6541 17.2195 5.58363 16.0449 5.32691V0.96875H14.9551ZM12.0549 9.47559L3.71395 14.9551H5.69383L12.6482 10.3838L12.0549 9.47559ZM18.9451 9.47559L18.3518 10.3838L25.3086 14.9551H27.2824L18.9451 9.47559ZM2.48242 16.0449V29.4863H28.5176V16.0449H2.48242ZM4.7832 17.4375H5.87305V28.0938H4.7832V17.4375ZM7.68945 17.4375H8.7793V28.0938H7.68945V17.4375ZM10.5957 17.4375H11.6855V28.0938H10.5957V17.4375ZM13.502 17.4375H14.5918V28.0938H13.502V17.4375ZM16.4082 17.4375H17.498V28.0938H16.4082V17.4375ZM19.3145 17.4375H20.4043V28.0938H19.3145V17.4375ZM22.2207 17.4375H23.3105V28.0938H22.2207V17.4375ZM25.127 17.4375H26.2168V28.0938H25.127V17.4375Z" fill="#7BC142"/>
</svg>
