<svg width="26" height="29" viewBox="0 0 26 29" fill="none" xmlns="http://www.w3.org/2000/svg">
<path d="M20.2358 0.810791H9.90887H9.10865L8.54319 1.31724L0.725565 8.32002L0.160156 8.82647V9.54291V23.9801C0.160156 26.5553 2.49901 28.6506 5.37449 28.6506H20.2358C23.1104 28.6506 25.4492 26.5553 25.4492 23.9801V5.48135C25.4492 2.90573 23.1104 0.810791 20.2358 0.810791ZM23.519 23.9801C23.519 25.6046 22.0491 26.9212 20.2358 26.9212H5.37449C3.56038 26.9212 2.09046 25.6046 2.09046 23.9801V9.54285H7.17246C8.68311 9.54285 9.90887 8.44568 9.90887 7.09219V2.54012H20.2358C22.0491 2.54012 23.519 3.85674 23.519 5.48135V23.9801Z" fill="#7BC142"/>
<path d="M7.70251 14.5559H5.97065C5.64089 14.5559 5.44336 14.748 5.44336 15.0358V19.0461C5.44336 19.3934 5.69856 19.6224 6.0529 19.6224C6.39959 19.6224 6.65473 19.3935 6.65473 19.0461V17.8278C6.65473 17.7982 6.67167 17.7834 6.70475 17.7834H7.70251C8.92238 17.7834 9.65648 17.1186 9.65648 16.1732C9.65655 15.2131 8.93088 14.5559 7.70251 14.5559ZM7.62796 16.8452H6.70475C6.67167 16.8452 6.65473 16.8305 6.65473 16.8012V15.5381C6.65473 15.5084 6.67167 15.4937 6.70475 15.4937H7.62796C8.1391 15.4937 8.44426 15.767 8.44426 16.1733C8.44432 16.5795 8.1391 16.8452 7.62796 16.8452Z" fill="#7BC142"/>
<path d="M12.4505 14.5559H11.123C10.7932 14.5559 10.5957 14.748 10.5957 15.0358V19.1053C10.5957 19.3935 10.7932 19.578 11.123 19.578H12.4505C13.6458 19.578 14.3884 19.2382 14.6851 18.4185C14.7919 18.1303 14.8504 17.7834 14.8504 17.0669C14.8504 16.3505 14.7918 16.0035 14.6851 15.7154C14.3883 14.8957 13.6458 14.5559 12.4505 14.5559ZM13.5228 18.0419C13.3821 18.4405 12.9786 18.6106 12.4174 18.6106H11.8571C11.824 18.6106 11.8071 18.5958 11.8071 18.5662V15.5677C11.8071 15.5381 11.824 15.5233 11.8571 15.5233H12.4174C12.9786 15.5233 13.3821 15.6934 13.5228 16.092C13.5805 16.2621 13.6212 16.5575 13.6212 17.067C13.6212 17.5765 13.5805 17.8718 13.5228 18.0419Z" fill="#7BC142"/>
<path d="M19.1899 14.5559H16.4695C16.1398 14.5559 15.9414 14.748 15.9414 15.0358V19.0461C15.9414 19.3934 16.1975 19.6224 16.5518 19.6224C16.8976 19.6224 17.1536 19.3935 17.1536 19.0461V17.6133C17.1536 17.584 17.1697 17.5692 17.2028 17.5692H18.7864C19.1407 17.5692 19.3467 17.3772 19.3467 17.1038C19.3467 16.8304 19.1407 16.6387 18.7864 16.6387H17.2028C17.1697 16.6387 17.1536 16.6239 17.1536 16.5943V15.5381C17.1536 15.5084 17.1697 15.4937 17.2028 15.4937H19.1899C19.5281 15.4937 19.7511 15.2944 19.7511 15.0286C19.751 14.7552 19.5281 14.5559 19.1899 14.5559Z" fill="#7BC142"/>
</svg>
