<svg width="56" height="57" viewBox="0 0 56 57" fill="none" xmlns="http://www.w3.org/2000/svg">
<g clip-path="url(#clip0_5001_533)">
<path d="M47.6452 0.5H8.35484C6.139 0.5 4.01391 1.38024 2.44708 2.94708C0.880239 4.51391 0 6.639 0 8.85484L0 48.1452C0 50.361 0.880239 52.4861 2.44708 54.0529C4.01391 55.6198 6.139 56.5 8.35484 56.5H47.6452C49.861 56.5 51.9861 55.6198 53.5529 54.0529C55.1198 52.4861 56 50.361 56 48.1452V8.85484C56 6.639 55.1198 4.51391 53.5529 2.94708C51.9861 1.38024 49.861 0.5 47.6452 0.5Z" fill="#0C7AA2"/>
<path d="M48.1903 18.3577L46.365 20.5969L28.1124 7.12379L9.63386 20.8415L7.80859 18.6023L28.1124 3.36035L48.1903 18.3577Z" fill="white"/>
<path d="M42.0738 20.2017L28.055 9.90869L22.5792 14.0108L17.4986 17.7743L13.9609 20.2017V40.3926H18.59C18.59 40.3926 19.0228 39.2071 19.4556 38.1345C19.4556 38.1345 19.4556 38.0404 19.5496 38.0028L19.7566 37.57C21.7889 33.5619 27.2835 29.027 30.5201 26.4678C29.1464 25.5646 22.6169 31.3979 20.9986 33.9947C20.1085 32.1124 19.7258 30.0302 19.8884 27.9544C21.6195 20.8791 36.9932 21.5001 36.9932 21.5001C36.9932 21.5001 37.5953 33.2797 29.4663 35.5754C27.3087 36.0445 25.0755 36.0445 22.9179 35.5754C21.9206 37.6264 21.5819 38.7743 21.0362 39.9221L20.8292 40.4302H42.0927V20.2017H42.0738Z" fill="white"/>
<path d="M5.64453 51.5511L6.51012 44.2877V44.1748H7.62034V44.3253L7.16872 48.0888L9.18217 46.2071H10.6687L10.4053 46.4517L8.33539 48.3334L10.0101 51.5511V51.7393H8.86227L7.52625 49.0861L7.01819 49.5565L6.77356 51.5888V51.7017H5.64453V51.5511ZM10.4806 48.8038C10.4714 48.71 10.4714 48.6154 10.4806 48.5216C10.4806 48.3898 10.4806 48.2581 10.4806 48.1452C10.6286 47.567 10.9504 47.0482 11.4026 46.6587L11.6284 46.5081C11.6899 46.4535 11.7598 46.409 11.8354 46.3764C12.2322 46.1566 12.6803 46.0462 13.1338 46.0565C13.4636 46.0478 13.7913 46.112 14.0935 46.2447H14.2252C14.4884 46.3901 14.7161 46.5921 14.8918 46.8362C15.0675 47.0802 15.1869 47.3602 15.2413 47.656C15.3088 48.0419 15.3088 48.4367 15.2413 48.8226C15.2413 48.9355 15.2413 49.0296 15.2413 49.1049V49.3683C15.1741 49.7611 15.0337 50.1377 14.8273 50.4786C14.7152 50.6838 14.5689 50.8684 14.3945 51.0243C14.2274 51.1888 14.0372 51.3282 13.83 51.4382C13.6334 51.5439 13.4249 51.626 13.209 51.6829C12.9879 51.7417 12.7604 51.7733 12.5316 51.7769C12.1965 51.7761 11.8646 51.7123 11.5531 51.5888C11.2653 51.456 11.0135 51.2559 10.8193 51.0054C10.7544 50.9411 10.7032 50.8643 10.6687 50.7796C10.6138 50.7045 10.5695 50.6222 10.537 50.535C10.3461 49.9985 10.2943 49.4223 10.3865 48.8603V48.7474L10.4806 48.8038ZM11.5908 48.9544C11.553 49.2354 11.553 49.5201 11.5908 49.8011C11.6131 50.0091 11.684 50.2089 11.7978 50.3845C11.8938 50.5215 12.0234 50.6317 12.1741 50.7044C12.3383 50.7833 12.5189 50.822 12.701 50.8173C12.8827 50.818 13.0624 50.7795 13.2279 50.7044C13.3723 50.6219 13.5052 50.5207 13.623 50.4033L13.7359 50.2528L13.8488 50.1022C14.0361 49.7389 14.1511 49.3427 14.1875 48.9355C14.1875 48.9355 14.1875 48.7662 14.1875 48.6721V48.4463C14.2643 48.1468 14.2446 47.8307 14.1311 47.5431C14.0345 47.4018 13.9054 47.2856 13.7547 47.2044C13.5775 47.1023 13.3759 47.0502 13.1714 47.0538C12.9837 47.0532 12.7978 47.0917 12.6257 47.1667C12.4673 47.2608 12.3323 47.3895 12.2306 47.5431L12.1176 47.6748C12.1114 47.7311 12.1114 47.7879 12.1176 47.8441C11.9301 48.1872 11.8148 48.565 11.7789 48.9544H11.5908ZM15.8246 51.5511L16.4644 46.2823V46.1694H17.4806V46.32V46.6398C17.6248 46.5104 17.7825 46.3969 17.951 46.3011H18.0827H18.2144C18.4419 46.2112 18.6848 46.1664 18.9295 46.1694C19.1045 46.1489 19.2813 46.1489 19.4564 46.1694C19.6105 46.2154 19.7566 46.2853 19.8892 46.3764C20.0037 46.4687 20.1051 46.5763 20.1902 46.6963C20.1973 46.7651 20.1973 46.8345 20.1902 46.9033C20.3723 46.6804 20.596 46.4951 20.8488 46.3576C21.1356 46.195 21.4601 46.1107 21.7897 46.113C22.0266 46.1089 22.2624 46.1472 22.4859 46.2259C22.6828 46.3001 22.8577 46.4231 22.994 46.5834C23.1185 46.7728 23.2077 46.9832 23.2574 47.2044C23.2953 47.479 23.2953 47.7576 23.2574 48.0323L22.8246 51.6452V51.7581H21.8273V51.6076L22.2225 48.2958C22.2303 48.1453 22.2303 47.9946 22.2225 47.8441C22.2359 47.7568 22.2359 47.668 22.2225 47.5807C22.1822 47.5052 22.124 47.4406 22.0531 47.3925C21.9489 47.3606 21.8375 47.3606 21.7332 47.3925C21.5904 47.3641 21.4433 47.3641 21.3004 47.3925C21.1524 47.4442 21.0175 47.5277 20.9053 47.6372L20.6983 47.5431C20.6947 47.5869 20.6947 47.631 20.6983 47.6748C20.5348 47.9359 20.4379 48.2331 20.416 48.5404L20.0585 51.6076V51.7205H18.8166V51.57L19.2306 48.164C19.2494 48.0015 19.2494 47.8373 19.2306 47.6748C19.2307 47.5672 19.1978 47.4621 19.1365 47.3737C19.0081 47.2741 18.8467 47.227 18.6849 47.242C18.579 47.2241 18.4708 47.2241 18.365 47.242L18.1015 47.3737C17.9708 47.4868 17.8678 47.6285 17.8004 47.7877C17.7328 47.9253 17.6823 48.0706 17.6499 48.2205C17.5999 48.425 17.5622 48.6324 17.537 48.8415L16.9349 51.5888V51.7017H15.8811L15.8246 51.5511ZM24.0666 51.5511L24.5935 47.1291H23.8408V46.9786V46.2823V46.1694H24.5935V45.7366C24.5935 45.7366 24.5935 45.6237 24.5935 45.5861C24.5935 45.5484 24.5935 45.492 24.5935 45.4355C24.6223 45.2484 24.6729 45.0653 24.744 44.8898C24.8147 44.7695 24.8966 44.6561 24.9886 44.5511C25.0756 44.4491 25.177 44.3603 25.2897 44.2877C25.4208 44.1983 25.5677 44.1344 25.7225 44.0995C25.8976 44.0801 26.0743 44.0801 26.2494 44.0995H26.5881H27.0585H27.1902V44.2312L26.9832 45.0028V45.1345H26.8703H26.3999C26.3006 45.1137 26.1981 45.1137 26.0988 45.1345L25.9107 45.2286C25.8651 45.2929 25.8272 45.3624 25.7978 45.4355C25.7851 45.5544 25.7851 45.6742 25.7978 45.7931V46.1318H26.7763V46.2823V46.9786V47.0915H25.7789L25.2521 51.5511V51.664H24.1418L24.0666 51.5511ZM26.5693 48.8038C26.6169 48.3868 26.7312 47.9802 26.908 47.5995C27.0747 47.2374 27.3188 46.9163 27.623 46.6587L27.8488 46.5081C27.9104 46.4535 27.9802 46.409 28.0558 46.3764C28.4526 46.1566 28.9007 46.0462 29.3542 46.0565C29.6841 46.0478 30.0118 46.112 30.3139 46.2447H30.4456C30.7088 46.3901 30.9365 46.5921 31.1123 46.8362C31.288 47.0802 31.4073 47.3602 31.4617 47.656C31.5292 48.0419 31.5292 48.4367 31.4617 48.8226C31.4336 49.1422 31.3705 49.4577 31.2736 49.7635C31.2031 50.0134 31.102 50.2536 30.9725 50.4786L30.8596 50.6479C30.8261 50.7063 30.7813 50.7575 30.7279 50.7984C30.518 51.0557 30.2629 51.2725 29.9752 51.4382C29.7721 51.5442 29.5574 51.6262 29.3354 51.6829C29.1143 51.7417 28.8868 51.7733 28.658 51.7769C28.3229 51.7761 27.991 51.7123 27.6795 51.5888H27.5478C27.3103 51.4685 27.1041 51.2946 26.9456 51.0807C26.73 50.8144 26.5873 50.4967 26.5316 50.1587C26.4649 49.7537 26.4649 49.3405 26.5316 48.9355V48.8226L26.5693 48.8038ZM27.6795 48.9544C27.6417 49.2354 27.6417 49.5201 27.6795 49.8011C27.7019 50.0091 27.7728 50.2089 27.8865 50.3845L27.9806 50.4974L28.0935 50.5915C28.2919 50.746 28.5383 50.826 28.7897 50.8173C28.9775 50.8179 29.1633 50.7794 29.3354 50.7044C29.512 50.6218 29.6715 50.5069 29.8058 50.3657L29.9187 50.2151L30.0316 50.0646C30.2189 49.7012 30.3339 49.305 30.3703 48.8979C30.3797 48.8103 30.3797 48.722 30.3703 48.6345V48.4087C30.3895 48.089 30.3036 47.7718 30.1257 47.5054C30.0291 47.3641 29.9001 47.248 29.7494 47.1667C29.5911 47.09 29.4171 47.0514 29.2413 47.0538C29.0535 47.0532 28.8677 47.0917 28.6956 47.1667C28.5447 47.239 28.4102 47.3415 28.3004 47.4678L28.1687 47.5995L28.0746 47.7689C27.8895 48.0994 27.7742 48.4645 27.7359 48.8415L27.6795 48.9544ZM33.3246 51.6076L32.0263 46.3388V46.1694H33.1929V46.2823L33.8703 49.4248C33.8703 49.613 33.8703 49.7823 33.9832 49.9517L34.2467 49.3683L35.7521 46.1506H36.9187L36.8246 46.3576L34.3031 51.6264H33.3435L33.3246 51.6076ZM40.5128 49.7259L41.3784 49.8388H41.5478V50.0081C41.444 50.2764 41.3048 50.5295 41.1338 50.7608C40.9749 50.9762 40.7846 51.1665 40.5693 51.3253L40.3811 51.4382L40.1929 51.5511C39.8255 51.7137 39.428 51.7971 39.0263 51.7958C38.6786 51.7988 38.3336 51.7349 38.0101 51.6076H37.8596C37.6221 51.4873 37.4159 51.3134 37.2574 51.0995C37.0515 50.8367 36.9156 50.5259 36.8623 50.1963C36.7952 49.804 36.7952 49.4031 36.8623 49.0108C36.9103 48.59 37.018 48.1781 37.1822 47.7877C37.3217 47.4399 37.5334 47.1257 37.8031 46.8657C38.0427 46.6155 38.3308 46.417 38.6499 46.2823C38.9724 46.1517 39.3181 46.0876 39.666 46.0941C39.9896 46.0876 40.3107 46.1518 40.6069 46.2823H40.7386C40.9704 46.4032 41.1703 46.5774 41.3219 46.7904L41.4725 47.0162L41.5854 47.2608C41.7756 47.791 41.8274 48.3609 41.7359 48.9167C41.7397 48.9794 41.7397 49.0422 41.7359 49.1049V49.2178H37.9725V49.5189C37.9898 49.8037 38.0876 50.0778 38.2547 50.3092C38.3563 50.4411 38.4846 50.5501 38.6311 50.6291C38.7982 50.6684 38.9721 50.6684 39.1392 50.6291C39.2765 50.6487 39.4158 50.6487 39.5531 50.6291C39.6588 50.5903 39.7598 50.5398 39.8542 50.4786L40.1553 50.1775C40.2581 50.0296 40.3463 49.872 40.4187 49.7071V49.613L40.5128 49.7259ZM38.0478 48.2769H40.5504V48.07C40.5459 47.87 40.4874 47.6749 40.3811 47.5054L40.287 47.3925L40.1741 47.2985C40.0828 47.2152 39.976 47.1507 39.8597 47.1088C39.7435 47.0668 39.6201 47.0481 39.4967 47.0538C39.323 47.0541 39.1509 47.086 38.9886 47.1479C38.8524 47.2116 38.7257 47.2939 38.6123 47.3925L38.4994 47.5054L38.4053 47.6372C38.2671 47.8211 38.1708 48.0331 38.123 48.2581M42.1875 51.5135L42.8085 46.2447V46.1318H43.8246V46.2823V46.621C43.983 46.473 44.1601 46.3464 44.3515 46.2447C44.6619 46.0929 45.0034 46.0155 45.3488 46.0189H45.8004L46.2144 46.1506C46.4543 46.2422 46.6542 46.4154 46.7789 46.6398C46.8369 46.7491 46.8872 46.8623 46.9295 46.9786C46.9399 47.1038 46.9399 47.2297 46.9295 47.3549V47.5243C46.9433 47.7624 46.9433 48.0012 46.9295 48.2393L46.5531 51.4759V51.5888H45.4429V51.4382L45.8193 48.2393C45.8271 48.0889 45.8271 47.9381 45.8193 47.7877C45.8308 47.6814 45.8308 47.5741 45.8193 47.4678C45.8193 47.4114 45.8193 47.4114 45.8193 47.3549C45.7774 47.2586 45.7045 47.1792 45.6123 47.1291C45.5545 47.0738 45.4831 47.0348 45.4053 47.0162H45.123C44.9676 46.9862 44.808 46.9862 44.6526 47.0162C44.4952 47.0718 44.3487 47.1546 44.2198 47.2608C44.0735 47.3866 43.9631 47.5489 43.8999 47.7312C43.8001 47.991 43.7368 48.2633 43.7117 48.5404L43.2789 51.5888V51.7017H42.1687L42.1875 51.5135ZM49.7144 50.7608L49.6015 51.57V51.664H49.3193H48.9806H48.5478C48.4296 51.6349 48.3158 51.5906 48.209 51.5323C48.0952 51.4345 48.016 51.3025 47.9832 51.156V51.0431C47.9584 50.7425 47.9584 50.4404 47.9832 50.1398L48.3408 47.2608H47.6069V46.9786L47.701 46.2823V46.1694H48.3408L48.4725 44.9839L49.3945 44.4382L49.6015 44.3065V44.57L49.3945 46.2635H50.2413V46.414L50.1472 47.1103V47.2232H49.3004L48.9241 50.1022V50.1963C48.933 50.227 48.933 50.2597 48.9241 50.2904V50.535H49.1123H49.6203L49.7144 50.7608Z" fill="white"/>
</g>
<defs>
<clipPath id="clip0_5001_533">
<rect width="56" height="56" fill="white" transform="translate(0 0.5)"/>
</clipPath>
</defs>
</svg>
