<svg width="60" height="45" viewBox="0 0 60 45" fill="none" xmlns="http://www.w3.org/2000/svg">
<path d="M28.6375 13.6364C28.814 12.5772 28.4609 11.6946 28.6375 10.6355C28.6375 10.1059 29.1671 9.75289 29.1671 9.22332C29.3436 8.51723 29.3436 7.45805 29.3436 6.75196C29.1671 5.16326 28.1079 3.75112 26.8722 3.04503C25.9896 2.51547 24.754 1.9859 23.5183 2.16242C21.9296 2.16242 20.694 2.8685 19.8113 3.75111C18.9287 4.63372 17.8696 6.22243 18.0461 8.16417C18.0461 8.87026 18.2227 9.57636 18.5757 10.1059C18.7522 10.2825 18.9287 10.459 18.9287 10.812C19.1053 11.6946 18.7522 12.9302 18.9287 13.8129C17.8696 12.9302 16.987 11.8711 16.4574 10.4589C16.1044 9.57633 15.9279 8.16415 16.1044 6.92849C16.2809 4.98675 17.1635 3.57456 18.3992 2.3389C19.4583 1.27977 21.2236 0.220652 22.9888 0.0441298C24.9305 -0.132393 26.5192 0.220663 27.9314 1.10328C29.8731 2.16241 31.4619 4.28066 31.8149 6.92849C31.8149 7.45806 31.8149 7.98762 31.8149 8.51719C31.2853 10.812 30.0496 12.2242 28.6375 13.6364Z" fill="#FFAC0B"/>
<path d="M26.6983 20.3437C26.8749 19.1081 27.7575 18.049 28.9931 17.8724C30.7583 17.6959 32.1705 18.755 32.347 20.3437C32.347 21.2264 32.347 22.109 32.347 22.9916C32.5236 22.6385 32.5236 22.2855 32.7001 21.9324C33.0531 21.0498 33.9357 20.1672 35.1714 20.1672C36.5836 20.1672 37.8192 21.2264 37.9958 22.462C38.1723 23.3447 37.8192 24.2273 37.9958 25.1099C38.1723 24.7568 38.1723 24.4038 38.3488 24.2273C38.7018 23.5212 39.4079 22.815 40.2905 22.6385C41.7027 22.462 42.9384 23.1681 43.468 24.4037C43.821 25.6394 43.6445 27.0516 43.6445 28.2873C43.6445 30.9351 43.468 33.5829 43.468 36.4073C43.468 37.8195 43.468 39.0551 43.2914 40.4673C43.1149 43.1151 41.3497 44.5273 38.7018 44.5273C33.7592 44.5273 29.5227 44.5273 24.5801 44.5273C23.6974 44.5273 22.1087 44.7039 21.5792 44.3508C20.8731 43.9978 20.6966 43.2917 20.3435 42.5856C18.9313 39.9377 17.6957 36.9368 16.46 34.1125C15.2244 31.2881 13.8122 28.6403 12.5765 25.6394C12.2235 25.1099 11.8704 24.5803 12.0469 23.8742C12.2235 23.5212 12.5765 22.8151 12.753 22.462C13.6356 21.756 15.2243 21.5794 16.2835 22.2855C16.9896 22.8151 17.6957 24.0507 18.0487 24.9333C18.2252 25.4629 18.5783 25.8159 18.9313 26.3455C19.1078 26.6985 19.4609 27.4047 19.9905 27.5812C20.52 27.7577 20.8731 27.4046 21.0496 27.0516C21.2261 26.6985 21.0496 26.169 21.0496 25.816C21.0496 21.9325 21.0496 18.049 21.0496 14.342C21.0496 12.5768 21.0496 10.9881 21.0496 9.22286C21.0496 8.34025 21.0496 7.45759 21.2261 6.7515C21.4027 5.51584 22.4618 4.63325 23.6974 4.45673C25.2861 4.28021 26.5218 5.51584 26.6983 6.7515C26.8749 7.28107 26.6983 7.81068 26.6983 8.34025C26.5218 12.4003 26.6983 16.4603 26.6983 20.3437Z" fill="#817C7A"/>
</svg>
