<svg width="60" height="45" viewBox="0 0 60 45" fill="none" xmlns="http://www.w3.org/2000/svg">
<path d="M12.1627 21.1727L10.2852 18.7831L30.9383 1.71436L51.4207 18.4417L49.3724 20.8313L30.9383 5.64019L12.1627 21.1727Z" fill="#0095DA"/>
<path d="M22.0647 7.68856V3.42139H16.7734V11.9557L22.0647 7.68856Z" fill="#0095DA"/>
<path d="M29.0621 27.1466C29.0621 26.9759 29.0621 26.8052 29.0621 26.6346C28.7208 26.4639 28.3793 26.4638 28.0379 26.2932C26.8431 25.9518 25.819 25.4397 24.9656 24.5863C24.1122 23.7328 23.2587 22.7088 23.2587 21.0019C23.2587 19.295 24.6242 17.4175 26.8431 16.564C28.2086 16.052 30.4275 16.0519 31.1103 17.0761C32.1344 18.2709 31.281 19.8071 30.5982 21.0019C29.9155 22.026 29.7448 23.3915 30.2569 24.0742C30.4275 24.2449 30.9396 24.5863 31.4517 24.757C31.6224 24.757 31.793 24.757 31.9637 24.757C32.1344 24.4156 32.1344 24.0742 32.3051 23.7328C32.6465 22.538 33.1586 21.5139 34.012 20.6605C34.8654 19.8071 35.8896 18.9536 37.5965 18.9536C39.3034 18.9536 41.1809 20.3191 42.0343 22.5381C42.5464 23.9036 42.5464 26.1225 41.5223 26.8052C40.3275 27.8294 38.7913 26.9759 37.5965 26.2932C36.5724 25.6104 35.2068 25.4398 34.524 25.9518C34.3533 26.1225 34.012 26.6345 33.8413 27.1466C33.8413 27.3173 33.8413 27.488 33.8413 27.6587C34.1827 27.8294 34.524 27.8293 34.8654 28C36.0602 28.3414 37.0843 28.8535 37.9378 29.7069C38.7912 30.5603 39.6446 31.5845 39.6446 33.2913C39.6446 34.9982 38.2792 36.8758 36.0603 37.7292C34.6948 38.2413 32.4758 38.2413 31.7931 37.2172C30.769 36.0224 31.6224 34.4861 32.3051 33.2913C32.9879 32.2672 33.1586 30.9017 32.6465 30.219C32.4758 30.0483 31.9637 29.7069 31.4517 29.5363C31.281 29.5363 31.1103 29.5363 30.9396 29.5363C30.769 29.8776 30.7689 30.219 30.5982 30.5603C30.2569 31.7551 29.7448 32.7793 28.8914 33.6327C28.0379 34.4862 27.0139 35.3396 25.307 35.3396C23.6001 35.3396 21.7225 33.9741 20.8691 31.7552C20.357 30.3897 20.3571 28.1707 21.3812 27.488C22.576 26.4639 24.1122 27.3173 25.307 28C26.3311 28.6828 27.6966 28.8535 28.3793 28.3414C28.7207 28.3414 29.0621 27.6587 29.0621 27.1466ZM45.9601 19.8071L30.9396 7.51758L16.0898 19.8071V22.5381V41.143H26.3311H36.4016H46.1308V22.5381L45.9601 19.8071Z" fill="#817C7A"/>
<path d="M32.8169 27.1467C32.8169 27.8295 32.1342 28.5123 31.4514 28.5123C30.7687 28.5123 30.0859 27.8295 30.0859 27.1467C30.0859 26.464 30.7687 25.7812 31.4514 25.7812C32.1342 25.7812 32.8169 26.2933 32.8169 27.1467Z" fill="#817C7A"/>
</svg>
