<svg width="60" height="45" viewBox="0 0 60 45" fill="none" xmlns="http://www.w3.org/2000/svg">
<path fill-rule="evenodd" clip-rule="evenodd" d="M39.125 6.3125C39.8499 6.3125 40.4375 6.90013 40.4375 7.625V11.5625H44.375C45.0999 11.5625 45.6875 12.1501 45.6875 12.875C45.6875 13.5999 45.0999 14.1875 44.375 14.1875H40.4375V18.125C40.4375 18.8499 39.8499 19.4375 39.125 19.4375C38.4001 19.4375 37.8125 18.8499 37.8125 18.125V14.1875H33.875C33.1501 14.1875 32.5625 13.5999 32.5625 12.875C32.5625 12.1501 33.1501 11.5625 33.875 11.5625H37.8125V7.625C37.8125 6.90013 38.4001 6.3125 39.125 6.3125Z" fill="#0095DA"/>
<path d="M12 12.875C12 9.16269 12 7.30653 13.1533 6.15327C14.3065 5 16.1627 5 19.875 5C23.5873 5 25.4435 5 26.5967 6.15327C27.75 7.30653 27.75 9.16269 27.75 12.875C27.75 16.5873 27.75 18.4435 26.5967 19.5967C25.4435 20.75 23.5873 20.75 19.875 20.75C16.1627 20.75 14.3065 20.75 13.1533 19.5967C12 18.4435 12 16.5873 12 12.875Z" fill="#817C7A"/>
<path d="M31.2461 32.125C31.2461 28.4127 31.2461 26.5565 32.3994 25.4033C33.5526 24.25 35.4088 24.25 39.1211 24.25C42.8334 24.25 44.6896 24.25 45.8428 25.4033C46.9961 26.5565 46.9961 28.4127 46.9961 32.125C46.9961 35.8373 46.9961 37.6935 45.8428 38.8467C44.6896 40 42.8334 40 39.1211 40C35.4088 40 33.5526 40 32.3994 38.8467C31.2461 37.6935 31.2461 35.8373 31.2461 32.125Z" fill="#817C7A"/>
<path d="M12 32.125C12 28.4127 12 26.5565 13.1533 25.4033C14.3065 24.25 16.1627 24.25 19.875 24.25C23.5873 24.25 25.4435 24.25 26.5967 25.4033C27.75 26.5565 27.75 28.4127 27.75 32.125C27.75 35.8373 27.75 37.6935 26.5967 38.8467C25.4435 40 23.5873 40 19.875 40C16.1627 40 14.3065 40 13.1533 38.8467C12 37.6935 12 35.8373 12 32.125Z" fill="#817C7A"/>
</svg>
