<svg width="60" height="45" viewBox="0 0 60 45" fill="none" xmlns="http://www.w3.org/2000/svg">
<path d="M23.892 10.9019V6.90454H34.3199V10.9019H37.622V6.73073C37.622 4.99276 36.2317 3.42859 34.3199 3.42859H23.892C22.1541 3.42859 20.5898 4.81896 20.5898 6.73073V10.9019H23.892Z" fill="#FFAC0B"/>
<path d="M39.5317 13.1615H19.0234V41.1429H39.5317V13.1615Z" fill="#817C7A"/>
<path d="M47.0069 13.1614H42.1406V41.1428H47.0069C48.0497 41.1428 48.9187 40.2738 48.9187 39.231V15.0732C48.9187 14.0304 48.0497 13.1614 47.0069 13.1614Z" fill="#817C7A"/>
<path d="M16.4207 13.1615H11.3806C10.3378 13.1615 9.46875 14.0305 9.46875 15.0733V39.2312C9.46875 40.2739 10.3378 41.1429 11.3806 41.1429H16.4207V13.1615Z" fill="#817C7A"/>
</svg>
