<svg width="60" height="45" viewBox="0 0 60 45" fill="none" xmlns="http://www.w3.org/2000/svg">
<path fill-rule="evenodd" clip-rule="evenodd" d="M20.0878 30.8718C20.7841 31.22 21.0664 32.0667 20.7182 32.763L20.3728 33.4538C20.2892 33.621 20.322 33.8229 20.4541 33.9551C21.4444 34.9454 21.6899 36.4582 21.0636 37.7107L20.7182 38.4015C20.37 39.0979 19.5233 39.3801 18.827 39.0319C18.1307 38.6838 17.8484 37.837 18.1966 37.1407L18.542 36.4499C18.6256 36.2827 18.5928 36.0808 18.4606 35.9486C17.4704 34.9584 17.2249 33.4456 17.8512 32.193L18.1966 31.5022C18.5447 30.8059 19.3915 30.5236 20.0878 30.8718Z" fill="#817C7A"/>
<path fill-rule="evenodd" clip-rule="evenodd" d="M40.7623 30.8718C41.4587 31.22 41.7409 32.0667 41.3927 32.763L41.0473 33.4538C40.9637 33.621 40.9965 33.8229 41.1287 33.9551C42.1189 34.9454 42.3644 36.4582 41.7381 37.7107L41.3927 38.4015C41.0446 39.0979 40.1978 39.3801 39.5015 39.0319C38.8052 38.6838 38.5229 37.837 38.8711 37.1407L39.2165 36.4499C39.3001 36.2827 39.2673 36.0808 39.1352 35.9486C38.1449 34.9584 37.8994 33.4456 38.5257 32.193L38.8711 31.5022C39.2193 30.8059 40.066 30.5236 40.7623 30.8718Z" fill="#817C7A"/>
<path fill-rule="evenodd" clip-rule="evenodd" d="M30.5767 30.9596C31.2245 31.3914 31.3995 32.2666 30.9677 32.9144L30.3914 33.7788C30.0752 34.2531 30.1846 34.8917 30.6406 35.2336C32.2936 36.4734 32.6901 38.7885 31.544 40.5077L30.9677 41.3721C30.5359 42.0199 29.6607 42.195 29.0129 41.7631C28.3651 41.3313 28.1901 40.4561 28.6219 39.8083L29.1982 38.9439C29.5144 38.4696 29.405 37.831 28.949 37.489C27.2961 36.2493 26.8995 33.9342 28.0456 32.215L28.6219 31.3505C29.0538 30.7028 29.929 30.5277 30.5767 30.9596Z" fill="#817C7A"/>
<path fill-rule="evenodd" clip-rule="evenodd" d="M18.518 3H41.0721C44.6161 3 46.3881 3 47.4891 4.10099C48.5901 5.20198 48.5901 6.97399 48.5901 10.518V16.1565C48.5901 21.4726 48.5901 24.1306 46.9386 25.7821C45.9404 26.7803 44.5744 27.1752 42.4759 27.3313C42.466 26.0745 42.4391 24.6964 42.3659 24.1522C42.2417 23.2282 41.9615 22.3425 41.2431 21.624C40.5246 20.9056 39.6389 20.6254 38.7149 20.5012C37.8527 20.3853 36.776 20.3853 35.5263 20.3854H24.0637C22.8141 20.3853 21.7374 20.3853 20.8752 20.5012C19.9512 20.6254 19.0654 20.9056 18.347 21.624C17.6286 22.3425 17.3484 23.2282 17.2242 24.1522C17.151 24.6964 17.1241 26.0745 17.1141 27.3313C15.0157 27.1752 13.6497 26.7803 12.6515 25.7821C11 24.1306 11 21.4726 11 16.1565V10.518C11 6.97399 11 5.20198 12.101 4.10099C13.202 3 14.974 3 18.518 3ZM17.1084 15.2168C17.1084 14.4383 17.7395 13.8071 18.518 13.8071H41.0721C41.8506 13.8071 42.4817 14.4383 42.4817 15.2168C42.4817 15.9953 41.8506 16.6264 41.0721 16.6264H18.518C17.7395 16.6264 17.1084 15.9953 17.1084 15.2168ZM17.1084 10.518C17.1084 9.7395 17.7395 9.10839 18.518 9.10839H41.0721C41.8506 9.10839 42.4817 9.7395 42.4817 10.518C42.4817 11.2965 41.8506 11.9276 41.0721 11.9276H18.518C17.7395 11.9276 17.1084 11.2965 17.1084 10.518Z" fill="#817C7A"/>
<path d="M37.313 27.4335H22.277C21.4304 27.4335 20.6513 27.4335 19.9328 27.4269C19.9411 26.2076 19.9626 24.9419 20.0183 24.5279C20.1005 23.9165 20.2332 23.7248 20.3405 23.6175C20.4478 23.5102 20.6395 23.3775 21.2509 23.2953C21.9028 23.2077 22.7877 23.2047 24.1565 23.2047H35.4335C36.8024 23.2047 37.6872 23.2077 38.3392 23.2953C38.9506 23.3775 39.1423 23.5102 39.2496 23.6175C39.3569 23.7248 39.4896 23.9165 39.5718 24.5279C39.6274 24.9419 39.649 26.2076 39.6573 27.4269C38.9388 27.4335 38.1596 27.4335 37.313 27.4335Z" fill="#817C7A"/>
<path fill-rule="evenodd" clip-rule="evenodd" d="M20.0841 30.8718C20.7804 31.2199 21.0627 32.0667 20.7145 32.763L20.3691 33.4538C20.2855 33.621 20.3183 33.8229 20.4504 33.9551C21.4407 34.9453 21.6862 36.4581 21.0599 37.7107L20.7145 38.4015C20.3663 39.0978 19.5196 39.3801 18.8233 39.0319C18.127 38.6837 17.8447 37.837 18.1929 37.1407L18.5383 36.4499C18.6219 36.2827 18.5891 36.0808 18.4569 35.9486C17.4667 34.9584 17.2212 33.4456 17.8475 32.193L18.1929 31.5022C18.541 30.8059 19.3878 30.5236 20.0841 30.8718Z" fill="#0095DA"/>
<path fill-rule="evenodd" clip-rule="evenodd" d="M40.7586 30.8718C41.455 31.2199 41.7372 32.0667 41.389 32.763L41.0436 33.4538C40.96 33.621 40.9928 33.8229 41.125 33.9551C42.1152 34.9453 42.3607 36.4581 41.7344 37.7107L41.389 38.4015C41.0409 39.0978 40.1942 39.3801 39.4978 39.0319C38.8015 38.6837 38.5193 37.837 38.8674 37.1407L39.2128 36.4499C39.2964 36.2827 39.2636 36.0808 39.1315 35.9486C38.1412 34.9584 37.8957 33.4456 38.522 32.193L38.8674 31.5022C39.2156 30.8059 40.0623 30.5236 40.7586 30.8718Z" fill="#0095DA"/>
<path fill-rule="evenodd" clip-rule="evenodd" d="M30.573 30.9596C31.2208 31.3914 31.3959 32.2666 30.964 32.9144L30.3877 33.7788C30.0716 34.253 30.1809 34.8916 30.6369 35.2336C32.2899 36.4734 32.6864 38.7885 31.5403 40.5077L30.964 41.3721C30.5322 42.0199 29.657 42.1949 29.0092 41.7631C28.3614 41.3312 28.1864 40.456 28.6182 39.8083L29.1946 38.9438C29.5107 38.4696 29.4013 37.831 28.9454 37.489C27.2924 36.2493 26.8958 33.9342 28.0419 32.215L28.6182 31.3505C29.0501 30.7027 29.9253 30.5277 30.573 30.9596Z" fill="#0095DA"/>
</svg>
