<svg width="60" height="45" viewBox="0 0 60 45" fill="none" xmlns="http://www.w3.org/2000/svg">
<path d="M38.8156 30.9064C40.87 30.2216 41.8973 27.9959 41.7261 25.4279C42.9245 26.2839 43.6093 28.1671 43.7805 29.708C44.6365 36.2137 39.3292 39.6378 34.7067 41.0074C36.7612 36.5561 35.0491 30.3928 31.2826 29.1944C30.9402 31.2488 30.769 32.9608 29.5706 34.1593C28.3722 35.3577 26.3177 35.8713 26.1465 38.0969C26.1465 39.4666 26.8313 39.9802 27.1737 41.0074C22.7224 40.665 18.9559 38.953 18.2711 34.8441C17.4151 28.1671 24.9481 25.7703 23.7497 19.4357C25.9753 20.4629 26.8313 22.6886 27.1737 25.4279C30.769 22.3462 28.201 15.498 24.6057 14.1284C24.4345 14.1284 24.6057 13.9572 24.6057 13.9572C24.7769 13.9572 24.7768 13.786 24.7768 13.786C32.8234 14.642 41.2124 20.9766 38.8156 30.9064Z" fill="#FFAC0B"/>
<path d="M52.8555 40.6648H48.2329V25.4276C48.2329 15.669 40.1864 7.62241 30.4277 7.62241C20.6691 7.62241 12.6225 15.669 12.6225 25.4276V40.6648H8V25.4276C8 13.1009 18.101 2.99988 30.4277 2.99988C42.7544 2.99988 52.8555 13.1009 52.8555 25.4276V40.6648Z" fill="#817C7A"/>
</svg>
