<svg width="60" height="45" viewBox="0 0 60 45" fill="none" xmlns="http://www.w3.org/2000/svg">
<path d="M12.3604 21.2559L10.2852 18.8348L31.0372 1.71436L51.4434 18.4889L49.5412 20.91L31.0372 5.69181L12.3604 21.2559Z" fill="#0095DA"/>
<path d="M22.0474 7.594V3.4436H16.8594V12.0903L22.0474 7.594Z" fill="#0095DA"/>
<path d="M31.3775 34.2256H30.3398V41.1429H31.3775V34.2256Z" fill="#817C7A"/>
<path d="M23.776 16.2403C25.3324 16.2403 26.543 17.4508 26.543 19.0072C26.543 20.5636 25.3324 21.7742 23.776 21.7742C22.2196 21.7742 21.0091 20.5636 21.0091 19.0072C21.0091 17.4508 22.2196 16.2403 23.776 16.2403ZM30.8663 16.2403C32.4227 16.2403 33.6332 17.4508 33.6332 19.0072C33.6332 20.5636 32.4227 21.7742 30.8663 21.7742C29.3099 21.7742 28.0994 20.5636 28.0994 19.0072C28.0994 17.4508 29.3099 16.2403 30.8663 16.2403ZM37.9566 16.2403C39.513 16.2403 40.7235 17.4508 40.7235 19.0072C40.7235 20.5636 39.513 21.7742 37.9566 21.7742C36.4002 21.7742 35.1897 20.5636 35.1897 19.0072C35.1897 17.4508 36.4002 16.2403 37.9566 16.2403ZM20.6632 25.9246H20.4903L19.6256 30.9397C19.4527 31.6314 18.9339 31.9773 18.4151 31.9773C17.7233 31.9773 17.3775 31.4584 17.3775 30.5938V30.2479L18.761 23.3306C18.9339 22.6388 19.4527 22.293 19.9715 22.293H25.5054C25.3324 22.6388 25.1595 22.8118 25.1595 23.3306L23.776 30.075C23.776 30.2479 23.776 30.2479 23.776 30.5938C23.776 31.8043 24.4678 32.669 25.6783 32.669C26.1971 32.669 26.7159 32.4961 27.2347 31.9773V40.7969H28.0994V25.7516H27.9264L27.0618 30.7667C26.8888 31.4585 26.37 31.8043 25.8512 31.8043C25.1595 31.8043 24.8136 31.2855 24.8136 30.4209V30.075L26.1971 23.1576C26.37 22.4659 26.8888 22.12 27.4076 22.12H35.1897C35.8814 22.12 36.4002 22.6388 36.4002 23.1576L37.7837 30.075V30.4209C37.7837 31.1126 37.4378 31.8043 36.5731 31.8043C35.8814 31.8043 35.3626 31.2855 35.3626 30.7667L34.4979 25.7516H34.325V40.7969H35.1897V31.9773C35.5355 32.3231 36.0543 32.669 36.7461 32.669C37.9566 32.669 38.6483 31.8043 38.6483 30.5938C38.6483 30.2479 38.6483 30.2479 38.6483 30.075L37.2648 23.1576C37.2648 22.8118 37.0919 22.4659 36.919 22.293H42.2799C42.9717 22.293 43.4905 22.8118 43.4905 23.3306L44.8739 30.2479V30.5938C44.8739 31.2855 44.5281 31.9773 43.6634 31.9773C42.9717 31.9773 42.4529 31.4585 42.4529 30.9397L41.5882 25.9246H41.4152V40.9698H46.2574V22.4659V19.8719L31.2122 7.42065L16.3398 19.8719V22.4659V41.1427H21.0091L20.6632 25.9246Z" fill="#817C7A"/>
</svg>
