<svg width="60" height="45" viewBox="0 0 60 45" fill="none" xmlns="http://www.w3.org/2000/svg">
<path d="M21.7184 21.2557L19.8633 19.0075L40.1009 1.71423L60.0012 18.6617L58.1461 20.9098L40.1009 5.69167L21.7184 21.2557Z" fill="#0095DA"/>
<path d="M31.3296 7.76628V3.61584H26.1016V12.0896L31.3296 7.76628Z" fill="#0095DA"/>
<path d="M54.7697 19.8723L40.266 7.59399L25.5938 19.8723V22.6391V41.143H35.5439V26.4437H45.3254V41.143H54.9383V22.6391V19.8723H54.7697Z" fill="#817C7A"/>
<path d="M15.9851 23.1574C15.8165 22.2927 12.4436 19.5258 12.4436 19.5258C12.1063 19.1799 11.6003 19.007 11.263 19.1799C10.9257 19.1799 9.57657 19.5258 9.23928 19.6987C8.2274 20.2175 7.2155 20.5634 7.2155 21.7739V28.3454L3.84256 30.7664L0.132315 38.7214C-0.204979 39.4131 0.132356 40.2778 0.806943 40.6237C0.975589 40.7966 1.14423 40.7965 1.48152 40.7965C1.98746 40.7965 2.49337 40.4507 2.66202 39.9319L6.03495 32.6687L10.2511 29.7288C10.4198 29.7288 10.4198 29.5559 10.4198 29.5559C10.9257 29.21 11.0944 28.6912 11.0944 27.9995V22.4657L12.9495 24.5408V28.5183C12.9495 29.383 13.6241 29.9018 14.2987 29.9018C15.1419 29.9018 15.6478 29.2101 15.6478 28.5183C15.9851 28.3454 16.1538 24.3679 15.9851 23.1574Z" fill="#817C7A"/>
<path d="M15.9784 38.5489L11.0876 29.9022L8.72656 31.4586L13.4487 39.9323C13.786 40.4511 14.1233 40.6241 14.6292 40.6241C14.7978 40.6241 15.1351 40.6241 15.3038 40.4512C16.147 40.1053 16.3157 39.2406 15.9784 38.5489Z" fill="#817C7A"/>
<path d="M3.50848 28.519C3.84578 28.519 4.18308 28.346 4.52037 28.0002L6.71281 25.7521V21.7746C6.71281 21.7746 6.71281 21.7746 6.71281 21.6017L2.49664 26.0979C1.9907 26.6167 1.9907 27.6543 2.49664 28.1731C2.83394 28.3461 3.17119 28.519 3.50848 28.519Z" fill="#817C7A"/>
<path d="M11.0946 15.8937C11.0946 17.2771 9.91403 18.4877 8.56486 18.4877C7.21568 18.4877 6.03516 17.2771 6.03516 15.8937C6.03516 14.5102 7.21568 13.2997 8.56486 13.2997C9.91403 13.2997 11.0946 14.5102 11.0946 15.8937Z" fill="#817C7A"/>
</svg>
