<svg width="60" height="45" viewBox="0 0 60 45" fill="none" xmlns="http://www.w3.org/2000/svg">
<path d="M22.019 6.27778C22.019 5.57208 21.4469 5 20.7412 5C20.0355 5 19.4634 5.57208 19.4634 6.27778V8.96836C17.0112 9.16473 15.4014 9.64664 14.2187 10.8293C13.036 12.0121 12.554 13.6219 12.3577 16.0741H46.1617C45.9653 13.6219 45.4834 12.0121 44.3007 10.8293C43.118 9.64664 41.5082 9.16473 39.056 8.96836V6.27778C39.056 5.57208 38.4839 5 37.7782 5C37.0725 5 36.5004 5.57208 36.5004 6.27778V8.85531C35.367 8.83333 34.0966 8.83333 32.6671 8.83333H25.8523C24.4228 8.83333 23.1524 8.83333 22.019 8.85531V6.27778Z" fill="#817C7A"/>
<path fill-rule="evenodd" clip-rule="evenodd" d="M12.2227 22.463C12.2227 21.0335 12.2227 19.763 12.2446 18.6296H46.2748C46.2967 19.763 46.2967 21.0335 46.2967 22.463V25.8704C46.2967 32.2954 46.2967 35.508 44.3007 37.504C42.3047 39.5 39.0922 39.5 32.6671 39.5H25.8523C19.4272 39.5 16.2147 39.5 14.2187 37.504C12.2227 35.508 12.2227 32.2954 12.2227 25.8704V22.463ZM37.7782 25.8704C38.7191 25.8704 39.4819 25.1076 39.4819 24.1667C39.4819 23.2257 38.7191 22.463 37.7782 22.463C36.8373 22.463 36.0745 23.2257 36.0745 24.1667C36.0745 25.1076 36.8373 25.8704 37.7782 25.8704ZM37.7782 32.6852C38.7191 32.6852 39.4819 31.9224 39.4819 30.9815C39.4819 30.0406 38.7191 29.2778 37.7782 29.2778C36.8373 29.2778 36.0745 30.0406 36.0745 30.9815C36.0745 31.9224 36.8373 32.6852 37.7782 32.6852ZM30.9634 24.1667C30.9634 25.1076 30.2006 25.8704 29.2597 25.8704C28.3188 25.8704 27.556 25.1076 27.556 24.1667C27.556 23.2257 28.3188 22.463 29.2597 22.463C30.2006 22.463 30.9634 23.2257 30.9634 24.1667ZM30.9634 30.9815C30.9634 31.9224 30.2006 32.6852 29.2597 32.6852C28.3188 32.6852 27.556 31.9224 27.556 30.9815C27.556 30.0406 28.3188 29.2778 29.2597 29.2778C30.2006 29.2778 30.9634 30.0406 30.9634 30.9815ZM20.7412 25.8704C21.6821 25.8704 22.4449 25.1076 22.4449 24.1667C22.4449 23.2257 21.6821 22.463 20.7412 22.463C19.8002 22.463 19.0375 23.2257 19.0375 24.1667C19.0375 25.1076 19.8002 25.8704 20.7412 25.8704ZM20.7412 32.6852C21.6821 32.6852 22.4449 31.9224 22.4449 30.9815C22.4449 30.0406 21.6821 29.2778 20.7412 29.2778C19.8002 29.2778 19.0375 30.0406 19.0375 30.9815C19.0375 31.9224 19.8002 32.6852 20.7412 32.6852Z" fill="#817C7A"/>
<path d="M22.0206 6.27778C22.0206 5.57208 21.4486 5 20.7429 5C20.0372 5 19.4651 5.57208 19.4651 6.27778V8.96836C17.0129 9.16473 15.4031 9.64664 14.2204 10.8293C13.0376 12.0121 12.5557 13.6219 12.3594 16.0741H46.1634C45.967 13.6219 45.4851 12.0121 44.3024 10.8293C43.1197 9.64664 41.5099 9.16473 39.0577 8.96836V6.27778C39.0577 5.57208 38.4856 5 37.7799 5C37.0742 5 36.5021 5.57208 36.5021 6.27778V8.85531C35.3687 8.83333 34.0983 8.83333 32.6688 8.83333H25.854C24.4245 8.83333 23.1541 8.83333 22.0206 8.85531V6.27778Z" fill="#0095DA"/>
</svg>
