<svg width="60" height="45" viewBox="0 0 60 45" fill="none" xmlns="http://www.w3.org/2000/svg">
<path fill-rule="evenodd" clip-rule="evenodd" d="M29.5484 41C38.4954 41 45.7483 33.815 45.7483 24.9519C45.7483 16.0888 38.4954 8.90377 29.5484 8.90377C20.6015 8.90377 13.3486 16.0888 13.3486 24.9519C13.3486 33.815 20.6015 41 29.5484 41ZM29.5484 16.482C30.294 16.482 30.8984 17.0808 30.8984 17.8194V24.3979L35.003 28.4641C35.5302 28.9863 35.5302 29.8331 35.003 30.3553C34.4758 30.8776 33.621 30.8776 33.0938 30.3553L28.5939 25.8975C28.3407 25.6467 28.1985 25.3066 28.1985 24.9519V17.8194C28.1985 17.0808 28.8029 16.482 29.5484 16.482Z" fill="#817C7A"/>
<path fill-rule="evenodd" clip-rule="evenodd" d="M22.5934 4.62873C22.9885 5.25506 22.7963 6.08014 22.1641 6.47159L14.9641 10.9294C14.3318 11.3209 13.499 11.1304 13.1038 10.5041C12.7087 9.87779 12.9009 9.05272 13.5331 8.66127L20.7331 4.20346C21.3653 3.812 22.1982 4.00241 22.5934 4.62873Z" fill="#817C7A"/>
<path fill-rule="evenodd" clip-rule="evenodd" d="M36.5036 4.62873C36.8987 4.00241 37.7316 3.812 38.3638 4.20346L45.5638 8.66127C46.196 9.05272 46.3882 9.8778 45.9931 10.5041C45.5979 11.1304 44.765 11.3208 44.1328 10.9294L36.9329 6.47159C36.3006 6.08013 36.1084 5.25506 36.5036 4.62873Z" fill="#817C7A"/>
<path fill-rule="evenodd" clip-rule="evenodd" d="M22.5934 4.62873C22.9885 5.25506 22.7963 6.08014 22.1641 6.47159L14.9641 10.9294C14.3318 11.3209 13.499 11.1304 13.1038 10.5041C12.7087 9.87779 12.9009 9.05272 13.5331 8.66127L20.7331 4.20346C21.3653 3.812 22.1982 4.00241 22.5934 4.62873Z" fill="#0095DA"/>
<path fill-rule="evenodd" clip-rule="evenodd" d="M36.5036 4.62873C36.8987 4.00241 37.7316 3.812 38.3638 4.20346L45.5638 8.66127C46.196 9.05272 46.3882 9.8778 45.9931 10.5041C45.5979 11.1304 44.765 11.3209 44.1328 10.9294L36.9329 6.47159C36.3006 6.08013 36.1084 5.25506 36.5036 4.62873Z" fill="#0095DA"/>
</svg>
