<svg width="60" height="45" viewBox="0 0 60 45" fill="none" xmlns="http://www.w3.org/2000/svg">
<path d="M12.3513 21.1705L10.2852 18.76L30.9466 1.71436L51.2636 18.5878L49.3697 20.8262L30.9466 5.67444L12.3513 21.1705Z" fill="#0095DA"/>
<path d="M21.9899 7.74067V3.6084H16.6523V12.0451L21.9899 7.74067Z" fill="#0095DA"/>
<path d="M30.2539 32.5342V40.6266C30.2539 40.7988 30.2539 40.7987 30.2539 40.9709H31.4591C31.4591 40.7987 31.4591 40.7988 31.4591 40.6266V32.5342H30.2539Z" fill="#817C7A"/>
<path d="M30.7683 20.137C29.2187 20.137 27.8413 18.9317 27.8413 17.21C27.8413 15.6603 29.0465 14.2829 30.7683 14.2829C32.3179 14.2829 33.6954 15.4882 33.6954 17.21C33.6954 18.7596 32.3179 20.137 30.7683 20.137ZM45.7479 19.7926L30.7683 7.39575L15.9609 19.7926V22.3753V40.9706H26.1195H27.6691C27.6691 40.7984 27.6691 40.7984 27.6691 40.6263V24.0971H27.3247L26.4638 29.2625C26.2917 29.9512 25.7751 30.2955 25.0864 30.2955C24.3977 30.2955 24.0534 29.779 24.0534 28.9181V28.5737L25.4308 21.6866C25.6029 20.9979 26.1195 20.6535 26.8082 20.6535H34.7284C35.4171 20.6535 35.9337 21.1701 36.1059 21.8588L37.6555 28.7459V29.0903C37.6555 29.779 37.1389 30.4677 36.4502 30.4677C35.7615 30.4677 35.245 29.9512 35.0728 29.4346L34.2119 24.2693H34.0397V40.7984C34.0397 40.9706 34.0397 40.9706 34.0397 41.1428H34.2119H36.1059H45.7479V22.7197V19.7926Z" fill="#817C7A"/>
</svg>
