<svg width="60" height="45" viewBox="0 0 60 45" fill="none" xmlns="http://www.w3.org/2000/svg">
<path fill-rule="evenodd" clip-rule="evenodd" d="M19.291 10.8333C19.291 7.61167 21.9289 5 25.183 5C28.437 5 31.0749 7.61167 31.0749 10.8333C31.0749 14.055 28.437 16.6667 25.183 16.6667H13.3991C12.6482 16.6667 12.0395 16.064 12.0395 15.3205C12.0395 14.5771 12.6482 13.9744 13.3991 13.9744H25.183C26.9351 13.9744 28.3555 12.5681 28.3555 10.8333C28.3555 9.09859 26.9351 7.69231 25.183 7.69231C23.4308 7.69231 22.0104 9.09859 22.0104 10.8333V11.4744C22.0104 12.2178 21.4016 12.8205 20.6507 12.8205C19.8998 12.8205 19.291 12.2178 19.291 11.4744V10.8333ZM33.7942 14.4231C33.7942 10.2101 37.2438 6.79487 41.499 6.79487C45.7543 6.79487 49.2038 10.2101 49.2038 14.4231C49.2038 18.636 45.7543 22.0513 41.499 22.0513H11.5862C10.8353 22.0513 10.2266 21.4486 10.2266 20.7051C10.2266 19.9617 10.8353 19.359 11.5862 19.359H41.499C44.2524 19.359 46.4845 17.1491 46.4845 14.4231C46.4845 11.6971 44.2524 9.48718 41.499 9.48718C38.7456 9.48718 36.5136 11.6971 36.5136 14.4231V15.3205C36.5136 16.064 35.9048 16.6667 35.1539 16.6667C34.403 16.6667 33.7942 16.064 33.7942 15.3205V14.4231ZM13.8524 26.0897C13.8524 25.3463 14.4611 24.7436 15.212 24.7436H41.499C45.7543 24.7436 49.2038 28.1589 49.2038 32.3718C49.2038 36.5847 45.7543 40 41.499 40C37.2438 40 33.7942 36.5847 33.7942 32.3718V31.4744C33.7942 30.7309 34.403 30.1282 35.1539 30.1282C35.9048 30.1282 36.5136 30.7309 36.5136 31.4744V32.3718C36.5136 35.0978 38.7456 37.3077 41.499 37.3077C44.2524 37.3077 46.4845 35.0978 46.4845 32.3718C46.4845 29.6458 44.2524 27.4359 41.499 27.4359H15.212C14.4611 27.4359 13.8524 26.8332 13.8524 26.0897Z" fill="#817C7A"/>
<path fill-rule="evenodd" clip-rule="evenodd" d="M19.2906 10.8333C19.2906 7.61167 21.9285 5 25.1826 5C28.4366 5 31.0745 7.61167 31.0745 10.8333C31.0745 14.055 28.4366 16.6667 25.1826 16.6667H13.3987C12.6478 16.6667 12.0391 16.064 12.0391 15.3205C12.0391 14.5771 12.6478 13.9744 13.3987 13.9744H25.1826C26.9347 13.9744 28.3551 12.5681 28.3551 10.8333C28.3551 9.09859 26.9347 7.69231 25.1826 7.69231C23.4304 7.69231 22.01 9.09859 22.01 10.8333V11.4744C22.01 12.2178 21.4012 12.8205 20.6503 12.8205C19.8994 12.8205 19.2906 12.2178 19.2906 11.4744V10.8333Z" fill="#0095DA"/>
</svg>
