<svg width="60" height="45" viewBox="0 0 60 45" fill="none" xmlns="http://www.w3.org/2000/svg">
<path d="M29.3271 4.5567C28.9791 4.20875 28.6312 3.8608 28.2833 3.68682C27.0654 2.81695 25.6736 2.12106 23.7599 2.12106C21.6722 2.12106 19.9325 2.99094 18.7146 4.03479C17.4968 5.07865 16.6269 6.64442 16.105 8.38417C13.6693 8.38417 11.9296 9.25402 10.5378 10.4718C8.972 12.0376 7.75418 14.2993 8.10213 17.2569C8.27611 18.8227 8.97201 20.0405 9.84188 21.0843C10.5378 21.9542 11.4077 22.6501 12.4515 23.1721C12.6255 23.1721 12.7994 23.3461 12.7994 23.3461C10.3638 22.9981 8.62407 21.7803 7.40624 20.3885C6.18841 18.8227 5.14453 16.735 5.14453 14.1253C5.31851 11.3417 6.18837 9.428 7.58017 8.0362C8.798 6.6444 10.3638 5.60054 12.6255 5.25259C12.7995 5.25259 12.9734 5.25259 12.9734 5.25259C13.1474 5.25259 13.4954 4.38276 13.4954 4.20878C14.0173 3.3389 14.8872 2.46899 15.757 1.77308C16.9749 0.903209 18.5407 0.207308 20.4544 0.033333C22.5421 -0.140642 24.4558 0.381305 25.6736 1.25118C27.5874 2.12106 28.6312 3.1649 29.3271 4.5567Z" fill="#FFAC0B"/>
<path d="M38.5506 17.4306C40.4644 17.9525 42.9 18.8224 44.6398 19.5183C45.6836 20.0403 47.0754 20.3882 47.2494 21.6061C47.4234 22.6499 46.7275 23.1718 46.2055 23.5197C45.5096 23.8677 44.4658 23.5197 43.5959 23.5197C39.0725 22.8238 35.0711 22.302 30.5478 21.6061C26.7203 21.0841 23.0668 20.5622 19.2394 19.8663C18.5435 19.6923 18.0215 19.6923 17.3256 19.5183C16.6297 19.3444 16.1078 19.3443 15.4119 19.1704C14.89 18.9964 14.3681 18.4745 14.1941 17.9526C13.8462 16.9087 14.5421 16.0388 15.238 15.6909C15.7599 15.5169 16.4558 15.3429 17.1517 15.3429C19.2394 15.169 21.675 14.995 23.7627 14.995C23.9367 14.647 24.1107 14.2991 24.2847 13.9511C25.3285 11.8634 27.4162 10.1237 30.1998 9.77572C32.8094 9.60175 34.7232 10.4716 36.115 11.8634C37.6808 13.4292 38.5506 14.995 38.5506 17.4306ZM31.0697 13.0812C29.3299 13.0812 28.1121 14.1251 27.4162 15.3429C28.982 15.5169 30.3738 15.6909 31.9395 16.0388C33.1574 16.2128 34.3752 16.5608 35.593 16.7347C35.0711 14.647 33.3314 12.9073 31.0697 13.0812Z" fill="#817C7A"/>
<path d="M15.0648 25.9558H46.2063C46.2063 27.1736 46.2063 28.5654 46.2063 29.9572C47.0762 29.9572 47.7721 29.6093 48.642 29.2613C48.9899 29.0874 49.5119 29.0873 49.8598 28.9134C50.2078 28.7394 50.7297 28.5654 51.0776 28.7394C52.1215 28.7394 52.9914 29.6092 53.1653 30.4791C53.3393 31.523 52.8174 32.5669 51.9475 32.9148C51.5996 33.0888 50.9037 33.2627 50.5557 33.2627C48.9899 33.6107 47.5981 34.1326 46.2063 34.4806C46.2063 36.0464 46.2063 37.7861 46.2063 39.3519C46.2063 40.2217 46.2063 41.0917 46.0324 41.6136C45.6844 43.3533 44.1186 44.5711 41.683 44.5711C40.1172 44.5711 38.5515 44.5711 36.9857 44.5711C35.4199 44.5711 33.8541 44.5711 32.2883 44.5711H20.458C19.7621 44.5711 18.8922 44.5711 18.1963 44.5711C16.4566 44.3971 15.0648 43.0054 14.8908 41.2656C14.7168 39.1779 15.0648 36.7423 14.8908 34.6546C13.499 34.1326 11.9332 33.7847 10.3674 33.4367C9.84551 33.2627 9.32361 33.2628 8.97566 32.9148C8.10578 32.5669 7.75781 31.697 7.75781 30.6531C7.75781 29.6093 8.80168 28.7394 9.84554 28.7394C10.1935 28.7394 10.7154 28.9134 11.2373 28.9134C12.4551 29.2613 13.673 29.6093 14.8908 29.9572C15.0648 28.7394 14.8908 27.3476 15.0648 25.9558Z" fill="#817C7A"/>
</svg>
