<svg width="38" height="42" viewBox="0 0 38 42" fill="none" xmlns="http://www.w3.org/2000/svg">
<path d="M29.712 0H14.4281H13.2438L12.4069 0.749538L0.836805 11.1137L0 11.8632V12.9235V34.2906C0 38.1019 3.4615 41.2029 7.71722 41.2029H29.712C33.9663 41.2029 37.4278 38.1019 37.4278 34.2906V6.91242C37.4278 3.10052 33.9663 0 29.712 0ZM34.5711 34.2905C34.5711 36.6948 32.3956 38.6435 29.712 38.6435H7.71722C5.03233 38.6435 2.85685 36.6948 2.85685 34.2905V12.9235H10.3782C12.614 12.9235 14.4281 11.2996 14.4281 9.29647V2.55941H29.712C32.3956 2.55941 34.5711 4.50801 34.5711 6.91242V34.2905Z" fill="#0095DA"/>
<path d="M11.1619 20.3428H8.59874C8.11071 20.3428 7.81836 20.6271 7.81836 21.053V26.9883C7.81836 27.5023 8.19606 27.8412 8.72048 27.8412C9.23358 27.8412 9.61119 27.5024 9.61119 26.9883V25.1852C9.61119 25.1413 9.63626 25.1194 9.68522 25.1194H11.1619C12.9673 25.1194 14.0538 24.1355 14.0538 22.7364C14.0539 21.3154 12.9799 20.3428 11.1619 20.3428ZM11.0516 23.731H9.68522C9.63626 23.731 9.61119 23.7091 9.61119 23.6658V21.7964C9.61119 21.7525 9.63626 21.7307 9.68522 21.7307H11.0516C11.8081 21.7307 12.2597 22.1353 12.2597 22.7365C12.2598 23.3376 11.8081 23.731 11.0516 23.731Z" fill="#0095DA"/>
<path d="M18.1924 20.3428H16.2276C15.7396 20.3428 15.4473 20.6271 15.4473 21.053V27.0759C15.4473 27.5024 15.7395 27.7755 16.2276 27.7755H18.1924C19.9614 27.7755 21.0604 27.2726 21.4995 26.0594C21.6576 25.6329 21.7441 25.1194 21.7441 24.0591C21.7441 22.9988 21.6575 22.4852 21.4995 22.0588C21.0603 20.8457 19.9614 20.3428 18.1924 20.3428ZM19.7794 25.5021C19.5712 26.092 18.974 26.3437 18.1434 26.3437H17.3141C17.2652 26.3437 17.2401 26.3219 17.2401 26.2781V21.8402C17.2401 21.7964 17.2652 21.7745 17.3141 21.7745H18.1434C18.974 21.7745 19.5712 22.0262 19.7794 22.6163C19.8648 22.868 19.925 23.3051 19.925 24.0592C19.925 24.8132 19.8647 25.2503 19.7794 25.5021Z" fill="#0095DA"/>
<path d="M28.1632 20.3428H24.1371C23.6491 20.3428 23.3555 20.6271 23.3555 21.053V26.9883C23.3555 27.5023 23.7344 27.8412 24.2588 27.8412C24.7707 27.8412 25.1496 27.5024 25.1496 26.9883V24.8677C25.1496 24.8244 25.1734 24.8025 25.2223 24.8025H27.566C28.0904 24.8025 28.3953 24.5183 28.3953 24.1136C28.3953 23.709 28.0904 23.4253 27.566 23.4253H25.2223C25.1734 23.4253 25.1496 23.4035 25.1496 23.3596V21.7964C25.1496 21.7525 25.1734 21.7307 25.2223 21.7307H28.1632C28.6638 21.7307 28.9938 21.4357 28.9938 21.0424C28.9937 20.6377 28.6637 20.3428 28.1632 20.3428Z" fill="#0095DA"/>
</svg>
