<svg width="20" height="20" viewBox="0 0 20 20" fill="none" xmlns="http://www.w3.org/2000/svg">
<g clip-path="url(#clip0_464_1095)">
<path d="M13.37 9.97584L19.5752 3.77057C19.8498 3.49611 20.0005 3.13123 20 2.7433C19.9995 2.35619 19.848 1.9917 19.5738 1.71748L18.2581 0.426113C17.9843 0.152363 17.6201 0.0249023 17.2327 0.0249023C17.2318 0.0249023 17.2308 0.0249023 17.2298 0.0249023C16.842 0.0249023 16.4782 0.150957 16.205 0.424434L9.99977 6.61756L3.79453 0.431035C3.52078 0.157051 3.1566 0.0249023 2.76965 0.0249023C2.76871 0.0249023 2.76824 0.0249023 2.76727 0.0249023C2.37985 0.0249023 2.01567 0.152129 1.74141 0.426582L0.425782 1.7299C0.152032 2.00342 0.000938595 2.36143 1.09446e-06 2.74881C-0.000467656 3.13764 0.14965 3.49947 0.423868 3.77346L6.62957 9.97736L0.4234 16.1821C-0.141132 16.7478 -0.140194 17.6681 0.425782 18.2342L1.74145 19.55C2.02516 19.8337 2.39738 19.9754 2.76965 19.9752C3.14094 19.9752 3.51227 19.834 3.79453 19.5515L9.99977 13.346L16.205 19.5517C16.771 20.117 17.6921 20.116 18.2581 19.5499L19.5738 18.2342C19.8475 17.9604 19.9986 17.5964 19.9991 17.2087C20 16.8199 19.8495 16.4548 19.5752 16.1811L13.37 9.97584ZM18.888 17.5481L17.5723 18.864C17.3847 19.0518 17.0783 19.0532 16.8907 18.8657L10.3427 12.3174C10.2517 12.2264 10.1286 12.1752 9.99977 12.1752C9.87094 12.1752 9.74782 12.2264 9.65688 12.3174L3.10875 18.8657C3.01828 18.9559 2.88285 19.0213 2.76871 19.0054C2.63942 19.0051 2.51817 18.9549 2.42723 18.864L1.11152 17.5481C0.923517 17.3598 0.92254 17.0541 1.10965 16.8668L7.65824 10.3187C7.74918 10.2278 7.80031 10.1044 7.80031 9.97588C7.80031 9.84725 7.74914 9.72393 7.65824 9.63299L1.10965 3.08455C1.01918 2.99439 0.969923 2.87361 0.969923 2.74479C0.970392 2.61549 1.02059 2.49424 1.11152 2.4033L2.42723 1.08756C2.5191 0.995723 2.6309 0.926582 2.76965 0.945293C2.89754 0.945293 3.01781 0.995254 3.10875 1.08592L9.65688 7.63404C9.84633 7.8235 10.1532 7.8235 10.3427 7.63404L16.8908 1.11025C16.9807 1.02002 17.1011 0.994863 17.2299 0.994863C17.2299 0.994863 17.2304 0.994863 17.2308 0.994863C17.3601 0.994863 17.4814 1.02096 17.5723 1.11189L18.888 2.41545C18.9794 2.50686 19.0301 2.62201 19.0301 2.75084C19.0301 2.8792 18.9804 2.9967 18.8894 3.08764L12.3413 9.63443C12.1518 9.82389 12.1518 10.13 12.3413 10.3194L18.8894 16.8674C18.9798 16.9577 19.0296 17.0783 19.0291 17.2071C19.0291 17.3362 18.9789 17.4572 18.888 17.5481Z" fill="#7BC142"/>
</g>
<defs>
<clipPath id="clip0_464_1095">
<rect width="20" height="20" fill="white"/>
</clipPath>
</defs>
</svg>
