<svg width="29" height="29" viewBox="0 0 29 29" fill="none" xmlns="http://www.w3.org/2000/svg">
<path fill-rule="evenodd" clip-rule="evenodd" d="M10.3133 4.83313C10.3508 4.8332 10.3883 4.83326 10.4258 4.83326C10.4634 4.83326 10.5008 4.8332 10.5383 4.83313C10.9838 4.83239 11.4217 4.83167 11.8117 4.93619C12.8543 5.21552 13.6685 6.02978 13.9478 7.07225C14.0524 7.46234 14.0516 7.90026 14.0509 8.34579C14.0509 8.38324 14.0508 8.42073 14.0508 8.45826H23.7174C24.3848 8.45826 24.9258 8.99925 24.9258 9.6666C24.9258 10.3339 24.3848 10.8749 23.7174 10.8749H14.0508C14.0508 10.9125 14.0509 10.95 14.0509 10.9874C14.0516 11.4329 14.0524 11.8709 13.9478 12.261C13.6685 13.3034 12.8543 14.1177 11.8117 14.397C11.4217 14.5015 10.9838 14.5008 10.5383 14.5C10.5008 14.5 10.4634 14.4999 10.4258 14.4999C10.3883 14.4999 10.3508 14.5 10.3133 14.5C9.86777 14.5008 9.42986 14.5015 9.03976 14.397C7.9973 14.1177 7.18304 13.3034 6.90372 12.261C6.79919 11.8708 6.79991 11.4329 6.80066 10.9874C6.80072 10.95 6.80078 10.9124 6.80078 10.8749H4.38411C3.71678 10.8749 3.17578 10.3339 3.17578 9.6666C3.17578 8.99925 3.71678 8.45826 4.38411 8.45826H6.80078C6.80078 8.42073 6.80072 8.38324 6.80066 8.34579C6.79991 7.90026 6.79919 7.46234 6.90372 7.07225C7.18304 6.02978 7.9973 5.21552 9.03976 4.93619C9.42986 4.83167 9.86777 4.83239 10.3133 4.83313ZM9.81993 7.2564C9.69105 7.26227 9.66073 7.27173 9.66524 7.27051C9.45675 7.32638 9.2939 7.48923 9.23804 7.69773C9.23702 7.70197 9.22908 7.73909 9.22391 7.85241C9.21774 7.98778 9.21745 8.16638 9.21745 8.45826V10.8749C9.21745 11.1668 9.21774 11.3454 9.22391 11.4808C9.22979 11.6097 9.23925 11.64 9.23804 11.6355C9.2939 11.844 9.45675 12.0068 9.66524 12.0627C9.66073 12.0615 9.69105 12.0709 9.81993 12.0768C9.95529 12.083 10.1339 12.0833 10.4258 12.0833C10.7177 12.0833 10.8963 12.083 11.0316 12.0768C11.1604 12.0709 11.1908 12.0615 11.1863 12.0627C11.3949 12.0068 11.5576 11.844 11.6136 11.6355C11.6124 11.64 11.6218 11.6097 11.6276 11.4808C11.6339 11.3454 11.6341 11.1668 11.6341 10.8749V8.45826C11.6341 8.16638 11.6339 7.98778 11.6276 7.85241C11.6218 7.72354 11.6124 7.69321 11.6136 7.69773M9.81993 7.2564C9.95529 7.25022 10.1339 7.24993 10.4258 7.24993L9.81993 7.2564ZM10.4258 7.24993C10.7177 7.24993 10.8963 7.25022 11.0316 7.2564L10.4258 7.24993ZM11.0316 7.2564C11.145 7.26155 11.1821 7.26949 11.1863 7.27051L11.0316 7.2564ZM17.5633 14.4998C17.6007 14.4999 17.6382 14.4999 17.6758 14.4999C17.7134 14.4999 17.7508 14.4999 17.7883 14.4998C18.2338 14.4991 18.6717 14.4983 19.0617 14.6029C20.1043 14.8822 20.9185 15.6964 21.1978 16.739C21.3024 17.129 21.3016 17.5669 21.3009 18.0124C21.3009 18.0499 21.3008 18.0873 21.3008 18.1249H23.7174C24.3848 18.1249 24.9258 18.6659 24.9258 19.3333C24.9258 20.0006 24.3848 20.5416 23.7174 20.5416H21.3008C21.3008 20.5792 21.3009 20.6166 21.3009 20.6541C21.3016 21.0996 21.3024 21.5375 21.1978 21.9277C20.9185 22.9701 20.1043 23.7844 19.0617 24.0636C18.6717 24.1682 18.2338 24.1674 17.7883 24.1667C17.7508 24.1667 17.7134 24.1666 17.6758 24.1666C17.6382 24.1666 17.6007 24.1667 17.5633 24.1667C17.1178 24.1674 16.6799 24.1682 16.2898 24.0636C15.2473 23.7844 14.4331 22.9701 14.1537 21.9277C14.0492 21.5375 14.0499 21.0996 14.0507 20.6541C14.0507 20.6166 14.0508 20.5792 14.0508 20.5416H4.38411C3.71678 20.5416 3.17578 20.0006 3.17578 19.3333C3.17578 18.6659 3.71678 18.1249 4.38411 18.1249H14.0508C14.0508 18.0875 14.0507 18.0499 14.0507 18.0124C14.0499 17.5669 14.0492 17.129 14.1537 16.739C14.4331 15.6964 15.2473 14.8822 16.2898 14.6029C16.6799 14.4983 17.1178 14.4991 17.5633 14.4998ZM17.0699 16.9231C16.9411 16.9289 16.9108 16.9383 16.9153 16.9371C16.7067 16.9931 16.5439 17.156 16.488 17.3644C16.4892 17.3599 16.4798 17.3903 16.474 17.5191C16.4677 17.6544 16.4674 17.8331 16.4674 18.1249V20.5416C16.4674 20.8335 16.4677 21.0121 16.474 21.1474C16.4798 21.2764 16.4892 21.3067 16.488 21.3021C16.5439 21.5107 16.7067 21.6734 16.9153 21.7294C16.9108 21.7282 16.9411 21.7376 17.0699 21.7435C17.2053 21.7497 17.3838 21.7499 17.6758 21.7499C17.9677 21.7499 18.1463 21.7497 18.2816 21.7435C18.4104 21.7376 18.4408 21.7282 18.4363 21.7294C18.6449 21.6734 18.8076 21.5107 18.8636 21.3021C18.8624 21.3067 18.8718 21.2764 18.8776 21.1474C18.8839 21.0121 18.8841 20.8335 18.8841 20.5416V18.1249C18.8841 17.8331 18.8839 17.6544 18.8776 17.5191C18.8718 17.3903 18.8624 17.3599 18.8636 17.3644C18.8076 17.156 18.6449 16.9931 18.4363 16.9371C18.4408 16.9383 18.4104 16.9289 18.2816 16.9231C18.1463 16.9168 17.9677 16.9166 17.6758 16.9166C17.3838 16.9166 17.2053 16.9168 17.0699 16.9231Z" fill="white"/>
</svg>
