<svg width="28" height="28" viewBox="0 0 28 28" fill="none" xmlns="http://www.w3.org/2000/svg">
<path d="M15.3228 5.35613C14.3364 4.36893 13.0793 3.69647 11.7106 3.42381C10.342 3.15114 8.92317 3.29053 7.63373 3.82434C6.34429 4.35815 5.24214 5.2624 4.46669 6.42269C3.69125 7.58299 3.27734 8.9472 3.27734 10.3428C3.27734 11.7383 3.69125 13.1025 4.46669 14.2628C5.24214 15.4231 6.34429 16.3274 7.63373 16.8612C8.92317 17.395 10.342 17.5344 11.7106 17.2617C13.0793 16.9891 14.3364 16.3166 15.3228 15.3294C15.9843 14.6783 16.5096 13.9021 16.8681 13.0459C17.2267 12.1898 17.4114 11.2709 17.4114 10.3428C17.4114 9.41459 17.2267 8.4957 16.8681 7.63959C16.5096 6.78347 15.9843 6.00725 15.3228 5.35613ZM10.3386 16.4289C8.93105 16.4292 7.56697 15.9415 6.47877 15.0487C5.39057 14.156 4.64557 12.9136 4.37072 11.5332C4.09587 10.1528 4.30817 8.71973 4.97145 7.47829C5.63473 6.23685 6.70795 5.26379 8.00824 4.72494C9.30853 4.18608 10.7554 4.11475 12.1024 4.52311C13.4494 4.93147 14.6131 5.79426 15.3953 6.96445C16.1774 8.13464 16.5296 9.53983 16.3919 10.9406C16.2541 12.3414 15.6349 13.651 14.6398 14.6464C14.0764 15.2133 13.4061 15.6627 12.6678 15.9687C11.9295 16.2746 11.1378 16.4311 10.3386 16.4289Z" fill="#57585A"/>
<path d="M26.8316 23.0746L19.2802 15.5281C20.5399 13.3575 20.9671 10.8028 20.4821 8.34048C19.9971 5.87814 18.633 3.67629 16.6441 2.14561C14.6553 0.61493 12.1776 -0.140065 9.67318 0.0214433C7.16873 0.182951 4.80853 1.24993 3.0328 3.02338C1.25706 4.79683 0.187042 7.15565 0.022309 9.6599C-0.142424 12.1641 0.609379 14.6428 2.1375 16.6336C3.66561 18.6244 5.8657 19.9913 8.32741 20.4795C10.7891 20.9677 13.3444 20.5438 15.5166 19.2868L23.068 26.8382C23.3151 27.0854 23.6085 27.2814 23.9313 27.4151C24.2542 27.5489 24.6003 27.6177 24.9498 27.6177C25.2992 27.6177 25.6453 27.5489 25.9682 27.4151C26.2911 27.2814 26.5844 27.0854 26.8316 26.8382C27.0787 26.5911 27.2747 26.2977 27.4085 25.9749C27.5422 25.652 27.611 25.3059 27.611 24.9564C27.611 24.607 27.5422 24.2609 27.4085 23.938C27.2747 23.6151 27.0787 23.3218 26.8316 23.0746ZM3.71234 16.9667C2.62257 15.8775 1.81829 14.5363 1.37076 13.062C0.923234 11.5877 0.846281 10.0257 1.14672 8.51457C1.44716 7.00339 2.11572 5.58966 3.09315 4.39864C4.07059 3.20762 5.32671 2.27609 6.75023 1.68659C8.17374 1.09708 9.72069 0.867817 11.254 1.0191C12.7873 1.17038 14.2596 1.69754 15.5405 2.55387C16.8213 3.4102 17.8712 4.56925 18.597 5.92832C19.3229 7.28739 19.7022 8.80452 19.7016 10.3453C19.7069 12.1076 19.2095 13.835 18.2678 15.3246C18.2677 15.3284 18.2668 15.3321 18.2652 15.3354C18.2635 15.3388 18.2611 15.3417 18.2581 15.344C17.5178 16.5138 16.5288 17.506 15.3616 18.2503L15.318 18.2793C13.5199 19.4045 11.3937 19.8872 9.28603 19.6488C7.17839 19.4104 5.21369 18.465 3.71234 16.9667ZM26.1486 26.1553C25.8309 26.4718 25.4007 26.6495 24.9522 26.6495C24.5037 26.6495 24.0735 26.4718 23.7558 26.1553L16.3497 18.7492C16.8094 18.4177 17.2418 18.05 17.643 17.6496C18.0419 17.2489 18.4095 16.8182 18.7425 16.3612L26.1486 23.7625C26.4651 24.0802 26.6428 24.5104 26.6428 24.9589C26.6428 25.4073 26.4651 25.8375 26.1486 26.1553Z" fill="#57585A"/>
</svg>
