<svg width="12" height="16" viewBox="0 0 12 16" fill="none" xmlns="http://www.w3.org/2000/svg">
<path d="M6.18642 12.5941C6.18642 12.5941 10.0976 7.83891 10.0976 5.69481C10.0976 3.5507 8.34652 1.81257 6.18642 1.81257C4.02632 1.81257 2.27522 3.5507 2.27522 5.69481C2.27522 7.83891 6.18642 12.5941 6.18642 12.5941ZM7.3845 13.6213L6.18642 15.0779L4.98834 13.6213C4.95271 13.5779 4.89026 13.5009 4.80477 13.3936C4.66474 13.2179 4.50934 13.0191 4.34233 12.8008C3.86527 12.1772 3.38809 11.5186 2.94027 10.8514C2.61713 10.3699 2.32079 9.90075 2.05681 9.44804C1.19833 7.97579 0.710735 6.76253 0.710735 5.69481C0.710735 2.65833 3.17199 0.215301 6.18642 0.215301C9.20085 0.215301 11.6621 2.65833 11.6621 5.69481C11.6621 6.76253 11.1745 7.97579 10.316 9.44804C10.0521 9.90075 9.75571 10.3699 9.43257 10.8514C8.98475 11.5186 8.50758 12.1772 8.03052 12.8008C7.8635 13.0191 7.7081 13.2179 7.56808 13.3936C7.48259 13.5009 7.42014 13.5779 7.3845 13.6213ZM6.18642 3.34426C7.48248 3.34426 8.53315 4.39493 8.53315 5.69099C8.53315 6.98705 7.48248 8.03771 6.18642 8.03771C4.89036 8.03771 3.8397 6.98705 3.8397 5.69099C3.8397 4.39493 4.89036 3.34426 6.18642 3.34426ZM6.18642 4.90875C5.7544 4.90875 5.40418 5.25897 5.40418 5.69099C5.40418 6.12301 5.7544 6.47323 6.18642 6.47323C6.61844 6.47323 6.96866 6.12301 6.96866 5.69099C6.96866 5.25897 6.61844 4.90875 6.18642 4.90875Z" fill="#7BC142"/>
</svg>
