<svg width="15" height="20" viewBox="0 0 15 20" fill="none" xmlns="http://www.w3.org/2000/svg">
<path d="M7.50065 16.0401C7.50065 16.0401 12.2923 10.2145 12.2923 7.58768C12.2923 4.96092 10.147 2.8315 7.50065 2.8315C4.85429 2.8315 2.70898 4.96092 2.70898 7.58768C2.70898 10.2145 7.50065 16.0401 7.50065 16.0401ZM8.96843 17.2985L7.50065 19.083L6.03287 17.2985C5.98921 17.2454 5.9127 17.151 5.80797 17.0196C5.63642 16.8043 5.44604 16.5608 5.24143 16.2933C4.65697 15.5294 4.07238 14.7225 3.52375 13.9051C3.12787 13.3153 2.76481 12.7404 2.44141 12.1858C1.38968 10.3821 0.792317 8.89577 0.792317 7.58768C0.792317 3.86766 3.80764 0.874674 7.50065 0.874674C11.1937 0.874674 14.209 3.86766 14.209 7.58768C14.209 8.89577 13.6116 10.3821 12.5599 12.1858C12.2365 12.7404 11.8734 13.3153 11.4776 13.9051C10.9289 14.7225 10.3443 15.5294 9.75987 16.2933C9.55526 16.5608 9.36488 16.8043 9.19333 17.0196C9.0886 17.151 9.01209 17.2454 8.96843 17.2985ZM7.50065 4.70801C9.08847 4.70801 10.3757 5.99519 10.3757 7.58301C10.3757 9.17083 9.08847 10.458 7.50065 10.458C5.91283 10.458 4.62565 9.17083 4.62565 7.58301C4.62565 5.99519 5.91283 4.70801 7.50065 4.70801ZM7.50065 6.62467C6.97138 6.62467 6.54232 7.05373 6.54232 7.58301C6.54232 8.11228 6.97138 8.54134 7.50065 8.54134C8.02992 8.54134 8.45898 8.11228 8.45898 7.58301C8.45898 7.05373 8.02992 6.62467 7.50065 6.62467Z" fill="#57585A"/>
</svg>
