<svg width="10" height="11" viewBox="0 0 10 11" fill="none" xmlns="http://www.w3.org/2000/svg">
<path d="M5 0.334961C2.23857 0.334961 0 2.57353 0 5.33496C0 8.09639 2.23857 10.335 5 10.335C7.76143 10.335 10 8.09639 10 5.33496C10 2.57353 7.76143 0.334961 5 0.334961ZM5 9.36722C2.77153 9.36722 0.967742 7.56377 0.967742 5.33496C0.967742 3.10651 2.77119 1.3027 5 1.3027C7.22847 1.3027 9.03226 3.10615 9.03226 5.33496C9.03226 7.56343 7.22881 9.36722 5 9.36722ZM7.16433 7.32964C6.9705 7.52544 6.24639 8.16424 5.06625 8.16424C3.40436 8.16424 2.23391 6.92583 2.23391 5.31006C2.23391 3.71426 3.44913 2.49956 5.05169 2.49956C6.17127 2.49956 6.84077 3.03625 7.01929 3.20075C7.06124 3.23933 7.08818 3.29152 7.09532 3.34806C7.10247 3.40461 7.08936 3.46185 7.05833 3.50966L6.6923 4.07645C6.61486 4.19641 6.45105 4.22327 6.3395 4.13534C6.16621 3.99873 5.69808 3.68095 5.09538 3.68095C4.12153 3.68095 3.5245 4.39325 3.5245 5.29551C3.5245 6.13399 4.06659 6.98284 5.10266 6.98284C5.76107 6.98284 6.24869 6.59899 6.42778 6.43395C6.53403 6.33603 6.70189 6.35252 6.78706 6.46899L7.18756 7.01678C7.2217 7.0631 7.23813 7.12012 7.23387 7.17751C7.22961 7.23489 7.20494 7.28886 7.16433 7.32964Z" fill="#A0A0A0"/>
</svg>
