<svg width="25" height="25" viewBox="0 0 25 25" fill="none" xmlns="http://www.w3.org/2000/svg">
<path d="M13.7053 21.875H10.3272C10.0716 21.875 9.86594 21.6694 9.86594 21.4137V13.7038H7.67219C7.41781 13.7038 7.21094 13.4962 7.21094 13.2431V9.62062C7.21094 9.36687 7.41781 9.15937 7.67219 9.15937H9.86594V8.21C9.86594 5.45375 11.9422 3.125 14.4003 3.125H17.3278C17.5816 3.125 17.7884 3.33187 17.7884 3.58625V7.2075C17.7884 7.46062 17.5816 7.66875 17.3278 7.66875H14.4053C14.3516 7.68188 14.1672 7.83687 14.1672 8.1775V9.15812H17.3278C17.5816 9.15812 17.7884 9.36562 17.7884 9.61937V13.2419C17.7884 13.495 17.5816 13.7025 17.3278 13.7025H14.1672V21.4125C14.1666 21.6694 13.9603 21.875 13.7053 21.875ZM10.7884 20.9519H13.2441V13.2425C13.2441 12.9862 13.4503 12.7812 13.7053 12.7812H16.8659V10.0812H13.7053C13.4503 10.0812 13.2441 9.87625 13.2441 9.62062V8.17812C13.2441 7.32188 13.8416 6.74625 14.4003 6.74625H16.8659V4.04813H14.4003C12.4759 4.04813 10.7891 5.99312 10.7891 8.21V9.62062C10.7891 9.87625 10.5822 10.0812 10.3278 10.0812H8.13406V12.7812H10.3278C10.5828 12.7812 10.7891 12.9862 10.7891 13.2425L10.7884 20.9519Z" fill="white"/>
</svg>
