<svg width="18" height="18" viewBox="0 0 18 18" fill="none" xmlns="http://www.w3.org/2000/svg">
<path d="M14.1375 4.57505C14.1375 5.02505 13.7625 5.36255 13.35 5.36255C12.9 5.36255 12.5625 4.98755 12.5625 4.57505C12.5625 4.12505 12.9375 3.78755 13.35 3.78755C13.7625 3.75005 14.1375 4.12505 14.1375 4.57505ZM17.2125 4.91255V13.0876C17.2125 15.4126 15.3 17.325 12.975 17.325H4.8C2.475 17.325 0.5625 15.4126 0.5625 13.0876V4.91255C0.5625 2.58755 2.475 0.675049 4.8 0.675049H12.975C15.3375 0.675049 17.2125 2.58755 17.2125 4.91255ZM15.6375 4.91255C15.6375 3.45005 14.4375 2.25005 12.975 2.25005H4.8C3.3375 2.25005 2.1375 3.45005 2.1375 4.91255V13.0876C2.1375 14.5501 3.3375 15.7501 4.8 15.7501H12.975C14.475 15.7501 15.675 14.5501 15.675 13.0876L15.6375 4.91255ZM13.2375 9.00005C13.2375 6.60005 11.2875 4.65005 8.8875 4.65005C6.4875 4.65005 4.5375 6.60005 4.5375 9.00005C4.5375 11.4 6.4875 13.35 8.8875 13.35C11.2875 13.35 13.2375 11.4 13.2375 9.00005ZM11.6625 9.00005C11.6625 10.5375 10.425 11.775 8.8875 11.775C7.35 11.775 6.1125 10.5375 6.1125 9.00005C6.1125 7.46255 7.35 6.22505 8.8875 6.22505C10.425 6.22505 11.6625 7.46255 11.6625 9.00005Z" fill="white"/>
</svg>
