<svg width="19" height="19" viewBox="0 0 19 19" fill="none" xmlns="http://www.w3.org/2000/svg">
<g clip-path="url(#clip0_143_63)">
<path fill-rule="evenodd" clip-rule="evenodd" d="M11.5583 5.95057V6.69231C12.2739 6.24774 13.1001 5.98862 14.3553 5.98862C18.4408 5.98862 18.9639 9.04236 18.9639 11.7026V18.9584L14.24 19V12.0604C14.24 10.8955 13.8228 10.6744 13.0513 10.6744C12.3179 10.6744 11.8626 10.9062 11.8626 12.0604V19L7.07698 18.9584V5.95056L11.5583 5.95057ZM4.75475 5.94273V18.9945H0V5.94275H4.75475V5.94273ZM3.56606 7.13142H1.18869V17.8058H3.56606V7.13143V7.13142ZM10.3696 7.13926H8.26566V17.7804L10.674 17.8018V12.0604C10.674 9.81975 12.1634 9.48574 13.0513 9.48574C14.1354 9.48574 15.4287 9.93269 15.4287 12.0604V17.8018L17.7752 17.7804V11.7026C17.7752 8.40403 16.8492 7.1773 14.3553 7.1773C12.8564 7.1773 12.2074 7.62187 11.5714 8.15679L11.4062 8.29704H10.3696V7.13926ZM2.37738 0C3.6885 0 4.75475 1.06626 4.75475 2.37738C4.75475 3.6885 3.6885 4.75475 2.37738 4.75475C1.06626 4.75475 0 3.6885 0 2.37738C0 1.06626 1.06626 0 2.37738 0ZM2.37738 1.18869C1.72241 1.18869 1.18869 1.72241 1.18869 2.37738C1.18869 3.03234 1.72241 3.56606 2.37738 3.56606C3.03234 3.56606 3.56606 3.03234 3.56606 2.37738C3.56606 1.72241 3.03234 1.18869 2.37738 1.18869Z" fill="white"/>
</g>
<defs>
<clipPath id="clip0_143_63">
<rect width="19" height="19" fill="white"/>
</clipPath>
</defs>
</svg>
