<svg width="20" height="20" viewBox="0 0 20 20" fill="none" xmlns="http://www.w3.org/2000/svg">
<path d="M19.5188 7.43894C19.5188 7.40769 19.5163 7.37769 19.5126 7.34769L19.5132 7.35145C19.5038 7.31644 19.4932 7.28769 19.482 7.25957L19.4838 7.26457C19.4701 7.21895 19.4545 7.18082 19.4357 7.14394L19.4376 7.14832C19.4238 7.11769 19.4101 7.09207 19.3957 7.06769L19.3976 7.07082C19.3926 7.06332 19.392 7.05394 19.387 7.04644C19.3738 7.02832 19.3538 7.01895 19.3395 7.00207C19.3113 6.96895 19.282 6.93957 19.2501 6.91207L19.2488 6.91144C19.232 6.89707 19.2232 6.87769 19.2051 6.86457L10.4551 0.61457C10.4476 0.608945 10.4382 0.60832 10.4301 0.60332C10.387 0.577695 10.337 0.55457 10.2851 0.537695L10.2795 0.536445C10.2426 0.51832 10.1988 0.501445 10.1532 0.48832L10.1476 0.48707C10.1207 0.483945 10.0895 0.48207 10.0582 0.48207C10.0413 0.48207 10.0251 0.482695 10.0088 0.483945H10.0113C9.9932 0.482695 9.97258 0.481445 9.95195 0.481445C9.91633 0.481445 9.8807 0.483945 9.84633 0.48832L9.85008 0.487695C9.80508 0.50082 9.76695 0.515195 9.7307 0.532695L9.73508 0.53082C9.67195 0.55082 9.61758 0.57582 9.56695 0.606445L9.57008 0.60457C9.56258 0.60957 9.55445 0.60957 9.54695 0.615195L0.796953 6.8652C0.778828 6.87832 0.770078 6.89769 0.753828 6.91144C0.720078 6.93957 0.690078 6.96957 0.663203 7.00207L0.662578 7.00332C0.648203 7.02019 0.628828 7.02894 0.615703 7.04707C0.610078 7.05457 0.609453 7.06394 0.604453 7.07207C0.591953 7.09269 0.578828 7.11707 0.566953 7.1427L0.565078 7.14707C0.548203 7.1802 0.531953 7.21957 0.519453 7.2602L0.518203 7.26582C0.508203 7.28894 0.498203 7.31769 0.490078 7.34769L0.488828 7.35269C0.485703 7.37832 0.483203 7.40832 0.483203 7.43832C0.481328 7.4602 0.470703 7.47895 0.470703 7.50082V17.5008C0.471953 18.6221 1.3807 19.5308 2.50195 19.5321H17.502C18.6232 19.5314 19.5326 18.6221 19.5332 17.5008V7.50082C19.5332 7.47895 19.5226 7.46082 19.5207 7.43957L19.5188 7.43894ZM10.0001 12.7896L2.59445 7.50019L10.0001 2.21082L17.4057 7.50019L10.0001 12.7896ZM17.5001 17.9689H2.50008C2.24133 17.9689 2.03133 17.7589 2.03133 17.5002V9.01832L9.5457 14.3858C9.56508 14.3971 9.58883 14.4089 9.6132 14.4196L9.6182 14.4214C9.63758 14.4327 9.6607 14.4446 9.68508 14.4552L9.69008 14.4571C9.7807 14.5008 9.88695 14.5277 9.99883 14.5308H10.0001H10.0013C10.1145 14.5277 10.2207 14.5008 10.3157 14.4552L10.3107 14.4571C10.3395 14.4446 10.3632 14.4327 10.3857 14.4196L10.382 14.4214C10.4113 14.4089 10.4351 14.3964 10.4576 14.3833L10.4538 14.3852L17.9682 9.0177V17.4996C17.9682 17.7583 17.7582 17.9683 17.4995 17.9683L17.5001 17.9689Z" fill="#57585A"/>
</svg>
