<svg width="16" height="17" viewBox="0 0 16 17" fill="none" xmlns="http://www.w3.org/2000/svg">
<path d="M15.5481 6.15978C15.5481 6.13427 15.546 6.10979 15.543 6.0853L15.5435 6.08836C15.5358 6.05979 15.5271 6.03632 15.518 6.01337L15.5195 6.01745C15.5083 5.98021 15.4955 5.94909 15.4802 5.91899L15.4817 5.92256C15.4705 5.89756 15.4593 5.87664 15.4476 5.85675L15.4491 5.8593C15.445 5.85318 15.4445 5.84552 15.4404 5.8394C15.4297 5.82461 15.4134 5.81696 15.4016 5.80318C15.3787 5.77614 15.3547 5.75217 15.3287 5.72972L15.3277 5.72921C15.3139 5.71748 15.3068 5.70166 15.292 5.69095L8.14976 0.589376C8.14364 0.584785 8.13599 0.584275 8.12935 0.580194C8.09415 0.559277 8.05334 0.540401 8.011 0.526627L8.00641 0.525607C7.97631 0.510812 7.9406 0.497038 7.90336 0.486325L7.89876 0.485304C7.87683 0.482754 7.85132 0.481223 7.82581 0.481223C7.81204 0.481223 7.79877 0.481733 7.78551 0.482754H7.78755C7.77275 0.481733 7.75592 0.480713 7.73908 0.480713C7.71001 0.480713 7.68093 0.482754 7.65287 0.486325L7.65593 0.485814C7.6192 0.496528 7.58808 0.508261 7.55849 0.522546L7.56206 0.521015C7.51053 0.53734 7.46615 0.557747 7.42483 0.582744L7.42738 0.581214C7.42126 0.585295 7.41462 0.585295 7.4085 0.589887L0.266302 5.69146C0.251507 5.70217 0.244365 5.71799 0.231101 5.72921C0.203553 5.75217 0.179065 5.77665 0.157128 5.80318L0.156618 5.8042C0.144885 5.81798 0.12907 5.82512 0.118356 5.83991C0.113765 5.84604 0.113255 5.85369 0.109174 5.86032C0.0989705 5.87715 0.0882572 5.89705 0.0785642 5.91797L0.0770337 5.92154C0.0632595 5.94858 0.0499954 5.98072 0.0397922 6.01388L0.0387719 6.01847C0.0306094 6.03734 0.0224469 6.06081 0.0158149 6.0853L0.0147945 6.08938C0.0122438 6.1103 0.0102031 6.13478 0.0102031 6.15927C0.00867266 6.17713 0 6.19243 0 6.21029V14.3728C0.00102031 15.288 0.742789 16.0298 1.65801 16.0308H13.9018C14.817 16.0303 15.5593 15.288 15.5598 14.3728V6.21029C15.5598 6.19243 15.5511 6.17764 15.5496 6.16029L15.5481 6.15978ZM7.77837 10.5272L1.73351 6.20978L7.77837 1.89232L13.8232 6.20978L7.77837 10.5272ZM13.9003 14.7549H1.65648C1.44528 14.7549 1.27386 14.5835 1.27386 14.3723V7.44895L7.40748 11.8302C7.4233 11.8394 7.44268 11.8491 7.46258 11.8577L7.46666 11.8593C7.48247 11.8684 7.50135 11.8781 7.52125 11.8868L7.52533 11.8883C7.5993 11.924 7.68603 11.946 7.77735 11.9485H7.77837H7.77939C7.87173 11.946 7.95845 11.924 8.036 11.8868L8.03191 11.8883C8.05538 11.8781 8.07477 11.8684 8.09313 11.8577L8.09007 11.8593C8.11405 11.8491 8.13344 11.8389 8.1518 11.8281L8.14874 11.8297L14.2824 7.44844V14.3718C14.2824 14.583 14.1109 14.7544 13.8997 14.7544L13.9003 14.7549Z" fill="#7BC142"/>
</svg>
