<svg width="16" height="16" viewBox="0 0 16 16" fill="none" xmlns="http://www.w3.org/2000/svg">
<path fill-rule="evenodd" clip-rule="evenodd" d="M5.28859 10.711C7.12366 12.5461 8.82812 13.5692 10.0964 14.1374C11.2036 14.6334 12.5106 14.2444 13.5295 13.2255L13.7628 12.9922L10.9633 11.2107C10.4308 11.9871 9.42488 12.4416 8.42049 12.0176C7.6593 11.6964 6.6527 11.1477 5.75234 10.2472C4.85195 9.34685 4.30321 8.34025 3.98192 7.57914C3.55796 6.57473 4.01255 5.56871 4.78889 5.03622L3.00741 2.23676L2.77409 2.47008C1.75514 3.48902 1.36623 4.79596 1.86221 5.90315C2.43035 7.17151 3.45348 8.87589 5.28859 10.711ZM9.44918 15.5823C8.01254 14.9389 6.14627 13.8078 4.169 11.8305C2.19175 9.85336 1.06075 7.987 0.417224 6.55043C-0.43438 4.64933 0.342602 2.66239 1.6545 1.35049L1.88782 1.11717C2.60408 0.400914 3.79939 0.532124 4.3432 1.3867L6.58422 4.90825C6.70455 5.09735 6.73907 5.3286 6.67922 5.5446C6.61937 5.76061 6.47085 5.94113 6.27032 6.04137L5.76868 6.2922C5.42681 6.46313 5.35666 6.76448 5.44063 6.96338C5.70891 7.59893 6.15743 8.41316 6.87191 9.12764C7.58647 9.8422 8.40062 10.2907 9.03617 10.559C9.23512 10.6429 9.53642 10.5727 9.70734 10.2309L9.95822 9.72923C10.0584 9.52878 10.2389 9.38018 10.455 9.32033C10.671 9.26048 10.9022 9.29508 11.0913 9.41541L14.6129 11.6564C15.4674 12.2002 15.5987 13.3955 14.8824 14.1117L14.6491 14.345C13.3372 15.657 11.3502 16.4339 9.44918 15.5823Z" fill="#57585A"/>
</svg>
