<svg width="13" height="13" viewBox="0 0 13 13" fill="none" xmlns="http://www.w3.org/2000/svg">
<path fill-rule="evenodd" clip-rule="evenodd" d="M4.38165 8.44566C5.87954 9.94361 7.2708 10.7787 8.30608 11.2425C9.20979 11.6473 10.2766 11.3298 11.1083 10.4981L11.2988 10.3077L9.01367 8.85354C8.57903 9.48726 7.75791 9.85831 6.93807 9.51221C6.31675 9.24998 5.49511 8.8021 4.76019 8.06711C4.02525 7.33219 3.57734 6.51055 3.31509 5.88929C2.96902 5.06944 3.34009 4.24828 3.97377 3.81363L2.51964 1.52857L2.32919 1.71901C1.49747 2.55073 1.18003 3.61752 1.58486 4.52126C2.04862 5.55656 2.88374 6.94777 4.38165 8.44566ZM7.77774 12.4219C6.60509 11.8967 5.08174 10.9735 3.46779 9.35951C1.85386 7.74563 0.930672 6.22221 0.405396 5.04961C-0.289727 3.49783 0.344485 1.87599 1.41533 0.805147L1.60578 0.614699C2.19042 0.0300568 3.16609 0.137158 3.60998 0.83471L5.43922 3.70918C5.53744 3.86353 5.56561 4.05228 5.51676 4.2286C5.46791 4.40492 5.34668 4.55227 5.183 4.63409L4.77353 4.83883C4.49448 4.97835 4.43722 5.22433 4.50576 5.38668C4.72474 5.90545 5.09085 6.57006 5.67404 7.15326C6.2573 7.73652 6.92185 8.10259 7.44062 8.32159C7.60301 8.39008 7.84896 8.33283 7.98847 8.0538L8.19325 7.64431C8.27506 7.48069 8.42239 7.3594 8.59874 7.31054C8.77502 7.26169 8.96378 7.28993 9.11815 7.38815L11.9926 9.21735C12.6902 9.66122 12.7973 10.6369 12.2126 11.2215L12.0222 11.412C10.9514 12.4829 9.32946 13.117 7.77774 12.4219Z" fill="#7BC142"/>
</svg>
