<svg width="21" height="17" viewBox="0 0 21 17" fill="none" xmlns="http://www.w3.org/2000/svg">
<path d="M20.1607 14.13C19.7768 14.9929 18.7865 15.7745 17.8566 15.9471C17.7614 15.9648 15.4888 16.375 10.5059 16.375H10.4928C5.51053 16.375 3.23597 15.9648 3.14147 15.9478C2.21156 15.7745 1.22062 14.9929 0.836062 14.1293C0.801937 14.0525 0 12.2058 0 8.5C0 4.79416 0.801937 2.94681 0.836062 2.87003C1.22062 2.00641 2.21156 1.22547 3.14147 1.05288C3.23597 1.03516 5.51053 0.625 10.4928 0.625C15.4888 0.625 17.7614 1.03516 17.8559 1.05222C18.7865 1.22547 19.7768 2.00641 20.1613 2.86937C20.1954 2.94681 20.9993 4.79416 20.9993 8.5C20.9993 12.2058 20.1954 14.0525 20.1607 14.13ZM18.9604 3.40094C18.7556 2.94091 18.1138 2.43559 17.6164 2.34306C17.5954 2.33913 15.3464 1.9375 10.5059 1.9375C5.65294 1.9375 3.402 2.33913 3.38034 2.34306C2.88291 2.43559 2.24175 2.94091 2.03634 3.40356C2.02978 3.41734 1.31316 5.10653 1.31316 8.5C1.31316 11.8928 2.02978 13.582 2.03766 13.5991C2.24175 14.0591 2.88291 14.5644 3.381 14.6569C3.402 14.6609 5.65294 15.0625 10.4928 15.0625H10.5059C15.3464 15.0625 17.5954 14.6609 17.617 14.6569C18.1145 14.5644 18.7556 14.0591 18.961 13.5964C18.9676 13.582 19.6855 11.8928 19.6855 8.5C19.6855 5.10719 18.9676 3.41734 18.9604 3.40094ZM8.88562 12.3364C8.77931 12.404 8.65725 12.4375 8.53584 12.4375C8.42691 12.4375 8.31797 12.4106 8.21887 12.3555C8.00953 12.24 7.87959 12.0201 7.87959 11.7812V5.21875C7.87959 4.98053 8.00822 4.76134 8.21625 4.64584C8.42428 4.52969 8.67956 4.53494 8.88103 4.66028L14.1435 7.91266C14.3358 8.03144 14.4539 8.24144 14.4546 8.46784C14.4552 8.69425 14.3397 8.90556 14.1481 9.02566L8.88562 12.3364ZM9.19275 6.39606V10.5928L12.558 8.47572L9.19275 6.39606Z" fill="white"/>
</svg>
