<svg width="151" height="50" viewBox="0 0 151 50" fill="none" xmlns="http://www.w3.org/2000/svg">
<path d="M150.452 42.5684C150.452 46.1599 147.452 49.1176 143.809 49.1176H7.095C3.45214 49.1176 0.452148 46.1599 0.452148 42.5684V7.28668C0.452148 3.69513 3.45214 0.737305 7.095 0.737305H143.809C147.452 0.737305 150.452 3.69513 150.452 7.28668V42.5684Z" fill="black"/>
<path d="M39.6683 32.6387C38.8112 34.3288 38.5969 35.1738 37.5255 36.6527C36.0255 38.7654 34.0969 41.5119 31.5255 41.5119C29.3826 41.5119 28.7397 40.033 25.7397 40.033C22.7397 40.033 22.0969 41.5119 19.954 41.5119C17.3826 41.5119 15.6683 39.188 14.1683 36.864C10.0969 30.9485 9.8826 23.9767 12.2397 20.1738C13.954 17.4274 16.7397 15.9485 19.3112 15.9485C21.8826 15.9485 23.5969 17.4274 25.7397 17.4274C27.8826 17.4274 29.1683 15.9485 32.1683 15.9485C34.5255 15.9485 36.8826 17.2162 38.5969 19.3288C33.0255 22.4979 33.8826 30.526 39.6683 32.6387Z" fill="white"/>
<path d="M30.0277 13.6246C31.0991 12.1458 31.9563 10.2443 31.742 8.13159C30.0277 8.34286 27.8849 9.3993 26.5991 10.8782C25.5277 12.1458 24.4563 14.2585 24.8848 16.1599C26.5991 16.3711 28.742 15.1035 30.0277 13.6246Z" fill="white"/>
<path d="M53.1681 22.9203C53.3824 23.5541 53.5967 24.3992 53.811 25.2443L55.311 29.6809H51.0253L52.5253 25.2443C52.7395 24.3992 52.9538 23.5541 53.1681 22.9203ZM51.8824 20.1738L46.0967 36.6527H48.6681L50.3824 31.5823H55.9538L57.6681 36.6527H60.4538L54.6681 20.1738H51.8824Z" fill="white"/>
<path d="M67.0909 26.5116C69.448 26.5116 70.3052 28.6243 70.3052 30.5257C70.3052 33.0609 69.0195 34.7511 66.8766 34.7511C65.3766 34.7511 64.3052 33.6947 63.8766 32.4271C63.8766 32.2158 63.8766 32.0046 63.8766 31.5821V29.4694C63.8766 29.2581 63.8766 29.0469 63.8766 28.8356V28.6243C64.5195 27.5679 65.5909 26.5116 67.0909 26.5116ZM67.7337 24.3989C66.0195 24.3989 64.5195 25.0328 63.6623 26.3004V24.6103H61.3052V24.8215C61.3052 25.8778 61.3052 26.9341 61.3052 28.6243V41.3003H63.8766V35.3849C64.7338 36.2299 66.0195 36.8638 67.3052 36.8638C68.8052 36.8638 70.0909 36.23 71.1623 35.1737C72.2338 34.1173 72.8766 32.4271 72.8766 30.3144C72.8766 28.6243 72.448 26.9342 71.3766 25.8778C70.5195 25.0328 69.2337 24.3989 67.7337 24.3989Z" fill="white"/>
<path d="M80.1636 26.5116C82.5208 26.5116 83.3779 28.6243 83.3779 30.5257C83.3779 33.0609 82.0922 34.7511 79.9494 34.7511C78.4494 34.7511 77.3779 33.6947 76.9494 32.4271C76.9494 32.2158 76.9494 32.0046 76.9494 31.5821V29.4694C76.9494 29.2581 76.9494 29.0469 76.9494 28.8356V28.6243C77.5922 27.5679 78.6636 26.5116 80.1636 26.5116ZM80.8065 24.3989C79.0922 24.3989 77.5922 25.0328 76.7351 26.3004V24.6103H74.3779V24.8215C74.3779 25.8778 74.3779 26.9341 74.3779 28.6243V41.3003H76.9494V35.3849C77.8065 36.2299 79.0922 36.8638 80.3779 36.8638C81.8779 36.8638 83.1636 36.23 84.2351 35.1737C85.3065 34.1173 85.9493 32.4271 85.9493 30.3144C85.9493 28.6243 85.5208 26.9342 84.4494 25.8778C83.5922 25.0328 82.3065 24.3989 80.8065 24.3989Z" fill="white"/>
<path d="M97.0898 27.1458C94.7326 26.3008 93.8755 25.4558 93.8755 24.1882C93.8755 23.1318 94.7326 21.8641 96.6612 21.8641C98.3755 21.8641 99.4469 22.498 99.6612 22.498L99.8755 22.7093L100.518 20.5966H100.304C99.8755 20.3853 98.5898 19.7515 96.6612 19.7515C93.4469 19.7515 91.0898 21.6529 91.0898 24.3994C91.0898 26.5121 92.5898 27.9909 95.5898 29.2585C97.7326 30.1036 98.5898 30.9487 98.5898 32.2163C98.5898 33.6952 97.3041 34.7515 95.3755 34.7515C94.0898 34.7515 92.8041 34.329 91.7326 33.6952L91.5184 33.4839L90.8755 35.5965H91.0898C91.9469 36.2303 93.8755 36.6529 95.3755 36.6529C99.6612 36.6529 101.375 34.1177 101.375 31.7937C101.375 29.6811 100.304 28.2022 97.0898 27.1458Z" fill="white"/>
<path d="M106.099 21.864L103.527 22.7091V24.8218H101.813V26.7233H103.527V32.85C103.527 34.3288 103.742 35.3852 104.384 36.019C105.027 36.6528 105.884 36.8641 106.742 36.8641C107.599 36.8641 108.456 36.6527 108.67 36.6527H108.884L108.67 34.7514H108.456C108.242 34.7514 107.813 34.9626 107.17 34.9626C106.099 34.9626 105.67 34.3288 105.67 32.85V26.7233H108.67V24.8218H105.67V21.864H106.099Z" fill="white"/>
<path d="M115.313 26.3004C117.67 26.3004 118.742 28.4131 118.742 30.5257C118.742 33.0609 117.242 34.7511 115.313 34.7511C113.384 34.7511 111.884 33.0609 111.884 30.5257C111.884 28.6243 112.956 26.3004 115.313 26.3004ZM115.313 24.3989C111.67 24.3989 109.313 26.9341 109.313 30.737C109.313 34.3285 111.67 36.8638 115.099 36.8638C118.099 36.8638 121.099 34.9624 121.099 30.5257C121.099 28.8356 120.456 27.1454 119.384 26.089C118.527 25.0327 117.027 24.3989 115.313 24.3989Z" fill="white"/>
<path d="M129.023 24.6103C128.594 24.6103 128.38 24.3989 128.166 24.3989C126.88 24.3989 125.594 25.244 124.951 26.5116V24.8215H122.594V25.0327C122.594 26.089 122.594 27.1454 122.594 28.6243V36.8638H125.166V30.5257C125.166 30.1032 125.166 29.8919 125.166 29.4694C125.38 27.9905 126.451 26.9342 127.737 26.9342C127.951 26.9342 128.166 26.9342 128.38 26.9342H128.594V24.6103H129.023Z" fill="white"/>
<path d="M134.591 26.3004C135.449 26.3004 136.091 26.5116 136.52 26.9342C137.163 27.568 137.377 28.8355 137.377 29.2581H131.591C131.806 27.7792 132.663 26.3004 134.591 26.3004ZM134.806 24.3989C131.377 24.3989 129.02 27.1455 129.02 30.9483C129.02 34.5398 131.377 37.075 135.02 37.075C136.949 37.075 138.234 36.6525 139.091 36.23H139.306L138.877 34.3285H138.663C138.02 34.5398 136.949 34.9623 135.449 34.9623C134.377 34.9623 131.806 34.5397 131.591 31.3707H139.734V31.1595C139.734 30.9482 139.734 30.5257 139.734 30.1032C139.734 27.3567 138.449 24.3989 134.806 24.3989Z" fill="white"/>
<path d="M47.1681 15.7373C47.3824 15.7373 47.811 15.7373 48.2395 15.7373C50.5967 15.7373 52.0967 14.4697 52.0967 12.357C52.0967 10.4556 51.0252 9.39932 48.4538 9.39932C47.811 9.39932 47.3824 9.39932 47.1681 9.39932V15.7373ZM46.0967 8.76554C46.7395 8.76554 47.5967 8.5542 48.4538 8.5542C50.1681 8.5542 51.2395 8.97673 52.0967 9.61054C52.9538 10.2443 53.3824 11.0894 53.3824 12.357C53.3824 13.6246 52.9538 14.681 52.0967 15.3148C51.2395 15.9486 49.9538 16.3711 48.2395 16.3711C47.3824 16.3711 46.7395 16.3711 46.0967 16.3711V8.76554Z" fill="white"/>
<path d="M57.4497 15.9487C58.5211 15.9487 59.3783 15.1036 59.3783 13.836C59.3783 12.7797 58.9497 11.7233 57.4497 11.7233C56.164 11.7233 55.5211 12.7797 55.5211 13.836C55.5211 14.8923 56.3783 15.9487 57.4497 15.9487ZM57.4497 16.5825C55.7354 16.5825 54.4497 15.5262 54.4497 13.6248C54.4497 11.7234 55.9497 10.667 57.664 10.667C59.3783 10.667 60.664 11.9346 60.664 13.6248C60.664 15.7375 58.9497 16.5825 57.4497 16.5825Z" fill="white"/>
<path d="M62.3755 10.8777L63.2326 13.6241C63.4469 14.2579 63.6612 14.8917 63.6612 15.5255C63.8755 14.8917 64.0898 14.2579 64.3041 13.8354L65.3755 10.8777H66.4469L67.5183 13.6241C67.7326 14.2579 67.9469 14.8917 68.1612 15.5255C68.1612 14.8917 68.3755 14.4692 68.5898 13.6241L69.4469 10.8777H70.5183L68.3755 16.5818H67.3041L66.2326 13.8354C66.0183 13.2016 65.8041 12.5678 65.5898 11.934C65.3755 12.5678 65.1612 13.2016 64.9469 13.8354L63.8755 16.5818H62.8041L60.8755 10.8777H62.3755Z" fill="white"/>
<path d="M71.5913 12.3571C71.5913 11.7233 71.5913 11.3009 71.5913 10.8783H72.6627V11.7233C72.877 11.3008 73.7342 10.667 74.8056 10.667C75.6627 10.667 76.9485 11.0896 76.9485 12.991V16.3712H75.877V13.2022C75.877 12.3572 75.4485 11.5121 74.377 11.5121C73.7342 11.5121 73.0913 11.9346 72.877 12.5685C72.877 12.7797 72.877 12.7797 72.877 12.991V16.3712H71.8056V12.3571H71.5913Z" fill="white"/>
<path d="M79.9479 8.34277H78.8765V16.5821H79.9479V8.34277Z" fill="white"/>
<path d="M84.6689 15.9487C85.7403 15.9487 86.5975 15.1036 86.5975 13.836C86.5975 12.7797 86.1689 11.7233 84.6689 11.7233C83.3832 11.7233 82.7403 12.7797 82.7403 13.836C82.7403 14.8923 83.3832 15.9487 84.6689 15.9487ZM84.4546 16.5825C82.7403 16.5825 81.4546 15.5262 81.4546 13.6248C81.4546 11.7234 82.9546 10.667 84.6689 10.667C86.3832 10.667 87.6689 11.9346 87.6689 13.6248C87.6689 15.7375 85.9546 16.5825 84.4546 16.5825Z" fill="white"/>
<path d="M92.3826 13.6248C91.0969 13.6248 89.5969 13.836 89.5969 14.8923C89.5969 15.5261 90.0255 15.9487 90.6683 15.9487C91.5255 15.9487 91.954 15.5262 92.1683 15.1037C92.1683 15.1037 92.1683 14.8924 92.1683 14.6811V13.6248H92.3826ZM93.6683 15.1037C93.6683 15.5262 93.6683 16.16 93.6683 16.3712H92.5969V15.7375C92.1683 16.16 91.5255 16.5825 90.6683 16.5825C89.3826 16.5825 88.7397 15.7374 88.7397 14.8923C88.7397 13.6247 90.0255 12.7797 92.5969 12.7797V12.5685C92.5969 12.1459 92.3826 11.3008 91.0969 11.3008C90.454 11.3008 89.8112 11.5121 89.3826 11.7233L89.1683 11.0896C89.5969 10.8783 90.454 10.667 91.3112 10.667C93.2397 10.667 93.6683 11.9347 93.6683 12.991V15.1037Z" fill="white"/>
<path d="M99.6586 13.2021C99.6586 12.9908 99.6586 12.9908 99.6586 12.7795C99.4443 12.1457 98.8015 11.512 97.9443 11.512C96.6586 11.512 96.0158 12.357 96.0158 13.6246C96.0158 14.681 96.6586 15.7373 97.9443 15.7373C98.8015 15.7373 99.4443 15.3147 99.6586 14.4696C99.6586 14.2584 99.6586 14.2585 99.6586 14.0472V13.2021ZM100.944 8.34294V15.1035C100.944 15.5261 100.944 16.1598 100.944 16.5823H99.8729V15.526C99.4443 16.1598 98.8015 16.5823 97.73 16.5823C96.23 16.5823 94.9443 15.526 94.9443 13.6246C94.9443 11.7232 96.23 10.6668 97.73 10.6668C98.8015 10.6668 99.4443 11.0894 99.6586 11.512V8.13159H100.944V8.34294Z" fill="white"/>
<path d="M108.237 15.9487C109.309 15.9487 110.166 15.1036 110.166 13.836C110.166 12.7797 109.737 11.7233 108.237 11.7233C106.952 11.7233 106.309 12.7797 106.309 13.836C106.309 14.8923 107.166 15.9487 108.237 15.9487ZM108.237 16.5825C106.523 16.5825 105.237 15.5262 105.237 13.6248C105.237 11.7234 106.737 10.667 108.452 10.667C110.166 10.667 111.452 11.9346 111.452 13.6248C111.237 15.7375 109.737 16.5825 108.237 16.5825Z" fill="white"/>
<path d="M112.737 12.3571C112.737 11.7233 112.737 11.3009 112.737 10.8783H113.809V11.7233C114.023 11.3008 114.88 10.667 115.952 10.667C116.809 10.667 118.094 11.0896 118.094 12.991V16.3712H117.023V13.2022C117.023 12.3572 116.594 11.5121 115.523 11.5121C114.88 11.5121 114.237 11.9346 114.023 12.5685C114.023 12.7797 114.023 12.7797 114.023 12.991V16.3712H112.952V12.3571H112.737Z" fill="white"/>
<path d="M124.307 9.6106V10.8783H126.021V11.7233H124.307V14.6811C124.307 15.3149 124.521 15.7374 125.164 15.7374C125.378 15.7374 125.593 15.7374 125.807 15.7374V16.5824C125.593 16.5824 125.164 16.7937 124.735 16.7937C124.093 16.7937 123.664 16.5825 123.45 16.3712C123.235 16.1599 123.021 15.5261 123.021 14.8923V11.7233H121.95V10.8783H123.021V9.82194L124.307 9.6106Z" fill="white"/>
<path d="M127.086 8.34277H128.158V11.9343C128.372 11.7231 128.586 11.3004 129.015 11.3004C129.444 11.0892 129.658 11.0892 130.086 11.0892C130.944 11.0892 132.229 11.5117 132.229 13.4131V16.7935H131.158V13.2019C131.158 12.3568 130.729 11.5118 129.658 11.5118C129.015 11.5118 128.372 11.9343 128.158 12.5681C128.158 12.7794 128.158 12.7794 128.158 12.9907V16.3709H127.086V8.34277Z" fill="white"/>
<path d="M138.448 13.2016C138.448 12.5678 138.233 11.5115 136.948 11.5115C135.662 11.5115 135.233 12.5678 135.233 13.2016H138.448ZM135.019 13.8354C135.019 15.3142 136.091 15.7368 137.162 15.7368C138.019 15.7368 138.448 15.5255 138.876 15.5255L139.091 16.1594C138.662 16.3706 138.019 16.5818 136.948 16.5818C135.019 16.5818 133.733 15.5255 133.733 13.8354C133.733 12.1452 134.805 10.8777 136.733 10.8777C138.876 10.8777 139.305 12.5678 139.305 13.6241C139.305 13.8354 139.305 14.0467 139.305 14.0467L135.019 13.8354Z" fill="white"/>
</svg>
