<svg width="151" height="50" viewBox="0 0 151 50" fill="none" xmlns="http://www.w3.org/2000/svg">
<path d="M150.452 42.5683C150.452 46.1598 147.452 49.1176 143.809 49.1176H7.095C3.45214 49.1176 0.452148 46.1598 0.452148 42.5683V7.28655C0.452148 3.695 3.45214 0.737305 7.095 0.737305H143.809C147.452 0.737305 150.452 3.695 150.452 7.28655V42.5683Z" fill="black"/>
<path d="M13.0952 11.7233V26.3007V41.3008C13.0952 41.7233 13.3095 41.9345 13.5238 41.9345L29.5952 26.3007L13.7381 10.8782C13.3095 10.8782 13.0952 11.0895 13.0952 11.7233Z" fill="black"/>
<path d="M29.3809 10.8782H13.0952V41.9345H29.3809V10.8782Z" fill="url(#paint0_linear_5001_295)"/>
<path d="M13.7397 10.8782L29.5969 26.3007L34.0969 22.0753L27.454 18.2725L15.0255 11.0895C14.8112 10.8783 14.5969 10.8782 14.3826 10.8782C13.7398 10.6669 13.7397 10.6669 13.7397 10.8782Z" fill="black"/>
<path d="M33.8826 10.6672H13.7397V26.0897H33.8826V10.6672Z" fill="url(#paint1_linear_5001_295)"/>
<path d="M13.5186 41.9345C13.7328 41.9345 13.9471 41.9345 14.1614 41.9345L18.2328 39.6106C21.6614 37.7092 25.9471 35.1739 27.0185 34.5401H27.2328L33.8757 30.7373L29.3757 26.512L13.5186 41.9345Z" fill="black"/>
<path d="M33.8757 26.3005H13.5186V41.9344H33.8757V26.3005Z" fill="url(#paint2_linear_5001_295)"/>
<path d="M29.5928 26.301L34.0928 30.5264L40.5213 26.9349C41.1642 26.5124 41.1642 26.0898 40.5213 25.6673C39.8785 25.2447 34.0928 22.0757 34.0928 22.0757L29.5928 26.301Z" fill="black"/>
<path d="M41.1642 21.864H29.5928V30.5259H41.1642V21.864Z" fill="url(#paint3_linear_5001_295)"/>
<path d="M116.164 23.9769C115.092 23.9769 114.449 24.1883 114.021 24.8221C113.592 25.2446 113.378 26.0896 113.378 27.3572V27.5685C113.378 28.8361 113.592 29.8924 114.021 30.315C114.449 30.9488 115.092 31.1601 116.164 31.1601C117.021 31.1601 117.664 30.7376 118.092 30.1038C118.521 29.47 118.735 28.6248 118.735 27.3572C118.735 26.3008 118.521 25.2445 118.092 24.6107C117.664 24.3995 117.021 23.9769 116.164 23.9769ZM116.378 32.4277C115.735 32.4277 115.306 32.2164 114.664 32.0051C114.235 31.7938 113.806 31.3713 113.378 30.9488C113.378 31.5826 113.378 32.0051 113.378 32.4277V36.2304H111.878V22.7094H112.949L113.164 23.9769C113.592 23.5544 114.021 23.1319 114.449 22.9206C114.878 22.7093 115.521 22.498 116.164 22.498C117.449 22.498 118.306 22.9207 119.164 23.7657C119.806 24.6108 120.235 25.8783 120.235 27.3572C120.235 28.836 119.806 30.1037 119.164 30.9488C118.521 32.0051 117.449 32.4277 116.378 32.4277Z" fill="white"/>
<path d="M123.671 19.1174H122.171V32.4273H123.671V19.1174Z" fill="white"/>
<path d="M128.595 31.3711C129.452 31.3711 130.095 31.1599 130.738 30.7373C131.166 30.3148 131.595 29.681 131.595 28.6247V27.7795H130.095C129.023 27.7795 128.166 27.9908 127.737 28.2021C127.309 28.4134 126.88 29.0472 126.88 29.681C126.88 30.1035 127.095 30.526 127.309 30.9486C127.523 31.1598 127.952 31.3711 128.595 31.3711ZM131.809 32.4275L131.595 31.1599C131.166 31.7937 130.738 32.2162 130.095 32.4275C129.666 32.6387 129.023 32.6387 128.38 32.6387C127.523 32.6387 126.666 32.4274 126.238 32.0049C125.809 31.5824 125.38 30.9486 125.38 29.8922C125.38 27.9908 126.88 26.9345 129.88 26.9345H131.38V26.3006C131.38 25.6668 131.166 25.0331 130.952 24.6105C130.737 24.188 130.095 24.188 129.452 24.188C128.595 24.188 127.738 24.3993 126.88 24.8219L126.452 23.7655C126.88 23.5543 127.523 23.3429 127.952 23.1316C128.595 22.9204 129.023 22.9204 129.666 22.9204C130.738 22.9204 131.595 23.1317 132.238 23.5542C132.88 23.9767 133.095 24.8219 133.095 25.8782V32.2162H131.809V32.4275Z" fill="white"/>
<path d="M133.733 23.1316H135.233L137.376 28.4133C137.805 29.6809 138.019 30.526 138.233 30.9486C138.233 30.7373 138.448 30.1035 138.662 29.4697C138.876 28.8359 139.733 26.7232 141.019 22.9204H142.519L138.448 33.4838C138.019 34.5401 137.591 35.1739 136.948 35.8077C136.305 36.4415 135.662 36.4416 135.019 36.4416C134.591 36.4416 134.162 36.4415 133.733 36.2302V35.1739C133.948 35.1739 134.376 35.1739 134.805 35.1739C135.876 35.1739 136.519 34.5401 136.948 33.4838L137.376 32.2162L133.733 23.1316Z" fill="white"/>
<path d="M88.9505 28.8359C89.379 28.4134 89.3791 27.7795 89.3791 27.357C89.3791 25.8781 88.5219 23.7655 86.8076 23.7655C86.379 23.7655 85.7362 23.9768 85.5219 24.3993C85.0933 24.8219 85.0933 25.2444 85.0933 25.8782C85.0933 27.1458 85.9505 29.2585 87.6648 29.2585C88.0933 29.4697 88.7362 29.2584 88.9505 28.8359ZM88.3076 32.6387C88.0933 32.6387 88.0933 32.6387 87.879 32.6387C87.6648 32.6387 86.5933 32.6388 85.7362 32.85C85.3076 33.0613 84.0219 33.4838 84.0219 34.9627C84.0219 36.4416 85.3076 37.2866 87.4505 37.2866C89.379 37.2866 90.4505 36.4415 90.4505 35.1739C90.4505 34.1176 89.8076 33.695 88.3076 32.6387ZM89.8076 23.9768C90.2362 24.3993 91.3076 25.0331 91.3076 26.512C91.3076 27.9909 90.4505 28.6246 89.5933 29.2585C89.379 29.4697 88.9505 29.681 88.9505 30.3148C88.9505 30.9486 89.1648 30.9486 89.3791 31.1599L90.0219 31.7937C90.879 32.4275 91.7362 33.2725 91.7362 34.5401C91.7362 36.4415 90.0219 38.1317 86.5933 38.1317C83.8076 38.1317 82.3076 36.8641 82.3076 35.3853C82.3076 34.7515 82.7362 33.695 83.8076 33.0612C85.0933 32.2162 86.5933 32.2162 87.6648 32.2162C87.4505 31.7937 87.0219 31.5824 87.0219 30.9486C87.0219 30.526 87.0219 30.5261 87.2362 30.1036C87.0219 30.1036 86.8076 30.1036 86.5933 30.1036C84.4505 30.1036 83.379 28.6246 83.379 27.1458C83.379 26.3007 83.8076 25.2443 84.6648 24.6105C85.7362 23.7655 87.2362 23.5542 88.3076 23.5542H92.379L91.0933 24.188H89.8076V23.9768Z" fill="white"/>
<path d="M79.737 30.7373C80.1655 30.1035 80.3798 29.2585 80.3798 28.6247C80.3798 26.9345 79.5227 23.5542 77.1655 23.5542C76.5227 23.5542 75.8798 23.7654 75.4512 24.188C74.5941 24.8218 74.5941 25.6669 74.5941 26.512C74.5941 28.4134 75.6655 31.5823 78.0227 31.5823C78.6655 31.5823 79.3084 31.3711 79.737 30.7373ZM77.3798 32.2162C74.1655 32.2162 72.6655 29.8923 72.6655 27.5683C72.6655 25.0331 74.8084 22.9204 77.8084 22.9204C80.8084 22.9204 82.5227 25.2444 82.5227 27.5683C82.3084 29.8923 80.5941 32.2162 77.3798 32.2162Z" fill="white"/>
<path d="M69.0211 30.7373C69.4497 30.1035 69.664 29.2585 69.664 28.6247C69.664 26.9345 68.8068 23.5542 66.4497 23.5542C65.8068 23.5542 65.164 23.7654 64.7354 24.188C63.8783 24.8218 63.8783 25.6669 63.8783 26.512C63.8783 28.4134 64.9497 31.5823 67.3068 31.5823C67.9497 31.5823 68.5926 31.3711 69.0211 30.7373ZM66.664 32.2162C63.4497 32.2162 61.9497 29.8923 61.9497 27.5683C61.9497 25.0331 64.0926 22.9204 67.0926 22.9204C70.0926 22.9204 71.8068 25.2444 71.8068 27.5683C71.5926 29.8923 69.8783 32.2162 66.664 32.2162Z" fill="white"/>
<path d="M60.2349 32.0044L57.4491 32.6382C56.3777 32.8495 55.3063 33.0608 54.2349 33.0608C48.6634 33.0608 46.7349 29.0468 46.7349 25.8778C46.7349 22.0749 49.7349 18.4834 54.6634 18.4834C55.7349 18.4834 56.8063 18.6946 57.6634 18.9058C59.1634 19.3284 59.8063 19.751 60.2349 20.1735L58.5206 21.6524L57.8777 21.8636L58.3063 21.0185C57.6634 20.3847 56.3777 19.1172 54.0206 19.1172C50.8063 19.1172 48.4491 21.4411 48.4491 24.8214C48.4491 28.413 51.2349 32.0044 55.5206 32.0044C56.8063 32.0044 57.4491 31.7932 58.092 31.5819V28.4129L55.092 28.6242L56.592 27.7791H60.8777L60.4492 28.2017C60.2349 28.4129 60.2349 28.4129 60.2349 28.4129C60.2349 28.6241 60.2349 29.258 60.2349 29.258V32.0044Z" fill="white"/>
<path d="M96.0206 31.3713C95.3777 31.3713 95.1634 31.16 95.1634 30.5262V30.315V19.5404C95.1634 19.5404 95.1634 19.5403 95.1634 19.329C95.1634 18.6952 95.3777 18.484 96.0206 18.2727H93.2349L91.7349 18.9065H93.2349V30.315V30.9488C93.2349 31.3713 93.2349 31.3713 92.8063 32.0051H96.2349L96.8777 31.5825C96.6634 31.3713 96.4491 31.3713 96.0206 31.3713Z" fill="white"/>
<path d="M102.236 25.6671C102.664 25.4558 102.878 25.4558 102.878 25.2445C102.878 24.3994 102.021 23.5544 100.95 23.5544C100.093 23.5544 98.5928 24.1882 98.5928 26.3008C98.5928 26.7234 98.5928 26.9347 98.5928 27.3572L102.236 25.6671ZM104.164 31.5825C103.95 31.7938 103.736 31.7938 103.521 32.0051C102.878 32.2164 102.236 32.4277 101.593 32.4277C100.95 32.4277 99.8785 32.4276 99.0213 31.5825C97.5213 30.5262 97.0928 28.8361 97.0928 27.5685C97.0928 24.6108 99.6642 23.1318 101.593 23.1318C102.236 23.1318 103.093 23.3432 103.521 23.7657C104.593 24.3995 104.807 25.2445 104.807 25.6671L100.093 27.5685L98.5928 27.7797C99.0213 30.315 100.736 31.5825 102.664 31.5825C103.736 31.5825 104.378 31.16 105.021 30.9488L104.164 31.5825Z" fill="white"/>
<path d="M105.452 22.9204V23.1316H105.881V24.3993H106.095V23.1316H106.524V22.9204H105.452Z" fill="white"/>
<path d="M107.585 22.9204L107.371 23.9767L106.942 22.9204H106.728V24.3993H106.942V23.1316L107.157 24.3993H107.371L107.799 23.1316V24.3993H108.014V22.9204H107.585Z" fill="white"/>
<path d="M49.092 12.9909C48.6634 11.9345 48.6634 11.3008 48.6634 11.3008C48.6634 11.3008 48.4491 11.9345 48.0206 12.9909H49.092ZM50.592 14.681H49.5206C49.5206 14.4697 49.5206 14.2585 49.3063 13.6247H47.8063C47.592 14.2585 47.592 14.681 47.592 14.681H46.7349C46.7349 14.681 46.9491 14.0473 47.3777 12.7797C47.8063 11.5121 48.0206 10.8783 48.0206 10.667H49.092C49.092 10.8783 49.3063 11.512 49.7349 12.5683C50.3777 14.0472 50.592 14.681 50.592 14.681Z" fill="white"/>
<path d="M54.6683 14.681H53.8112C53.8112 14.681 53.5969 14.2585 52.954 13.4134C52.3112 12.5683 52.0969 11.9346 51.8826 11.7233C51.8826 12.1458 51.8826 12.5683 51.8826 12.9908C51.8826 13.4134 51.8826 14.0472 51.8826 14.8923H51.2397C51.2397 14.2585 51.2397 13.6247 51.2397 12.7796C51.2397 12.1458 51.2397 11.512 51.2397 10.8782H52.0969C52.0969 11.0894 52.3112 11.5121 52.954 12.1459C53.5969 12.9909 53.8112 13.4134 53.8112 13.836C53.8112 13.4134 53.8112 12.9908 53.8112 12.5683C53.8112 11.9345 53.8112 11.512 53.8112 10.8782H54.6683C54.6683 11.3007 54.6683 11.9346 54.6683 12.7796C54.454 13.4134 54.454 14.0472 54.6683 14.681Z" fill="white"/>
<path d="M58.0953 12.7797C58.0953 12.3571 57.8811 12.1459 57.6668 11.7233C57.4525 11.5121 57.0239 11.3008 56.5954 11.3008C56.5954 11.3008 56.3811 11.3008 56.1668 11.3008C56.1668 11.7233 56.1668 12.1458 56.1668 12.5683C56.1668 12.9909 56.1668 13.6247 56.1668 14.0472C56.3811 14.0472 56.3811 14.0472 56.5954 14.0472C57.0239 14.0472 57.4525 13.8359 57.6668 13.6247C58.0954 13.4134 58.0953 13.2022 58.0953 12.7797ZM58.9525 12.5683C58.9525 13.2021 58.7382 13.6247 58.3096 14.0472C57.8811 14.4698 57.4525 14.681 56.8096 14.681C56.5954 14.681 56.1668 14.681 55.5239 14.681C55.5239 14.0472 55.5239 13.4134 55.5239 12.5683C55.5239 11.9345 55.5239 11.3008 55.5239 10.667H56.1668C56.1668 10.667 56.3811 10.667 56.5954 10.667C56.8096 10.667 56.8096 10.667 57.0239 10.667C57.6668 10.667 58.3096 10.8782 58.7382 11.3008C58.9525 11.7233 58.9525 12.1458 58.9525 12.5683Z" fill="white"/>
<path d="M61.9505 11.9345C61.9505 11.512 61.7362 11.3008 61.0933 11.3008C60.879 11.3008 60.6648 11.3008 60.6648 11.3008C60.6648 11.512 60.6648 11.9345 60.6648 12.5683C60.879 12.5683 60.879 12.5683 60.879 12.5683C61.7362 12.5683 61.9505 12.3571 61.9505 11.9345ZM63.2362 14.681H62.379C62.1648 14.0472 61.9505 13.6247 61.7362 13.4134C61.5219 13.2022 61.3076 13.2022 61.0933 13.2022C60.879 13.2022 60.879 13.2022 60.6648 13.2022C60.6648 13.6248 60.6648 14.2585 60.6648 14.681H59.8076C59.8076 14.0472 59.8076 13.4134 59.8076 12.5683C59.8076 11.9345 59.8076 11.3008 59.8076 10.667H60.2362C60.2362 10.667 60.4505 10.667 60.6648 10.667C60.879 10.667 61.0933 10.667 61.3076 10.667C62.1648 10.667 62.8076 11.0895 62.8076 11.7233C62.8076 12.1459 62.5933 12.5684 61.9505 12.7797C62.1648 12.7797 62.3791 12.991 62.5933 13.2022C62.5933 13.6248 62.8076 14.0472 63.2362 14.681Z" fill="white"/>
<path d="M66.6679 12.7798C66.6679 12.3573 66.4536 11.9348 66.2393 11.7235C66.025 11.5122 65.8108 11.3009 65.3822 11.3009C65.1679 11.3009 64.7393 11.5122 64.525 11.7235C64.3108 11.9348 64.3108 12.3573 64.3108 12.7798C64.3108 13.2024 64.5251 13.6249 64.7393 13.8362C64.9536 14.0474 65.1679 14.2587 65.5965 14.2587C65.8108 14.2587 66.2393 14.0474 66.4536 13.8362C66.6679 13.4136 66.6679 13.2024 66.6679 12.7798ZM67.525 12.5685C67.525 13.2023 67.3108 13.6249 66.8822 14.0474C66.4536 14.4699 66.025 14.6812 65.3822 14.6812C64.7393 14.6812 64.3108 14.4699 64.0965 14.0474C63.6679 13.6249 63.4536 13.2023 63.4536 12.5685C63.4536 11.9347 63.6679 11.5123 64.0965 11.0897C64.525 10.6672 64.9536 10.4558 65.5965 10.4558C66.2393 10.4558 66.6679 10.6672 66.8822 11.0897C67.3108 11.5123 67.525 12.146 67.525 12.5685Z" fill="white"/>
<path d="M69.239 14.681H68.3818C68.3818 14.0472 68.3818 13.4134 68.3818 12.5683C68.3818 11.9345 68.3818 11.3008 68.3818 10.667H69.239C69.239 11.0895 69.239 11.7233 69.239 12.5683C69.239 13.4134 69.239 14.0472 69.239 14.681Z" fill="white"/>
<path d="M72.8737 12.7797C72.8737 12.3571 72.6594 12.1459 72.4451 11.7233C72.2308 11.5121 71.8022 11.3008 71.3737 11.3008C71.3737 11.3008 71.1594 11.3008 70.9451 11.3008C70.9451 11.7233 70.9451 12.1458 70.9451 12.5683C70.9451 12.9909 70.9451 13.6247 70.9451 14.0472C71.1594 14.0472 71.1594 14.0472 71.3737 14.0472C71.8022 14.0472 72.2308 13.8359 72.4451 13.6247C72.8737 13.4134 72.8737 13.2022 72.8737 12.7797ZM73.7308 12.5683C73.7308 13.2021 73.5165 13.6247 73.088 14.0472C72.6594 14.4698 72.2308 14.681 71.588 14.681C71.3737 14.681 70.9451 14.681 70.3022 14.681C70.3022 14.0472 70.3022 13.4134 70.3022 12.5683C70.3022 11.9345 70.3022 11.3008 70.3022 10.667H70.9451C70.9451 10.667 71.1594 10.667 71.3737 10.667C71.588 10.667 71.588 10.667 71.8022 10.667C72.4451 10.667 73.088 10.8782 73.5165 11.3008C73.5165 11.7233 73.7308 12.1458 73.7308 12.5683Z" fill="white"/>
<path d="M78.239 12.9909C77.8104 11.9345 77.8104 11.3008 77.8104 11.3008C77.8104 11.3008 77.5961 11.9345 77.1675 12.9909H78.239ZM79.739 14.681H78.6676C78.6676 14.4697 78.6675 14.2585 78.4533 13.6247H76.9533C76.739 14.2585 76.739 14.681 76.739 14.681H75.8818C75.8818 14.681 76.0961 14.0473 76.5247 12.7797C76.9533 11.5121 77.1675 10.8783 77.1675 10.667H78.239C78.239 10.8783 78.4533 11.512 78.8818 12.5683C79.5247 14.0472 79.739 14.681 79.739 14.681Z" fill="white"/>
<path d="M82.5232 11.9345C82.5232 11.512 82.3089 11.3008 81.6661 11.3008C81.4518 11.3008 81.4518 11.3008 81.2375 11.3008C81.2375 11.7233 81.2375 12.1458 81.2375 12.5683H81.4518C82.0947 12.5683 82.5232 12.3571 82.5232 11.9345ZM83.3804 11.7233C83.3804 12.1459 83.1661 12.5684 82.7375 12.7797C82.3089 12.9909 81.8804 13.2022 81.4518 13.2022H81.2375C81.2375 13.6248 81.2375 14.0472 81.2375 14.681H80.3804C80.3804 14.0472 80.3804 13.4134 80.3804 12.5683C80.3804 11.9345 80.3804 11.3008 80.3804 10.667H81.0232C81.0232 10.667 81.2375 10.667 81.4518 10.667C81.6661 10.667 81.8804 10.667 82.0947 10.667C82.5232 10.667 82.7375 10.6669 83.1661 10.8782C83.1661 11.0895 83.3804 11.5121 83.3804 11.7233Z" fill="white"/>
<path d="M86.1692 11.9345C86.1692 11.512 85.9549 11.3008 85.3121 11.3008C85.0978 11.3008 85.0978 11.3008 84.8835 11.3008C84.8835 11.7233 84.8835 12.1458 84.8835 12.5683H85.0978C85.7407 12.5683 86.1692 12.3571 86.1692 11.9345ZM87.0264 11.7233C87.0264 12.1459 86.8121 12.5684 86.3835 12.7797C85.9549 12.9909 85.5264 13.2022 85.0978 13.2022H84.8835C84.8835 13.6248 84.8835 14.0472 84.8835 14.681H84.0264C84.0264 14.0472 84.0264 13.4134 84.0264 12.5683C84.0264 11.9345 84.0264 11.3008 84.0264 10.667H84.4549C84.4549 10.667 84.6692 10.667 84.8835 10.667C85.0978 10.667 85.3121 10.667 85.5264 10.667C85.9549 10.667 86.1692 10.6669 86.5978 10.8782C86.8121 11.0895 87.0264 11.5121 87.0264 11.7233Z" fill="white"/>
<path d="M92.1689 12.7798C92.1689 12.3573 91.9546 11.9348 91.7403 11.7235C91.526 11.5122 91.3117 11.3009 90.8832 11.3009C90.6689 11.3009 90.2403 11.5122 90.026 11.7235C89.8117 11.9348 89.8117 12.3573 89.8117 12.7798C89.8117 13.2024 90.026 13.6249 90.2403 13.8362C90.4546 14.0474 90.6689 14.2587 91.0974 14.2587C91.3117 14.2587 91.7403 14.0474 91.9546 13.8362C92.1689 13.4136 92.1689 13.2024 92.1689 12.7798ZM93.026 12.5685C93.026 13.2023 92.8117 13.6249 92.3832 14.0474C91.9546 14.4699 91.526 14.6812 90.8832 14.6812C90.2403 14.6812 89.8117 14.4699 89.5975 14.0474C89.1689 13.6249 88.9546 13.2023 88.9546 12.5685C88.9546 11.9347 89.1689 11.5123 89.5975 11.0897C90.026 10.6672 90.4546 10.4558 91.0974 10.4558C91.7403 10.4558 92.1689 10.6672 92.3832 11.0897C92.8117 11.5123 93.026 12.146 93.026 12.5685Z" fill="white"/>
<path d="M97.0965 14.681H96.2393C96.2393 14.681 96.025 14.2585 95.3822 13.4134C94.7393 12.5683 94.525 11.9346 94.3108 11.7233C94.3108 12.1458 94.3108 12.5683 94.3108 12.9908C94.3108 13.4134 94.3108 14.0472 94.3108 14.8923H93.4536C93.4536 14.2585 93.4536 13.6247 93.4536 12.7796C93.4536 12.1458 93.4536 11.512 93.4536 10.8782H94.3108C94.3108 11.0894 94.525 11.5121 95.1679 12.1459C95.8108 12.9909 96.0251 13.4134 96.0251 13.836C96.0251 13.4134 96.0251 12.9908 96.0251 12.5683C96.0251 11.9345 96.0251 11.512 96.0251 10.8782H96.8822C96.8822 11.3007 96.8822 11.9346 96.8822 12.7796C97.0965 13.4134 97.0965 14.0472 97.0965 14.681Z" fill="white"/>
<defs>
<linearGradient id="paint0_linear_5001_295" x1="21.2983" y1="10.2513" x2="21.2983" y2="42.2836" gradientUnits="userSpaceOnUse">
<stop stop-color="#2179B1"/>
<stop offset="0.2843" stop-color="#4A94B9"/>
<stop offset="0.7664" stop-color="#82BEBF"/>
<stop offset="1" stop-color="#96CFBF"/>
</linearGradient>
<linearGradient id="paint1_linear_5001_295" x1="13.1517" y1="18.4465" x2="33.9353" y2="18.4465" gradientUnits="userSpaceOnUse">
<stop stop-color="#58BCAC"/>
<stop offset="1" stop-color="#E5E99B"/>
</linearGradient>
<linearGradient id="paint2_linear_5001_295" x1="23.6553" y1="26.2668" x2="23.6553" y2="42.3996" gradientUnits="userSpaceOnUse">
<stop stop-color="#E53432"/>
<stop offset="0.166" stop-color="#D73848"/>
<stop offset="0.5744" stop-color="#B43F73"/>
<stop offset="0.8617" stop-color="#9A428A"/>
<stop offset="1" stop-color="#904292"/>
</linearGradient>
<linearGradient id="paint3_linear_5001_295" x1="35.3211" y1="21.9655" x2="35.3211" y2="30.5708" gradientUnits="userSpaceOnUse">
<stop stop-color="#F18879"/>
<stop offset="0.1018" stop-color="#F2907A"/>
<stop offset="0.707" stop-color="#F9BB77"/>
<stop offset="1" stop-color="#FDCA73"/>
</linearGradient>
</defs>
</svg>
