<svg width="151" height="50" viewBox="0 0 151 50" fill="none" xmlns="http://www.w3.org/2000/svg">
<path d="M8.91477 49.1693C8.49164 49.1693 8.28007 49.1693 7.85694 49.1693C7.22225 49.1693 6.58755 49.1692 5.74129 48.9579C5.10659 48.7467 4.47189 48.5354 3.83719 48.3242C3.2025 48.1129 2.77937 47.6904 2.35624 47.2678C1.93311 46.8453 1.50998 46.2115 1.29841 45.7889C1.08685 45.1551 0.875276 44.7327 0.663711 43.8876C0.452145 43.0425 0.452148 42.4087 0.452148 41.7749C0.452148 41.5636 0.452148 40.7186 0.452148 40.7186V9.18801C0.452148 9.18801 0.452148 8.34294 0.452148 8.13167C0.452148 7.49787 0.452145 6.86407 0.663711 6.01899C0.875276 5.38519 0.875283 4.75147 1.29841 4.11766C1.50998 3.48386 1.93311 3.0613 2.35624 2.63876C2.77937 2.21623 3.41406 1.79369 3.83719 1.58243C4.47189 1.37116 5.10659 1.15992 5.74129 0.94865C6.58755 0.737382 7.22225 0.737305 7.85694 0.737305H8.91477H142.085H143.143C143.778 0.737305 144.413 0.737382 145.259 0.94865C145.894 1.15992 146.528 1.37116 147.163 1.58243C147.798 1.79369 148.221 2.21623 148.644 2.63876C149.067 3.0613 149.49 3.69513 149.702 4.11766C149.913 4.75147 150.125 5.38519 150.337 6.01899C150.548 6.6528 150.548 7.49787 150.548 8.13167C150.548 8.34294 150.548 8.76547 150.548 9.18801C150.548 9.61054 150.548 10.0332 150.548 10.4557V39.6622C150.548 40.0848 150.548 40.5073 150.548 40.9298C150.548 41.3523 150.548 41.5636 150.548 41.9861C150.548 42.6199 150.548 43.2537 150.337 44.0988C150.125 44.7326 150.125 45.3665 149.702 46.0003C149.49 46.6341 149.067 47.0566 148.644 47.4792C148.221 47.9017 147.586 48.3242 147.163 48.5355C146.528 48.7468 145.894 48.958 145.259 49.1693C144.624 49.3806 143.778 49.3805 143.143 49.3805C142.72 49.3805 142.509 49.3805 142.085 49.3805H140.816L8.91477 49.1693Z" fill="black"/>
<path d="M51.5991 31.385H55.4073L53.9263 27.5823C53.7148 27.1597 53.5032 26.5259 53.2917 25.8921C53.0801 26.5259 52.8685 26.9484 52.657 27.5823L51.5991 31.385ZM56.042 33.0752H50.7529L49.4835 36.4555H47.1562L52.2338 23.5681H54.3495L59.6386 36.4555H57.3114L56.042 33.0752Z" fill="white"/>
<path d="M66.6185 34.1314C67.0416 33.4976 67.2532 32.6526 67.2532 31.385C67.2532 30.3286 67.0416 29.4836 66.6185 29.0611C66.1954 28.6385 65.7723 28.4272 65.1376 28.4272C64.7144 28.4272 64.2913 28.4273 63.8682 28.6385C63.445 28.8498 63.2335 29.061 62.8103 29.4835V34.7652C63.0219 34.9765 63.2335 34.9765 63.6566 34.9765C63.8682 34.9765 64.2913 34.9765 64.5029 34.9765C65.5607 35.1878 66.1954 34.7652 66.6185 34.1314ZM60.9062 29.2723C60.9062 28.6385 60.9062 27.7935 60.9062 26.9484H63.0219C63.0219 27.3709 63.2335 27.7934 63.2335 28.216C64.0797 27.3709 65.1376 26.7371 66.1954 26.7371C66.8301 26.7371 67.4648 26.9484 67.8879 27.1596C68.5226 27.5822 68.9457 28.0047 69.1573 28.6385C69.5804 29.2723 69.5804 30.3286 69.5804 31.385C69.5804 32.4413 69.3689 33.4977 68.9457 34.3428C68.5226 35.1878 68.0995 35.8216 67.2532 36.2441C66.407 36.6666 65.7723 36.8779 64.926 36.8779C64.2913 36.8779 63.6566 36.6667 63.0219 36.4554V40.4695L60.9062 40.6808V29.2723Z" fill="white"/>
<path d="M76.7816 34.1314C77.2047 33.4976 77.4163 32.6526 77.4163 31.385C77.4163 30.3286 77.2047 29.4836 76.7816 29.0611C76.3585 28.6385 75.9353 28.4272 75.3006 28.4272C74.8775 28.4272 74.4544 28.4273 74.0312 28.6385C73.6081 28.8498 73.3965 29.061 72.9734 29.4835V34.7652C73.185 34.9765 73.3965 34.9765 73.8197 34.9765C74.0312 34.9765 74.4544 34.9765 74.6659 34.9765C75.7238 35.1878 76.3585 34.7652 76.7816 34.1314ZM71.0693 29.2723C71.0693 28.6385 71.0693 27.7935 71.0693 26.9484H73.185C73.185 27.3709 73.3966 27.7934 73.3966 28.216C74.2428 27.3709 75.3006 26.7371 76.3585 26.7371C76.9932 26.7371 77.6279 26.9484 78.051 27.1596C78.6857 27.5822 79.1088 28.0047 79.3204 28.6385C79.7435 29.2723 79.7435 30.3286 79.7435 31.385C79.7435 32.4413 79.5319 33.4977 79.1088 34.3428C78.6857 35.1878 78.2626 35.8216 77.4163 36.2441C76.57 36.6666 75.9353 36.8779 75.0891 36.8779C74.4544 36.8779 73.8197 36.6667 73.185 36.4554V40.4695L71.0693 40.6808V29.2723Z" fill="white"/>
<path d="M83.9727 36.0332C82.9148 35.6106 82.2801 34.7655 81.857 33.7091C81.4339 32.6528 81.0107 31.5966 81.0107 30.1177C81.0107 28.6388 81.2223 27.3711 81.857 26.3148C82.4917 25.2584 83.338 24.6247 84.1842 23.9909C85.2421 23.5683 86.2999 23.1458 87.5693 23.1458C88.4155 23.1458 89.0502 23.1458 89.6849 23.3571C90.3196 23.5684 90.9543 23.7796 91.589 23.9909L90.9543 25.681C89.6849 25.0472 88.6271 24.836 87.5693 24.836C86.723 24.836 85.8768 25.0472 85.2421 25.4698C84.6074 25.8923 83.9727 26.5261 83.7611 27.1599C83.338 28.005 83.1264 28.85 83.1264 29.9063C83.1264 30.7514 83.338 31.5965 83.5495 32.4416C83.7611 33.2866 84.3958 33.7092 84.8189 34.1317C85.4536 34.5542 86.2999 34.7655 87.1461 34.7655C87.5693 34.7655 87.9924 34.7655 88.4155 34.5543C88.8387 34.5543 89.2618 34.343 89.6849 34.343V31.8078H86.723V30.1177H91.8006V35.6106C90.9543 36.0331 90.3196 36.2444 89.4734 36.4557C88.6271 36.667 87.7808 36.6669 86.9346 36.6669C86.0883 36.6669 85.0305 36.4557 83.9727 36.0332Z" fill="white"/>
<path d="M98.7836 34.7648C99.2068 34.5535 99.6299 34.3423 99.8415 33.9198V32.2296C99.2068 32.2296 98.7836 32.2296 98.3605 32.2296C97.5142 32.2296 96.8795 32.4408 96.4564 32.6521C96.0333 32.8633 96.0333 33.286 96.0333 33.9198C96.0333 34.3423 96.2448 34.7648 96.4564 34.9761C96.668 35.1874 97.0911 35.3987 97.5142 35.3987C97.9374 35.1874 98.3605 34.976 98.7836 34.7648ZM100.053 36.6662C100.053 36.2437 99.8415 35.8212 99.8415 35.3987C99.4183 35.8212 98.9952 36.2437 98.5721 36.455C97.9374 36.6663 97.3027 36.8774 96.668 36.8774C96.0333 36.8774 95.6101 36.6663 95.187 36.455C94.7639 36.2437 94.3407 35.8212 94.1292 35.3987C93.9176 34.9761 93.7061 34.3422 93.7061 33.7084C93.7061 32.8633 94.1292 32.0183 94.7639 31.3845C95.3986 30.7507 96.668 30.5394 98.1489 30.5394C98.7836 30.5394 99.4183 30.5395 99.8415 30.7507V30.5394C99.8415 29.6943 99.6299 29.0606 99.2068 28.6381C98.7836 28.2155 98.3605 28.2155 97.7258 28.2155C97.3027 28.2155 96.668 28.2155 96.2448 28.4267C95.6101 28.638 95.187 28.638 94.7639 28.8493L94.3408 27.1592C94.7639 26.9479 95.187 26.7366 95.8217 26.7366C96.4564 26.5253 97.0911 26.5254 97.9374 26.5254C98.7836 26.5254 99.4183 26.7367 100.053 26.948C100.688 27.1592 101.111 27.5817 101.322 28.2155C101.746 28.8493 101.746 29.6944 101.746 30.7507V34.5535C101.746 34.9761 101.746 35.6099 101.746 36.455H100.053V36.6662Z" fill="white"/>
<path d="M104.07 34.3421V22.9336L106.186 22.7224V33.9196C106.186 34.3421 106.186 34.5533 106.398 34.7646C106.609 34.9758 106.821 34.9759 107.032 34.9759C107.244 34.9759 107.455 34.9759 107.667 34.9759L107.878 36.666C107.667 36.666 107.455 36.8772 107.032 36.8772C106.821 36.8772 106.398 36.8772 106.186 36.8772C104.917 36.666 104.07 35.821 104.07 34.3421Z" fill="white"/>
<path d="M109.572 34.3421V22.9336L111.687 22.7224V33.9196C111.687 34.3421 111.687 34.5533 111.899 34.7646C112.111 34.9758 112.322 34.9759 112.534 34.9759C112.745 34.9759 112.957 34.9759 113.168 34.9759L113.38 36.666C113.168 36.666 112.957 36.8772 112.534 36.8772C112.322 36.8772 111.899 36.8772 111.687 36.8772C110.418 36.666 109.572 35.821 109.572 34.3421Z" fill="white"/>
<path d="M120.57 30.5399C120.57 29.6948 120.359 29.2723 119.936 28.8497C119.512 28.4272 119.089 28.216 118.455 28.216C117.82 28.216 117.397 28.4272 116.974 28.8497C116.551 29.2723 116.339 29.906 116.339 30.5399H120.57ZM122.686 32.0188H116.339C116.339 34.1314 117.397 34.9765 119.301 34.9765C119.724 34.9765 120.147 34.9765 120.782 34.7652C121.205 34.5539 121.628 34.554 122.051 34.3428L122.474 35.8215C121.417 36.2441 120.147 36.6667 118.878 36.6667C117.82 36.6667 116.974 36.4554 116.339 36.0329C115.704 35.6104 115.07 35.1878 114.646 34.3428C114.223 33.709 114.012 32.6526 114.012 31.8075C114.012 30.7512 114.223 29.9062 114.646 29.0611C115.07 28.216 115.493 27.7934 116.127 27.3708C116.762 26.9483 117.608 26.7371 118.455 26.7371C119.301 26.7371 120.147 26.9483 120.782 27.3708C121.417 27.7934 121.84 28.4273 122.051 29.0611C122.263 29.6949 122.474 30.5399 122.474 31.385V32.0188H122.686Z" fill="white"/>
<path d="M124.591 29.2716C124.591 28.6378 124.591 28.0041 124.591 26.9478H126.707C126.707 27.159 126.707 27.5816 126.707 28.0041C126.707 28.4266 126.707 28.6378 126.707 28.8491C126.919 28.4265 127.13 28.004 127.553 27.7927C127.765 27.5815 128.188 27.3702 128.399 27.159C128.823 26.9477 129.034 26.9478 129.457 26.9478C129.88 26.9478 130.092 26.9477 130.304 27.159L130.092 29.0604C129.88 29.0604 129.669 29.0604 129.457 29.0604C129.034 29.0604 128.399 29.2716 128.188 29.4829C127.765 29.6941 127.342 30.1167 126.919 30.7505V36.8772H124.803V29.2716H124.591Z" fill="white"/>
<path d="M131.57 40.4695C131.147 40.4695 130.936 40.2582 130.724 40.2582L131.147 38.5681C131.359 38.5681 131.57 38.5681 131.782 38.7793C131.994 38.7793 132.205 38.7793 132.417 38.7793C133.474 38.7793 134.109 38.1455 134.532 36.8779L134.744 36.4554L131.147 26.7371H133.474L135.167 32.2301C135.379 33.0752 135.59 33.9202 135.802 34.3428C136.013 33.709 136.225 32.8639 136.436 32.2301L138.34 26.7371H140.668L137.071 36.6667C136.648 37.5117 136.436 38.3568 136.013 38.9906C135.59 39.6244 135.167 40.047 134.532 40.2582C133.898 40.4695 133.263 40.6808 132.628 40.6808C132.205 40.6808 131.994 40.4695 131.57 40.4695Z" fill="white"/>
<path d="M47.3711 10.8918H51.3908L51.1793 11.9482H48.4289V13.8496H50.9677V14.6946H48.4289V16.8073H51.3908L51.1793 17.6524H47.3711V10.8918Z" fill="white"/>
<path d="M54.1388 14.2722L52.0231 10.8918H53.2925L54.7734 13.4271L56.2544 10.8918H57.5238L55.4081 14.2722L57.7354 17.6524H56.2544L54.7734 15.1172L53.0809 17.6524H51.8115L54.1388 14.2722Z" fill="white"/>
<path d="M61.544 14.0609C61.7555 13.8496 61.9671 13.4271 61.9671 13.0045C61.9671 12.582 61.7555 12.3708 61.544 12.1595C61.3324 11.9483 60.9093 11.9482 60.4861 11.9482H59.8514V14.2722C60.063 14.2722 60.2746 14.2722 60.4861 14.2722C60.9093 14.2722 61.3324 14.2721 61.544 14.0609ZM58.582 10.8918H60.4861C61.3324 10.8918 61.9671 11.1031 62.3902 11.3144C62.8133 11.7369 63.0249 12.1595 63.0249 12.7933C63.0249 13.2158 63.0249 13.6383 62.8133 14.0609C62.6018 14.4834 62.3902 14.6947 61.9671 14.906C61.5439 15.1172 61.1208 15.1172 60.6977 15.1172C60.4861 15.1172 60.063 15.1172 59.8514 15.1172V17.6524H58.582V10.8918Z" fill="white"/>
<path d="M64.2983 10.8918H65.3562V16.8073H68.1065V17.6524H64.2983V10.8918Z" fill="white"/>
<path d="M72.9731 16.5961C73.3963 16.3848 73.6079 16.1735 73.6079 15.751C73.8194 15.3284 73.8194 14.906 73.8194 14.4834C73.8194 14.0609 73.8194 13.6384 73.6079 13.2159C73.3963 12.7933 73.1847 12.582 72.9731 12.3707C72.7616 12.1595 72.3385 11.9482 71.7038 11.9482C71.2806 11.9482 70.8575 12.1595 70.4344 12.3707C70.0112 12.582 69.7997 13.0046 69.5881 13.2159C69.3765 13.6384 69.3765 14.0609 69.3765 14.4834C69.3765 14.906 69.3765 15.3284 69.5881 15.751C69.7997 16.1735 70.0112 16.3848 70.2228 16.5961C70.6459 16.8074 70.8575 17.0187 71.4922 17.0187C72.3385 16.8074 72.7616 16.8074 72.9731 16.5961ZM70.0112 17.4412C69.5881 17.23 69.165 16.8073 68.9534 16.1735C68.7418 15.5397 68.5303 15.1172 68.5303 14.4834C68.5303 13.8496 68.7418 13.2158 68.9534 12.582C69.165 11.9482 69.5881 11.7369 70.2228 11.3144C70.6459 11.1031 71.2806 10.8918 72.1269 10.8918C72.7616 10.8918 73.3963 11.1031 73.8194 11.3144C74.2425 11.5257 74.6657 11.9482 74.8772 12.582C75.0888 13.0045 75.3004 13.6384 75.3004 14.2722C75.3004 14.906 75.0888 15.5397 74.8772 16.1735C74.6657 16.8073 74.2425 17.0187 73.6079 17.4412C73.1847 17.6525 72.55 17.8637 71.7038 17.8637C71.0691 17.8637 70.4344 17.6525 70.0112 17.4412Z" fill="white"/>
<path d="M78.2565 14.0609C78.468 14.0609 78.8912 14.0609 79.1027 13.8496C79.3143 13.6384 79.5259 13.6384 79.5259 13.4271C79.5259 13.2158 79.7374 13.0046 79.7374 12.7933C79.7374 12.3708 79.5259 12.1595 79.3143 11.9482C79.1027 11.7369 78.8912 11.737 78.4681 11.737H77.6218V14.0609H78.2565ZM76.564 10.8918H78.6796C79.5259 10.8918 79.949 11.1031 80.3721 11.3144C80.7953 11.5257 81.0068 12.1594 81.0068 12.582C81.0068 13.0045 81.0068 13.2158 80.7953 13.4271C80.5837 13.6384 80.3721 13.8496 80.1606 14.0609C79.949 14.2721 79.7375 14.2722 79.5259 14.4834L81.6415 17.4412H80.3721L78.6796 14.6946H77.8334V17.4412H76.564V10.8918Z" fill="white"/>
<path d="M82.7031 10.8918H86.5113V11.9482H83.761V13.8496H86.2997V14.6946H83.761V16.8073H86.7229L86.5113 17.6524H82.7031V10.8918Z" fill="white"/>
<path d="M92.2129 10.8918H90.9453V17.6524H92.2129V10.8918Z" fill="white"/>
<path d="M95.1835 11.9482H93.0679L93.2794 10.8918H98.5686L98.357 11.9482H96.4529V17.6524H95.1835V11.9482Z" fill="white"/>
<path d="M106.606 16.5961C107.029 16.3848 107.241 16.1735 107.241 15.751C107.452 15.3284 107.452 14.906 107.452 14.4834C107.452 14.0609 107.452 13.6384 107.241 13.2159C107.029 12.7933 106.818 12.582 106.606 12.3707C106.394 12.1595 105.971 11.9482 105.337 11.9482C104.913 11.9482 104.49 12.1595 104.067 12.3707C103.644 12.582 103.432 13.0046 103.221 13.2159C103.009 13.6384 103.009 14.0609 103.009 14.4834C103.009 14.906 103.009 15.3284 103.221 15.751C103.432 16.1735 103.644 16.3848 103.856 16.5961C104.279 16.8074 104.49 17.0187 105.125 17.0187C105.971 16.8074 106.183 16.8074 106.606 16.5961ZM103.644 17.4412C103.221 17.23 102.798 16.8073 102.586 16.1735C102.375 15.5397 102.163 15.1172 102.163 14.4834C102.163 13.8496 102.375 13.2158 102.586 12.582C102.798 11.9482 103.221 11.7369 103.856 11.3144C104.279 11.1031 104.913 10.8918 105.76 10.8918C106.394 10.8918 107.029 11.1031 107.452 11.3144C107.875 11.5257 108.298 11.9482 108.51 12.582C108.722 13.0045 108.933 13.6384 108.933 14.2722C108.933 14.906 108.722 15.5397 108.51 16.1735C108.298 16.8073 107.875 17.0187 107.241 17.4412C106.818 17.6525 106.183 17.8637 105.337 17.8637C104.702 17.8637 104.067 17.6525 103.644 17.4412Z" fill="white"/>
<path d="M110.21 10.8918H111.479L114.864 16.1735C114.864 15.751 114.864 15.1172 114.864 14.6946V10.8918H115.922V17.6524H114.653L111.268 12.3707C111.268 13.0045 111.268 13.4271 111.268 14.0609V17.8637H110.21V10.8918Z" fill="white"/>
<path d="M18.3925 10.8918C12.4687 10.8918 10.353 13.0045 10.353 18.92V31.3848C10.353 37.3003 12.4687 39.413 18.3925 39.413H30.8749C36.7987 39.413 38.9144 37.3003 38.9144 31.3848V18.92C38.9144 13.0045 36.7987 10.8918 30.8749 10.8918H18.3925Z" fill="#C71623"/>
<path d="M22.826 27.3705H23.8838L23.2491 26.103L22.826 27.3705ZM22.6144 28.2156L22.1913 29.0608H21.345L23.0375 25.2578H23.6722L25.3648 29.0608H24.5185L24.0954 28.2156H22.6144ZM35.0968 28.8494H35.943V25.0466H35.0968V28.8494ZM31.9233 27.3705H33.4043V26.7367H31.9233V25.8918H33.8274V25.2578H31.2886V29.0608H34.039V28.2156H31.9233V27.3705ZM28.9614 27.7931L28.1151 25.2578H27.4804L26.6342 27.7931L25.7879 25.2578H24.9416L26.211 29.0608H27.0573L27.9036 26.5255L28.7498 29.0608H29.3845L30.6539 25.2578H29.8076L28.9614 27.7931ZM20.2872 27.3705C20.2872 28.0043 20.0756 28.2156 19.4409 28.2156C18.8062 28.2156 18.5947 27.7931 18.5947 27.1593V25.0466H17.7484V27.1593C17.7484 28.2156 18.3831 28.8494 19.4409 28.8494C20.4988 28.8494 21.1334 28.2156 21.1334 27.1593V25.0466H20.2872V27.3705ZM16.0559 25.2578H16.9021V29.0608H16.0559V27.5819H14.3634V29.0608H13.5171V25.2578H14.3634V26.7367H16.0559V25.2578Z" fill="white"/>
<path d="M24.7308 20.3987C22.192 20.3987 19.8647 18.286 19.8647 15.5396H20.4994C20.4994 17.8635 22.4035 19.5537 24.5192 19.5537C26.8464 19.5537 28.5389 17.6522 28.5389 15.5396H29.1736C29.3852 18.286 27.2695 20.3987 24.7308 20.3987Z" fill="white"/>
</svg>
