<svg width="29" height="29" viewBox="0 0 29 29" fill="none" xmlns="http://www.w3.org/2000/svg">
<path d="M16.0161 6.04265C15.0297 5.05545 13.7727 4.38299 12.404 4.11033C11.0353 3.83767 9.61653 3.97706 8.32709 4.51087C7.03765 5.04468 5.9355 5.94892 5.16005 7.10922C4.38461 8.26951 3.9707 9.63372 3.9707 11.0293C3.9707 12.4249 4.38461 13.7891 5.16005 14.9494C5.9355 16.1097 7.03765 17.0139 8.32709 17.5477C9.61653 18.0815 11.0353 18.2209 12.404 17.9483C13.7727 17.6756 15.0297 17.0031 16.0161 16.0159C16.6776 15.3648 17.2029 14.5886 17.5615 13.7325C17.9201 12.8764 18.1047 11.9575 18.1047 11.0293C18.1047 10.1011 17.9201 9.18222 17.5615 8.32611C17.2029 7.47 16.6776 6.69378 16.0161 6.04265ZM11.0319 17.1155C9.62441 17.1157 8.26033 16.628 7.17213 15.7353C6.08393 14.8425 5.33893 13.6001 5.06408 12.2197C4.78923 10.8393 5.00153 9.40625 5.66481 8.16481C6.32809 6.92337 7.40131 5.95032 8.7016 5.41146C10.0019 4.8726 11.4488 4.80128 12.7958 5.20964C14.1428 5.618 15.3065 6.48078 16.0886 7.65097C16.8708 8.82116 17.223 10.2264 17.0853 11.6271C16.9475 13.0279 16.3283 14.3376 15.3332 15.333C14.7698 15.8998 14.0995 16.3492 13.3612 16.6552C12.6228 16.9612 11.8311 17.1176 11.0319 17.1155Z" fill="#7BC142"/>
<path d="M27.5249 23.7612L19.9735 16.2146C21.2333 14.044 21.6605 11.4893 21.1755 9.027C20.6904 6.56466 19.3263 4.36281 17.3375 2.83213C15.3487 1.30145 12.871 0.546459 10.3665 0.707967C7.86209 0.869475 5.50189 1.93646 3.72616 3.70991C1.95042 5.48336 0.880402 7.84218 0.715668 10.3464C0.550935 12.8507 1.30274 15.3293 2.83086 17.3201C4.35897 19.3109 6.55906 20.6779 9.02077 21.166C11.4825 21.6542 14.0377 21.2303 16.2099 19.9734L23.7613 27.5248C24.0084 27.7719 24.3018 27.9679 24.6247 28.1016C24.9476 28.2354 25.2936 28.3042 25.6431 28.3042C25.9926 28.3042 26.3387 28.2354 26.6615 28.1016C26.9844 27.9679 27.2778 27.7719 27.5249 27.5248C27.772 27.2776 27.9681 26.9843 28.1018 26.6614C28.2356 26.3385 28.3044 25.9924 28.3044 25.643C28.3044 25.2935 28.2356 24.9474 28.1018 24.6245C27.9681 24.3017 27.772 24.0083 27.5249 23.7612ZM4.4057 17.6532C3.31593 16.564 2.51165 15.2229 2.06412 13.7485C1.61659 12.2742 1.53964 10.7123 1.84008 9.20109C2.14052 7.68992 2.80908 6.27618 3.78651 5.08516C4.76395 3.89414 6.02007 2.96261 7.44359 2.37311C8.8671 1.78361 10.414 1.55434 11.9473 1.70562C13.4807 1.85691 14.953 2.38407 16.2338 3.24039C17.5147 4.09672 18.5646 5.25577 19.2904 6.61484C20.0162 7.97392 20.3956 9.49104 20.3949 11.0318C20.4002 12.7942 19.9029 14.5215 18.9612 16.0112C18.9611 16.0149 18.9602 16.0186 18.9585 16.0219C18.9568 16.0253 18.9544 16.0282 18.9515 16.0305C18.2112 17.2003 17.2222 18.1926 16.0549 18.9368L16.0113 18.9659C14.2133 20.091 12.087 20.5737 9.97939 20.3353C7.87175 20.0969 5.90705 19.1515 4.4057 17.6532ZM26.842 26.8418C26.5242 27.1583 26.094 27.336 25.6455 27.336C25.1971 27.336 24.7669 27.1583 24.4491 26.8418L17.043 19.4357C17.5027 19.1042 17.9352 18.7365 18.3363 18.3362C18.7353 17.9355 19.1029 17.5047 19.4359 17.0477L26.842 24.449C27.1584 24.7667 27.3361 25.1969 27.3361 25.6454C27.3361 26.0939 27.1584 26.5241 26.842 26.8418Z" fill="#7BC142"/>
</svg>
