<svg width="32" height="36" viewBox="0 0 32 36" fill="none" xmlns="http://www.w3.org/2000/svg">
<path d="M24.2747 9H29.5368C29.8551 9.00031 30.1619 9.11885 30.3979 9.33263C30.6338 9.54641 30.782 9.84022 30.8138 10.1571L31.5975 18H29.0127L28.3703 11.5714H24.2747V15.4286C24.2747 15.7696 24.1393 16.0966 23.8984 16.3377C23.6574 16.5788 23.3307 16.7143 22.9899 16.7143C22.6492 16.7143 22.3224 16.5788 22.0815 16.3377C21.8406 16.0966 21.7052 15.7696 21.7052 15.4286V11.5714H11.4275V15.4286C11.4275 15.7696 11.2922 16.0966 11.0512 16.3377C10.8103 16.5788 10.4835 16.7143 10.1428 16.7143C9.80209 16.7143 9.47532 16.5788 9.23439 16.3377C8.99346 16.0966 8.85811 15.7696 8.85811 15.4286V11.5714H4.75988L2.70434 32.1429H16.5664V34.7143H1.28344C1.10401 34.7141 0.926594 34.6763 0.76264 34.6033C0.598685 34.5304 0.451824 34.4238 0.331519 34.2906C0.211214 34.1573 0.120132 34.0004 0.064142 33.8298C0.00815223 33.6591 -0.0115041 33.4787 0.00643985 33.3L2.31892 10.1571C2.35075 9.84022 2.49899 9.54641 2.73491 9.33263C2.97084 9.11885 3.27766 9.00031 3.59593 9H8.85811V8.10257C8.85811 3.64371 12.2909 0 16.5664 0C20.8419 0 24.2747 3.64371 24.2747 8.10257V9.00257V9ZM21.7052 9V8.10257C21.7052 5.03229 19.3876 2.57143 16.5664 2.57143C13.7452 2.57143 11.4275 5.03229 11.4275 8.10257V9.00257H21.7052V9ZM29.7912 28.44L26.8441 25.4931V34.7143C26.8441 35.0553 26.7087 35.3823 26.4678 35.6234C26.2269 35.8645 25.9001 36 25.5594 36C25.2186 36 24.8919 35.8645 24.6509 35.6234C24.41 35.3823 24.2747 35.0553 24.2747 34.7143V25.4931L21.3301 28.44C21.2116 28.5628 21.0698 28.6607 20.9131 28.7281C20.7563 28.7955 20.5878 28.831 20.4172 28.8325C20.2466 28.8339 20.0774 28.8014 19.9195 28.7368C19.7617 28.6721 19.6182 28.5767 19.4976 28.4559C19.377 28.3352 19.2816 28.1917 19.217 28.0337C19.1524 27.8756 19.1199 27.7063 19.1214 27.5356C19.1228 27.3649 19.1583 27.1962 19.2256 27.0393C19.2929 26.8825 19.3908 26.7406 19.5135 26.622L24.6524 21.4791C24.8933 21.2381 25.22 21.1027 25.5606 21.1027C25.9013 21.1027 26.228 21.2381 26.4689 21.4791L31.6078 26.622C31.7305 26.7406 31.8284 26.8825 31.8957 27.0393C31.963 27.1962 31.9985 27.3649 32 27.5356C32.0014 27.7063 31.9689 27.8756 31.9043 28.0337C31.8397 28.1917 31.7443 28.3352 31.6237 28.4559C31.5031 28.5767 31.3597 28.6721 31.2018 28.7368C31.0439 28.8014 30.8747 28.8339 30.7041 28.8325C30.5335 28.831 30.365 28.7955 30.2082 28.7281C30.0515 28.6607 29.9097 28.5628 29.7912 28.44Z" fill="#7BC142"/>
</svg>
