<svg width="108" height="17" viewBox="0 0 108 17" fill="none" xmlns="http://www.w3.org/2000/svg">
<path d="M16.1462 8.17649C16.1462 12.5948 12.5645 16.1765 8.14617 16.1765C3.72789 16.1765 0.146172 12.5948 0.146172 8.17649C0.146171 3.75822 3.72789 0.176493 8.14617 0.176493C12.5645 0.176492 16.1462 3.75821 16.1462 8.17649ZM108 9.67648L8.14617 9.67649L8.14617 6.67649L108 6.67648L108 9.67648Z" fill="#7BC142"/>
<circle cx="3.11765" cy="3.11765" r="3.11765" transform="matrix(-4.37114e-08 -1 -1 4.37114e-08 11.2344 11.2354)" fill="white"/>
<rect width="4.04047" height="4.04047" transform="matrix(-1 1.42497e-05 1.42497e-05 1 97.7793 6.27368)" fill="white"/>
<rect width="4.04047" height="4.04047" transform="matrix(-1 1.42497e-05 1.42497e-05 1 86.8457 6.51154)" fill="white"/>
</svg>
