<svg width="21" height="26" viewBox="0 0 21 26" fill="none" xmlns="http://www.w3.org/2000/svg">
<path d="M10.0667 21.612C10.0667 21.612 17.2568 13.6469 17.2568 10.0554C17.2568 6.46399 14.0376 3.55254 10.0667 3.55254C6.09568 3.55254 2.87656 6.46399 2.87656 10.0554C2.87656 13.6469 10.0667 21.612 10.0667 21.612ZM12.2691 23.3326L10.0667 25.7725L7.86419 23.3326C7.79868 23.26 7.68387 23.1309 7.52672 22.9512C7.2693 22.6569 6.98363 22.3239 6.6766 21.9583C5.7996 20.9137 4.92239 19.8105 4.09915 18.6929C3.50511 17.8865 2.96033 17.1006 2.47505 16.3423C0.896877 13.8762 0.000513077 11.8439 0.000513077 10.0554C0.000513077 4.96924 4.52513 0.877064 10.0667 0.877064C15.6082 0.877064 20.1328 4.96924 20.1328 10.0554C20.1328 11.8439 19.2364 13.8762 17.6583 16.3423C17.173 17.1006 16.6282 17.8865 16.0342 18.6929C15.2109 19.8105 14.3337 20.9137 13.4567 21.9583C13.1497 22.3239 12.864 22.6569 12.6066 22.9512C12.4495 23.1309 12.3346 23.26 12.2691 23.3326ZM10.0667 6.1182C12.4493 6.1182 14.3807 7.8781 14.3807 10.0491C14.3807 12.22 12.4493 13.9799 10.0667 13.9799C7.68407 13.9799 5.7526 12.22 5.7526 10.0491C5.7526 7.8781 7.68407 6.1182 10.0667 6.1182ZM10.0667 8.73877C9.27247 8.73877 8.62864 9.3254 8.62864 10.0491C8.62864 10.7727 9.27247 11.3593 10.0667 11.3593C10.8609 11.3593 11.5047 10.7727 11.5047 10.0491C11.5047 9.3254 10.8609 8.73877 10.0667 8.73877Z" fill="#7BC142"/>
</svg>
