<svg width="108" height="17" viewBox="0 0 108 17" fill="none" xmlns="http://www.w3.org/2000/svg">
<path d="M91.8542 8.96378C91.8541 4.5455 95.4358 0.963727 99.8541 0.963664C104.272 0.963601 107.854 4.54527 107.854 8.96355C107.854 13.3818 104.273 16.9636 99.8543 16.9637C95.436 16.9637 91.8542 13.3821 91.8542 8.96378ZM-2.13634e-05 7.46509L99.8542 7.46366L99.8542 10.4637L2.13634e-05 10.4651L-2.13634e-05 7.46509Z" fill="#7BC142"/>
<circle cx="3.11766" cy="3.11766" r="3.11766" transform="matrix(1.4206e-05 1 1 -1.4206e-05 96.7646 5.90503)" fill="white"/>
<rect width="4.04049" height="4.04049" transform="matrix(1 -2.84121e-05 -2.84121e-05 -1 10.2197 10.8677)" fill="white"/>
<rect width="4.04049" height="4.04049" transform="matrix(1 -2.84121e-05 -2.84121e-05 -1 21.1533 10.6296)" fill="white"/>
</svg>
