<svg width="27" height="26" viewBox="0 0 27 26" fill="none" xmlns="http://www.w3.org/2000/svg">
<path d="M26.0952 9.23441C26.0952 9.19357 26.0918 9.15437 26.0866 9.11516L26.0875 9.12007C26.0747 9.07433 26.0601 9.03676 26.0447 9L26.0473 9.00654C26.0284 8.94691 26.007 8.89709 25.9813 8.8489L25.9839 8.85462C25.9651 8.8146 25.9462 8.78111 25.9265 8.74926L25.9291 8.75334C25.9223 8.74354 25.9214 8.73129 25.9145 8.72149C25.8966 8.6978 25.8692 8.68555 25.8495 8.6635C25.8109 8.62021 25.7707 8.58183 25.727 8.54589L25.7253 8.54507C25.7022 8.52629 25.6902 8.50097 25.6654 8.48382L13.6782 0.316302C13.6679 0.308951 13.6551 0.308135 13.644 0.301601C13.5849 0.268114 13.5164 0.237894 13.4453 0.215842L13.4376 0.214208C13.3871 0.190522 13.3272 0.16847 13.2647 0.151318L13.257 0.149685C13.2201 0.145601 13.1773 0.143151 13.1345 0.143151C13.1114 0.143151 13.0891 0.143967 13.0669 0.145601H13.0703C13.0455 0.143967 13.0172 0.142334 12.989 0.142334C12.9401 0.142334 12.8913 0.145601 12.8443 0.151318L12.8494 0.150501C12.7877 0.167653 12.7355 0.186439 12.6858 0.209308L12.6918 0.206857C12.6054 0.232993 12.5309 0.265663 12.4615 0.305684L12.4658 0.303234C12.4555 0.309768 12.4444 0.309768 12.4341 0.317119L0.44695 8.48463C0.42212 8.50178 0.410132 8.5271 0.38787 8.54507C0.341634 8.58183 0.300535 8.62103 0.263718 8.6635L0.262861 8.66513C0.243168 8.68719 0.216625 8.69862 0.198645 8.72231C0.190938 8.73211 0.190082 8.74436 0.183232 8.75498C0.166108 8.78193 0.148127 8.81378 0.131859 8.84727L0.12929 8.85299C0.106172 8.89628 0.0839101 8.94773 0.0667856 9.00082L0.0650732 9.00817C0.0513736 9.03839 0.0376739 9.07596 0.026543 9.11516L0.0248305 9.1217C0.0205494 9.15518 0.0171245 9.19439 0.0171245 9.23359C0.0145558 9.26218 0 9.28668 0 9.31527V22.3833C0.00171245 23.8485 1.24667 25.0361 2.78274 25.0377H23.3322C24.8682 25.0369 26.114 23.8485 26.1149 22.3833V9.31527C26.1149 9.28668 26.1003 9.263 26.0978 9.23523L26.0952 9.23441ZM13.0549 16.2266L2.90946 9.31445L13.0549 2.40228L23.2003 9.31445L13.0549 16.2266ZM23.3296 22.995H2.78017C2.42569 22.995 2.138 22.7206 2.138 22.3825V11.2983L12.4324 18.3126C12.4589 18.3273 12.4915 18.3428 12.5249 18.3567L12.5317 18.3592C12.5583 18.3739 12.59 18.3894 12.6233 18.4033L12.6302 18.4057C12.7543 18.4629 12.8999 18.498 13.0532 18.5021H13.0549H13.0566C13.2116 18.498 13.3571 18.4629 13.4873 18.4033L13.4804 18.4057C13.5198 18.3894 13.5524 18.3739 13.5832 18.3567L13.578 18.3592C13.6183 18.3428 13.6508 18.3265 13.6816 18.3093L13.6765 18.3118L23.9709 11.2975V22.3817C23.9709 22.7198 23.6832 22.9942 23.3287 22.9942L23.3296 22.995Z" fill="#7BC142"/>
</svg>
