<svg width="29" height="26" viewBox="0 0 29 26" fill="none" xmlns="http://www.w3.org/2000/svg">
<path fill-rule="evenodd" clip-rule="evenodd" d="M9.76922 16.7195C13.1983 19.7084 16.3833 21.3746 18.7533 22.3C20.8221 23.1078 23.2643 22.4743 25.1684 20.8148L25.6043 20.4348L20.3731 17.5333C19.3781 18.7978 17.4984 19.5382 15.6216 18.8476C14.1992 18.3244 12.3182 17.4307 10.6358 15.9642C8.95331 14.4978 7.92793 12.8584 7.32756 11.6188C6.53533 9.9829 7.3848 8.34443 8.83547 7.47717L5.50656 2.91777L5.07057 3.29777C3.16655 4.9573 2.43983 7.08588 3.36661 8.88912C4.42827 10.9549 6.3401 13.7307 9.76922 16.7195ZM17.5438 24.6533C14.8593 23.6054 11.3719 21.7632 7.67714 18.5429C3.98241 15.3227 1.86899 12.283 0.666494 9.94333C-0.924829 6.84706 0.527053 3.61098 2.9785 1.47432L3.41448 1.09432C4.75289 -0.0722205 6.98647 0.141479 8.00265 1.53331L12.1903 7.26876C12.4151 7.57674 12.4796 7.95336 12.3678 8.30517C12.2559 8.65697 11.9784 8.95098 11.6037 9.11424L10.6663 9.52277C10.0275 9.80115 9.89642 10.292 10.0533 10.6159C10.5546 11.651 11.3928 12.9771 12.7278 14.1408C14.0631 15.3045 15.5844 16.035 16.772 16.4719C17.1438 16.6086 17.7068 16.4944 18.0262 15.9376L18.495 15.1206C18.6823 14.7941 19.0196 14.5521 19.4233 14.4546C19.8268 14.3571 20.2589 14.4135 20.6123 14.6094L27.1928 18.2593C28.7896 19.1449 29.0349 21.0917 27.6964 22.2582L27.2604 22.6382C24.809 24.7749 21.0961 26.0403 17.5438 24.6533Z" fill="#7BC142"/>
</svg>
