<svg width="20" height="20" viewBox="0 0 20 20" fill="none" xmlns="http://www.w3.org/2000/svg">
<path d="M19.231 0.26779C19.0451 0.148978 18.8373 0.0673961 18.6194 0.0277062C18.4016 -0.0119838 18.1779 -0.00900451 17.9612 0.0364737C17.7445 0.081952 17.539 0.169038 17.3565 0.292757C17.174 0.416476 17.018 0.574404 16.8975 0.757519L7.44319 15.112L2.83247 10.9127C2.6698 10.7646 2.4791 10.6494 2.27125 10.5739C2.0634 10.4983 1.84247 10.4638 1.62109 10.4724C1.17398 10.4896 0.752146 10.6811 0.448376 11.0047C0.144605 11.3283 -0.0162152 11.7575 0.0012935 12.1979C0.0188022 12.6383 0.213206 13.0539 0.541737 13.3531L6.59563 18.8664C6.59563 18.8664 6.76941 19.0138 6.84984 19.0653C7.03571 19.1842 7.24355 19.2658 7.46147 19.3056C7.6794 19.3453 7.90313 19.3424 8.1199 19.2969C8.33666 19.2514 8.5422 19.1643 8.72476 19.0405C8.90733 18.9167 9.06334 18.7588 9.18388 18.5756L19.7281 2.5663C19.8488 2.38324 19.9316 2.17856 19.9719 1.96396C20.0122 1.74936 20.0091 1.52904 19.963 1.31559C19.9168 1.10214 19.8284 0.899742 19.7028 0.719958C19.5772 0.540173 19.4169 0.386525 19.231 0.26779Z" fill="#7BC142"/>
</svg>
