<svg width="60" height="46" viewBox="0 0 60 46" fill="none" xmlns="http://www.w3.org/2000/svg">
<path d="M22.019 6.99213C22.019 6.28644 21.4469 5.71436 20.7412 5.71436C20.0355 5.71436 19.4634 6.28644 19.4634 6.99213V9.68272C17.0112 9.87908 15.4014 10.361 14.2187 11.5437C13.036 12.7264 12.554 14.3362 12.3577 16.7884H46.1617C45.9653 14.3362 45.4834 12.7264 44.3007 11.5437C43.118 10.361 41.5082 9.87908 39.056 9.68272V6.99213C39.056 6.28644 38.4839 5.71436 37.7782 5.71436C37.0725 5.71436 36.5004 6.28644 36.5004 6.99213V9.56967C35.367 9.54769 34.0966 9.54769 32.6671 9.54769H25.8523C24.4228 9.54769 23.1524 9.54769 22.019 9.56967V6.99213Z" fill="#817C7A"/>
<path fill-rule="evenodd" clip-rule="evenodd" d="M12.2227 23.1773C12.2227 21.7479 12.2227 20.4774 12.2446 19.344H46.2748C46.2967 20.4774 46.2967 21.7479 46.2967 23.1773V26.5847C46.2967 33.0098 46.2967 36.2223 44.3007 38.2183C42.3047 40.2144 39.0922 40.2144 32.6671 40.2144H25.8523C19.4272 40.2144 16.2147 40.2144 14.2187 38.2183C12.2227 36.2223 12.2227 33.0098 12.2227 26.5847V23.1773ZM37.7782 26.5847C38.7191 26.5847 39.4819 25.822 39.4819 24.881C39.4819 23.9401 38.7191 23.1773 37.7782 23.1773C36.8373 23.1773 36.0745 23.9401 36.0745 24.881C36.0745 25.822 36.8373 26.5847 37.7782 26.5847ZM37.7782 33.3995C38.7191 33.3995 39.4819 32.6368 39.4819 31.6958C39.4819 30.7549 38.7191 29.9921 37.7782 29.9921C36.8373 29.9921 36.0745 30.7549 36.0745 31.6958C36.0745 32.6368 36.8373 33.3995 37.7782 33.3995ZM30.9634 24.881C30.9634 25.822 30.2006 26.5847 29.2597 26.5847C28.3188 26.5847 27.556 25.822 27.556 24.881C27.556 23.9401 28.3188 23.1773 29.2597 23.1773C30.2006 23.1773 30.9634 23.9401 30.9634 24.881ZM30.9634 31.6958C30.9634 32.6368 30.2006 33.3995 29.2597 33.3995C28.3188 33.3995 27.556 32.6368 27.556 31.6958C27.556 30.7549 28.3188 29.9921 29.2597 29.9921C30.2006 29.9921 30.9634 30.7549 30.9634 31.6958ZM20.7412 26.5847C21.6821 26.5847 22.4449 25.822 22.4449 24.881C22.4449 23.9401 21.6821 23.1773 20.7412 23.1773C19.8002 23.1773 19.0375 23.9401 19.0375 24.881C19.0375 25.822 19.8002 26.5847 20.7412 26.5847ZM20.7412 33.3995C21.6821 33.3995 22.4449 32.6368 22.4449 31.6958C22.4449 30.7549 21.6821 29.9921 20.7412 29.9921C19.8002 29.9921 19.0375 30.7549 19.0375 31.6958C19.0375 32.6368 19.8002 33.3995 20.7412 33.3995Z" fill="#817C7A"/>
<path d="M22.0206 6.99213C22.0206 6.28644 21.4486 5.71436 20.7429 5.71436C20.0372 5.71436 19.4651 6.28644 19.4651 6.99213V9.68272C17.0129 9.87908 15.4031 10.361 14.2204 11.5437C13.0376 12.7264 12.5557 14.3362 12.3594 16.7884H46.1634C45.967 14.3362 45.4851 12.7264 44.3024 11.5437C43.1197 10.361 41.5099 9.87908 39.0577 9.68272V6.99213C39.0577 6.28644 38.4856 5.71436 37.7799 5.71436C37.0742 5.71436 36.5021 6.28644 36.5021 6.99213V9.56967C35.3687 9.54769 34.0983 9.54769 32.6688 9.54769H25.854C24.4245 9.54769 23.1541 9.54769 22.0206 9.56967V6.99213Z" fill="#0095DA"/>
</svg>
