<svg width="60" height="46" viewBox="0 0 60 46" fill="none" xmlns="http://www.w3.org/2000/svg">
<path fill-rule="evenodd" clip-rule="evenodd" d="M20.0878 31.5862C20.7841 31.9343 21.0664 32.781 20.7182 33.4774L20.3728 34.1682C20.2892 34.3354 20.322 34.5373 20.4541 34.6695C21.4444 35.6597 21.6899 37.1725 21.0636 38.4251L20.7182 39.1159C20.37 39.8122 19.5233 40.0945 18.827 39.7463C18.1307 39.3981 17.8484 38.5514 18.1966 37.8551L18.542 37.1643C18.6256 36.9971 18.5928 36.7952 18.4606 36.663C17.4704 35.6727 17.2249 34.1599 17.8512 32.9074L18.1966 32.2166C18.5447 31.5202 19.3915 31.238 20.0878 31.5862Z" fill="#817C7A"/>
<path fill-rule="evenodd" clip-rule="evenodd" d="M40.7623 31.5862C41.4587 31.9343 41.7409 32.781 41.3927 33.4774L41.0473 34.1682C40.9637 34.3354 40.9965 34.5373 41.1287 34.6695C42.1189 35.6597 42.3644 37.1725 41.7381 38.4251L41.3927 39.1159C41.0446 39.8122 40.1978 40.0945 39.5015 39.7463C38.8052 39.3981 38.5229 38.5514 38.8711 37.8551L39.2165 37.1643C39.3001 36.9971 39.2673 36.7952 39.1352 36.663C38.1449 35.6727 37.8994 34.1599 38.5257 32.9074L38.8711 32.2166C39.2193 31.5202 40.066 31.238 40.7623 31.5862Z" fill="#817C7A"/>
<path fill-rule="evenodd" clip-rule="evenodd" d="M30.5767 31.6739C31.2245 32.1058 31.3995 32.981 30.9677 33.6287L30.3914 34.4932C30.0752 34.9674 30.1846 35.606 30.6406 35.948C32.2936 37.1877 32.6901 39.5028 31.544 41.222L30.9677 42.0865C30.5359 42.7343 29.6607 42.9093 29.0129 42.4775C28.3651 42.0456 28.1901 41.1704 28.6219 40.5227L29.1982 39.6582C29.5144 39.184 29.405 38.5454 28.949 38.2034C27.2961 36.9637 26.8995 34.6486 28.0456 32.9293L28.6219 32.0649C29.0538 31.4171 29.929 31.2421 30.5767 31.6739Z" fill="#817C7A"/>
<path fill-rule="evenodd" clip-rule="evenodd" d="M18.518 3.71436H41.0721C44.6161 3.71436 46.3881 3.71436 47.4891 4.81534C48.5901 5.91633 48.5901 7.68834 48.5901 11.2324V16.8709C48.5901 22.1869 48.5901 24.8449 46.9386 26.4964C45.9404 27.4947 44.5744 27.8895 42.4759 28.0457C42.466 26.7889 42.4391 25.4107 42.3659 24.8666C42.2417 23.9426 41.9615 23.0568 41.2431 22.3384C40.5246 21.6199 39.6389 21.3398 38.7149 21.2156C37.8527 21.0996 36.776 21.0997 35.5263 21.0998H24.0637C22.8141 21.0997 21.7374 21.0996 20.8752 21.2156C19.9512 21.3398 19.0654 21.6199 18.347 22.3384C17.6286 23.0568 17.3484 23.9426 17.2242 24.8666C17.151 25.4107 17.1241 26.7889 17.1141 28.0457C15.0157 27.8895 13.6497 27.4947 12.6515 26.4964C11 24.8449 11 22.1869 11 16.8709V11.2324C11 7.68834 11 5.91633 12.101 4.81534C13.202 3.71436 14.974 3.71436 18.518 3.71436ZM17.1084 15.9311C17.1084 15.1526 17.7395 14.5215 18.518 14.5215H41.0721C41.8506 14.5215 42.4817 15.1526 42.4817 15.9311C42.4817 16.7096 41.8506 17.3408 41.0721 17.3408H18.518C17.7395 17.3408 17.1084 16.7096 17.1084 15.9311ZM17.1084 11.2324C17.1084 10.4539 17.7395 9.82274 18.518 9.82274H41.0721C41.8506 9.82274 42.4817 10.4539 42.4817 11.2324C42.4817 12.0109 41.8506 12.642 41.0721 12.642H18.518C17.7395 12.642 17.1084 12.0109 17.1084 11.2324Z" fill="#817C7A"/>
<path d="M37.313 28.1479H22.277C21.4304 28.1479 20.6513 28.1479 19.9328 28.1412C19.9411 26.9219 19.9626 25.6562 20.0183 25.2422C20.1005 24.6308 20.2332 24.4392 20.3405 24.3319C20.4478 24.2246 20.6395 24.0919 21.2509 24.0097C21.9028 23.922 22.7877 23.919 24.1565 23.919H35.4335C36.8024 23.919 37.6872 23.922 38.3392 24.0097C38.9506 24.0919 39.1423 24.2246 39.2496 24.3319C39.3569 24.4392 39.4896 24.6308 39.5718 25.2422C39.6274 25.6562 39.649 26.9219 39.6573 28.1412C38.9388 28.1479 38.1596 28.1479 37.313 28.1479Z" fill="#817C7A"/>
<path fill-rule="evenodd" clip-rule="evenodd" d="M20.0841 31.5861C20.7804 31.9343 21.0627 32.781 20.7145 33.4774L20.3691 34.1682C20.2855 34.3353 20.3183 34.5373 20.4504 34.6694C21.4407 35.6597 21.6862 37.1725 21.0599 38.4251L20.7145 39.1159C20.3663 39.8122 19.5196 40.0944 18.8233 39.7463C18.127 39.3981 17.8447 38.5514 18.1929 37.8551L18.5383 37.1643C18.6219 36.9971 18.5891 36.7951 18.4569 36.663C17.4667 35.6727 17.2212 34.1599 17.8475 32.9073L18.1929 32.2165C18.541 31.5202 19.3878 31.238 20.0841 31.5861Z" fill="#0095DA"/>
<path fill-rule="evenodd" clip-rule="evenodd" d="M40.7586 31.5861C41.455 31.9343 41.7372 32.781 41.389 33.4774L41.0436 34.1682C40.96 34.3353 40.9928 34.5373 41.125 34.6694C42.1152 35.6597 42.3607 37.1725 41.7344 38.4251L41.389 39.1159C41.0409 39.8122 40.1942 40.0944 39.4978 39.7463C38.8015 39.3981 38.5193 38.5514 38.8674 37.8551L39.2128 37.1643C39.2964 36.9971 39.2636 36.7951 39.1315 36.663C38.1412 35.6727 37.8957 34.1599 38.522 32.9073L38.8674 32.2165C39.2156 31.5202 40.0623 31.238 40.7586 31.5861Z" fill="#0095DA"/>
<path fill-rule="evenodd" clip-rule="evenodd" d="M30.573 31.6739C31.2208 32.1058 31.3959 32.9809 30.964 33.6287L30.3877 34.4932C30.0716 34.9674 30.1809 35.606 30.6369 35.948C32.2899 37.1877 32.6864 39.5028 31.5403 41.222L30.964 42.0865C30.5322 42.7342 29.657 42.9093 29.0092 42.4774C28.3614 42.0456 28.1864 41.1704 28.6182 40.5226L29.1946 39.6582C29.5107 39.184 29.4013 38.5453 28.9454 38.2034C27.2924 36.9636 26.8958 34.6485 28.0419 32.9293L28.6182 32.0649C29.0501 31.4171 29.9253 31.2421 30.573 31.6739Z" fill="#0095DA"/>
</svg>
