<svg width="60" height="46" viewBox="0 0 60 46" fill="none" xmlns="http://www.w3.org/2000/svg">
<path fill-rule="evenodd" clip-rule="evenodd" d="M39.125 7.02686C39.8499 7.02686 40.4375 7.61448 40.4375 8.33936V12.2769H44.375C45.0999 12.2769 45.6875 12.8645 45.6875 13.5894C45.6875 14.3142 45.0999 14.9019 44.375 14.9019H40.4375V18.8394C40.4375 19.5642 39.8499 20.1519 39.125 20.1519C38.4001 20.1519 37.8125 19.5642 37.8125 18.8394V14.9019H33.875C33.1501 14.9019 32.5625 14.3142 32.5625 13.5894C32.5625 12.8645 33.1501 12.2769 33.875 12.2769H37.8125V8.33936C37.8125 7.61448 38.4001 7.02686 39.125 7.02686Z" fill="#0095DA"/>
<path d="M12 13.5894C12 9.87704 12 8.02089 13.1533 6.86762C14.3065 5.71436 16.1627 5.71436 19.875 5.71436C23.5873 5.71436 25.4435 5.71436 26.5967 6.86762C27.75 8.02089 27.75 9.87704 27.75 13.5894C27.75 17.3017 27.75 19.1578 26.5967 20.3111C25.4435 21.4644 23.5873 21.4644 19.875 21.4644C16.1627 21.4644 14.3065 21.4644 13.1533 20.3111C12 19.1578 12 17.3017 12 13.5894Z" fill="#817C7A"/>
<path d="M31.2461 32.8394C31.2461 29.127 31.2461 27.2709 32.3994 26.1176C33.5526 24.9644 35.4088 24.9644 39.1211 24.9644C42.8334 24.9644 44.6896 24.9644 45.8428 26.1176C46.9961 27.2709 46.9961 29.127 46.9961 32.8394C46.9961 36.5517 46.9961 38.4078 45.8428 39.5611C44.6896 40.7144 42.8334 40.7144 39.1211 40.7144C35.4088 40.7144 33.5526 40.7144 32.3994 39.5611C31.2461 38.4078 31.2461 36.5517 31.2461 32.8394Z" fill="#817C7A"/>
<path d="M12 32.8394C12 29.127 12 27.2709 13.1533 26.1176C14.3065 24.9644 16.1627 24.9644 19.875 24.9644C23.5873 24.9644 25.4435 24.9644 26.5967 26.1176C27.75 27.2709 27.75 29.127 27.75 32.8394C27.75 36.5517 27.75 38.4078 26.5967 39.5611C25.4435 40.7144 23.5873 40.7144 19.875 40.7144C16.1627 40.7144 14.3065 40.7144 13.1533 39.5611C12 38.4078 12 36.5517 12 32.8394Z" fill="#817C7A"/>
</svg>
