<svg width="56" height="56" viewBox="0 0 56 56" fill="none" xmlns="http://www.w3.org/2000/svg">
<g clip-path="url(#clip0_5001_1237)">
<path d="M28.0034 54.3551C33.2361 54.3551 38.3512 52.8034 42.7019 49.8963C47.0527 46.9892 50.4437 42.8573 52.4461 38.0229C54.4486 33.1886 54.9725 27.8691 53.9517 22.737C52.9308 17.605 50.4111 12.8909 46.711 9.19084C43.011 5.49083 38.297 2.9711 33.1649 1.95027C28.0328 0.929436 22.7133 1.45334 17.8789 3.45577C13.0446 5.45821 8.9127 8.84924 6.00562 13.2C3.09853 17.5508 1.54688 22.6658 1.54688 27.8985C1.54688 34.9152 4.33426 41.6445 9.29583 46.6061C14.2574 51.5677 20.9867 54.3551 28.0034 54.3551Z" fill="#1B1D23"/>
<path d="M5.71405 27.8983C5.71405 27.7919 5.71405 27.6855 5.71405 27.5942H0.0274203C0.0274203 27.6855 0.0274203 27.7919 0.0274203 27.8983C0.0145495 33.4049 1.62434 38.7932 4.65572 43.3903C7.68709 47.9874 12.0057 51.5895 17.0721 53.7467L17.8172 47.756C14.187 45.8836 11.141 43.0498 9.01196 39.5639C6.8829 36.078 5.7526 32.0742 5.74449 27.9896" fill="#004764"/>
<path d="M50.2753 27.5942C50.2753 27.6855 50.2753 27.7919 50.2753 27.8983C50.2804 31.7274 49.2977 35.4931 47.4221 38.8314C45.5465 42.1696 42.8415 44.9676 39.5685 46.955C36.2955 48.9423 32.5653 50.0517 28.7382 50.1761C24.9111 50.3004 21.1167 49.4354 17.7216 47.6647L16.9766 53.6555C21.2375 55.4756 25.8833 56.2109 30.498 55.7954C35.1127 55.3799 39.5524 53.8266 43.4196 51.2745C47.2869 48.7225 50.4609 45.2513 52.6577 41.1718C54.8545 37.0923 56.0055 32.5317 56.0076 27.8983C56.0076 27.7919 56.0076 27.6855 56.0076 27.5942H50.2753Z" fill="#FAB70A"/>
<path d="M56.0076 27.5942C55.8372 20.2811 52.8123 13.325 47.5799 8.21307C42.3475 3.10117 35.3227 0.239258 28.0077 0.239258C20.6927 0.239258 13.6679 3.10117 8.43548 8.21307C3.20306 13.325 0.178241 20.2811 0.0078125 27.5942H5.72488C5.72488 21.6864 8.07174 16.0206 12.2492 11.8432C16.4266 7.66581 22.0923 5.319 28.0001 5.319C33.9078 5.319 39.5737 7.66581 43.7511 11.8432C47.9285 16.0206 50.2753 21.6864 50.2753 27.5942H56.0076Z" fill="#009BD3"/>
<path d="M17.1147 42.282L21.2352 9.24171L21.296 8.69434H21.8282H25.9031H26.5873L26.5113 9.39376L24.3522 26.6057L33.9617 17.9693L34.129 17.8021H34.3571H39.6028H41.2601L40.0133 18.8816L30.1301 27.442L38.0975 42.0692L38.584 42.9662H37.5653H32.5477H32.1827L32.0155 42.6317L25.9791 31.076L23.5464 33.1895L22.3908 42.4341L22.3148 42.9662H21.7826H17.7229H17.0234L17.1147 42.282Z" fill="white"/>
</g>
<defs>
<clipPath id="clip0_5001_1237">
<rect width="56" height="56" fill="white"/>
</clipPath>
</defs>
</svg>
