<svg width="60" height="46" viewBox="0 0 60 46" fill="none" xmlns="http://www.w3.org/2000/svg">
<path fill-rule="evenodd" clip-rule="evenodd" d="M29.5484 41.7144C38.4954 41.7144 45.7483 34.5294 45.7483 25.6662C45.7483 16.8031 38.4954 9.61813 29.5484 9.61813C20.6015 9.61813 13.3486 16.8031 13.3486 25.6662C13.3486 34.5294 20.6015 41.7144 29.5484 41.7144ZM29.5484 17.1964C30.294 17.1964 30.8984 17.7952 30.8984 18.5337V25.1123L35.003 29.1784C35.5302 29.7007 35.5302 30.5474 35.003 31.0697C34.4758 31.592 33.621 31.592 33.0938 31.0697L28.5939 26.6119C28.3407 26.3611 28.1985 26.0209 28.1985 25.6662V18.5337C28.1985 17.7952 28.8029 17.1964 29.5484 17.1964Z" fill="#817C7A"/>
<path fill-rule="evenodd" clip-rule="evenodd" d="M22.5934 5.34309C22.9885 5.96942 22.7963 6.79449 22.1641 7.18594L14.9641 11.6438C14.3318 12.0352 13.499 11.8448 13.1038 11.2185C12.7087 10.5921 12.9009 9.76707 13.5331 9.37562L20.7331 4.91781C21.3653 4.52636 22.1982 4.71676 22.5934 5.34309Z" fill="#817C7A"/>
<path fill-rule="evenodd" clip-rule="evenodd" d="M36.5036 5.34309C36.8987 4.71676 37.7316 4.52636 38.3638 4.91781L45.5638 9.37562C46.196 9.76708 46.3882 10.5922 45.9931 11.2185C45.5979 11.8448 44.765 12.0352 44.1328 11.6438L36.9329 7.18594C36.3006 6.79449 36.1084 5.96941 36.5036 5.34309Z" fill="#817C7A"/>
<path fill-rule="evenodd" clip-rule="evenodd" d="M22.5934 5.34309C22.9885 5.96942 22.7963 6.79449 22.1641 7.18594L14.9641 11.6438C14.3318 12.0352 13.499 11.8448 13.1038 11.2185C12.7087 10.5921 12.9009 9.76707 13.5331 9.37562L20.7331 4.91781C21.3653 4.52636 22.1982 4.71676 22.5934 5.34309Z" fill="#0095DA"/>
<path fill-rule="evenodd" clip-rule="evenodd" d="M36.5036 5.34309C36.8987 4.71676 37.7316 4.52636 38.3638 4.91781L45.5638 9.37562C46.196 9.76708 46.3882 10.5922 45.9931 11.2185C45.5979 11.8448 44.765 12.0352 44.1328 11.6438L36.9329 7.18594C36.3006 6.79449 36.1084 5.96941 36.5036 5.34309Z" fill="#0095DA"/>
</svg>
