<svg width="60" height="46" viewBox="0 0 60 46" fill="none" xmlns="http://www.w3.org/2000/svg">
<path fill-rule="evenodd" clip-rule="evenodd" d="M19.291 11.5477C19.291 8.32603 21.9289 5.71436 25.183 5.71436C28.437 5.71436 31.0749 8.32603 31.0749 11.5477C31.0749 14.7693 28.437 17.381 25.183 17.381H13.3991C12.6482 17.381 12.0395 16.7783 12.0395 16.0349C12.0395 15.2914 12.6482 14.6887 13.3991 14.6887H25.183C26.9351 14.6887 28.3555 13.2824 28.3555 11.5477C28.3555 9.81295 26.9351 8.40666 25.183 8.40666C23.4308 8.40666 22.0104 9.81295 22.0104 11.5477V12.1887C22.0104 12.9322 21.4016 13.5349 20.6507 13.5349C19.8998 13.5349 19.291 12.9322 19.291 12.1887V11.5477ZM33.7942 15.1374C33.7942 10.9245 37.2438 7.50923 41.499 7.50923C45.7543 7.50923 49.2038 10.9245 49.2038 15.1374C49.2038 19.3504 45.7543 22.7656 41.499 22.7656H11.5862C10.8353 22.7656 10.2266 22.1629 10.2266 21.4195C10.2266 20.676 10.8353 20.0733 11.5862 20.0733H41.499C44.2524 20.0733 46.4845 17.8635 46.4845 15.1374C46.4845 12.4114 44.2524 10.2015 41.499 10.2015C38.7456 10.2015 36.5136 12.4114 36.5136 15.1374V16.0349C36.5136 16.7783 35.9048 17.381 35.1539 17.381C34.403 17.381 33.7942 16.7783 33.7942 16.0349V15.1374ZM13.8524 26.8041C13.8524 26.0606 14.4611 25.4579 15.212 25.4579H41.499C45.7543 25.4579 49.2038 28.8732 49.2038 33.0862C49.2038 37.2991 45.7543 40.7144 41.499 40.7144C37.2438 40.7144 33.7942 37.2991 33.7942 33.0862V32.1887C33.7942 31.4453 34.403 30.8426 35.1539 30.8426C35.9048 30.8426 36.5136 31.4453 36.5136 32.1887V33.0862C36.5136 35.8122 38.7456 38.022 41.499 38.022C44.2524 38.022 46.4845 35.8122 46.4845 33.0862C46.4845 30.3601 44.2524 28.1503 41.499 28.1503H15.212C14.4611 28.1503 13.8524 27.5476 13.8524 26.8041Z" fill="#817C7A"/>
<path fill-rule="evenodd" clip-rule="evenodd" d="M19.2906 11.5477C19.2906 8.32603 21.9285 5.71436 25.1826 5.71436C28.4366 5.71436 31.0745 8.32603 31.0745 11.5477C31.0745 14.7693 28.4366 17.381 25.1826 17.381H13.3987C12.6478 17.381 12.0391 16.7783 12.0391 16.0349C12.0391 15.2914 12.6478 14.6887 13.3987 14.6887H25.1826C26.9347 14.6887 28.3551 13.2824 28.3551 11.5477C28.3551 9.81295 26.9347 8.40666 25.1826 8.40666C23.4304 8.40666 22.01 9.81295 22.01 11.5477V12.1887C22.01 12.9322 21.4012 13.5349 20.6503 13.5349C19.8994 13.5349 19.2906 12.9322 19.2906 12.1887V11.5477Z" fill="#0095DA"/>
</svg>
